<?xml version="1.0" encoding="UTF-8"?>
<svg width="307px" height="136px" viewBox="0 0 307 136" version="1.1" xmlns="http://www.w3.org/2000/svg" xmlns:xlink="http://www.w3.org/1999/xlink">
    <!-- Generator: Sketch 64 (93537) - https://sketch.com -->
    <title>Black logo</title>
    <desc>Created with Sketch.</desc>
    <g id="Page-1" stroke="none" stroke-width="1" fill="none" fill-rule="evenodd">
        <g id="Black-logo" fill-rule="nonzero">
            <path d="M191.25,103.360754 L191.25,88.060754 L210.69,88.060754 L210.69,80.260754 L191.25,80.260754 L191.25,69.160754 L213.27,69.160754 L213.27,61.360754 L181.53,61.360754 L181.53,103.360754 L191.25,103.360754 Z M239.79,104.080754 C244.15,104.080754 248.07,103.140754 251.55,101.260754 C255.03,99.380754 257.77,96.790754 259.77,93.490754 C261.77,90.190754 262.77,86.480754 262.77,82.360754 C262.77,78.240754 261.77,74.530754 259.77,71.230754 C257.77,67.930754 255.03,65.340754 251.55,63.460754 C248.07,61.580754 244.15,60.640754 239.79,60.640754 C235.43,60.640754 231.5,61.580754 228,63.460754 C224.5,65.340754 221.76,67.930754 219.78,71.230754 C217.8,74.530754 216.81,78.240754 216.81,82.360754 C216.81,86.480754 217.8,90.190754 219.78,93.490754 C221.76,96.790754 224.5,99.380754 228,101.260754 C231.5,103.140754 235.43,104.080754 239.79,104.080754 Z M239.79,95.800754 C237.31,95.800754 235.07,95.230754 233.07,94.090754 C231.07,92.950754 229.5,91.360754 228.36,89.320754 C227.22,87.280754 226.65,84.960754 226.65,82.360754 C226.65,79.760754 227.22,77.440754 228.36,75.400754 C229.5,73.360754 231.07,71.770754 233.07,70.630754 C235.07,69.490754 237.31,68.920754 239.79,68.920754 C242.27,68.920754 244.51,69.490754 246.51,70.630754 C248.51,71.770754 250.08,73.360754 251.22,75.400754 C252.36,77.440754 252.93,79.760754 252.93,82.360754 C252.93,84.960754 252.36,87.280754 251.22,89.320754 C250.08,91.360754 248.51,92.950754 246.51,94.090754 C244.51,95.230754 242.27,95.800754 239.79,95.800754 Z M274.95,103.360754 L284.91,88.780754 L295.05,103.360754 L306.27,103.360754 L290.61,81.640754 L305.25,61.360754 L294.75,61.360754 L285.27,74.980754 L275.61,61.360754 L264.57,61.360754 L279.33,82.000754 L263.79,103.360754 L274.95,103.360754 Z" id="FOX" fill="#000000"></path>
            <g id="Group-2">
                <path d="M124.56976,117.863194 C124.56976,115.548783 126.271533,113.438585 133.827404,106.018856 C139.068863,100.845467 141.04292,98.4629855 142.132054,95.7401492 C143.697685,91.7239657 143.425401,91.3155403 140.838707,93.7660929 C138.592367,95.8762911 136.277956,97.0334965 135.461105,96.5570001 C135.120751,96.3527874 133.623191,97.0334965 132.261773,98.1907019 C128.926298,100.777396 127.020313,101.117751 126.748029,99.1436946 C126.611887,98.0545601 127.224526,97.3057801 129.81122,95.944362 C132.942482,94.1745184 135.597247,91.4516821 134.099687,91.4516821 C133.759333,91.4516821 133.418978,91.7239657 133.418978,92.0643203 C133.418978,92.4046748 132.534056,93.3576675 131.376851,94.1745184 L129.402795,95.6040074 L127.905235,94.1064475 C126.475746,92.6769584 126.407675,92.6769584 125.658895,93.9022348 C124.025193,96.6931419 123.140271,100.096687 123.140271,103.29602 C123.208342,106.495353 123.140271,106.563423 121.302357,106.086927 C120.281293,105.814644 119.260229,105.270076 118.987946,104.861651 C117.705816,102.867227 122.850128,95.8582998 126.369582,90.7673787 C127.895215,88.5605364 127.985722,85.3253004 128.994369,85.3253004 C129.743149,85.3253004 131.444922,84.2361659 132.738269,82.9428187 C135.188822,80.4241951 135.256893,80.492266 130.355787,79.4712024 C128.198857,78.9918846 128.039937,78.5673739 126.574413,75.7798394 C126.374912,75.4003733 125.895424,74.7028006 125.658895,74.2297426 C123.208342,69.53285 122.731846,66.8780846 123.957122,61.6366247 C124.773973,58.505363 130.423858,49.1796487 133.487049,45.8441743 C134.440042,44.8911816 135.529176,43.2574798 136.073743,42.1002744 C137.026736,39.8539344 137.979729,29.5071565 137.230949,29.5071565 C136.346027,29.5071565 130.628071,33.7275528 128.585944,35.8377509 C127.224526,37.26724 126.748029,38.2883036 127.020313,39.3774381 C127.837164,42.6448416 121.234286,46.8652379 109.934515,50.3368541 C102.174432,52.7193359 91.2830865,52.9916195 86.7904067,50.9494923 L84.0675704,49.724216 L86.1096976,49.2477196 C88.015683,48.8392942 87.9476121,48.7712233 84.5440667,48.0224433 C82.5700104,47.545947 80.0513869,47.2055924 79.0303233,47.2055924 C74.061147,47.2055924 67.7986236,44.0062598 63.6462982,39.1732254 C55.4097185,29.7794402 51.5296767,26.7843203 47.7857769,26.7843203 C44.041877,26.7843203 45.9478624,25.6951857 51.3935349,24.6741221 L56.5669239,23.7892003 L53.9802294,22.7000658 C52.5507404,22.1554986 48.8749114,20.385655 45.8117205,18.8200241 C37.2347862,14.3954151 33.2186027,13.1701388 26.8199374,13.1701388 C23.3483212,13.1701388 20.3532013,13.5785643 18.7194995,14.2592733 C17.3580813,14.8038406 16.0647341,15.212266 15.9285923,15.0761242 C15.3159541,14.3954151 19.5363504,10.9237989 23.1441084,9.08588439 C31.5849009,4.86548814 38.8004171,3.29985728 48.1942023,3.77635363 C60.9915328,4.4570627 72.7677998,10.1750189 85.088634,21.7470731 C86.3819812,22.9723495 89.1728884,24.8783349 91.2830865,25.9674694 L95.0950574,27.9415257 L98.2263191,25.6951857 C101.766006,23.1084913 102.650928,22.0193568 101.085297,22.0193568 C99.7919499,22.0193568 94.8908446,24.4699094 94.2782065,25.4229021 C93.7336392,26.3078239 92.5764338,26.3078239 92.5764338,25.4229021 C92.5764338,24.2656967 96.0480501,20.5217968 101.357581,15.961046 C102.78707,14.6676988 111.432075,10.1750189 115.720542,8.47324622 L117.422315,7.79253715 L115.51633,7.79253715 C114.427195,7.72446624 112.657351,8.33710441 111.500146,9.1539553 C110.411011,9.97080618 109.321877,10.3792316 109.049593,10.106948 C108.436955,9.49430983 115.039833,3.50407 117.626528,2.27879367 C118.647591,1.80229732 120.009009,1.18965915 120.621648,0.849304617 C121.302357,0.508950081 124.501689,0.236666453 127.701022,0.236666453 C132.602127,0.236666453 134.099687,0.508950081 136.958665,1.93843913 C138.79658,2.89143183 140.770636,4.11670816 141.383274,4.66127542 C142.268196,5.61426812 142.608551,5.54619721 144.78682,4.25284998 C150.572847,0.645091896 163.165965,5.88655175 166.637581,13.3743515 C167.046006,14.3954151 167.862857,16.0291169 168.339353,17.0501805 C169.700772,20.0453004 169.292346,33.7956237 167.658644,38.5605872 C166.909864,40.6707853 166.365297,42.4406289 166.501439,42.4406289 C166.705652,42.4406289 167.386361,41.4195653 168.135141,40.194289 C169.292346,38.2883036 169.496559,38.2202327 169.496559,39.5135799 C169.496559,44.2785434 164.459312,52.8554777 159.694348,56.0548104 C157.58415,57.5523703 157.243796,58.0969376 157.243796,60.5474902 C157.243796,65.2443828 152.751116,70.5539136 145.807883,74.2297426 L142.132054,76.135728 L145.739812,76.6122243 C149.007216,77.0206498 149.755996,76.816437 153.159541,74.8423807 C155.201668,73.6171044 158.605214,71.9834026 160.647341,71.1665517 C163.302106,70.0774172 164.663525,69.0563536 165.208092,67.7630064 C167.182148,63.4064683 175.827153,54.6933922 178.209635,54.6933922 C179.775266,54.6933922 179.775266,54.829534 179.29877,58.505363 L178.822273,62.3854047 L180.79633,61.9089084 C181.885464,61.6366247 185.289009,61.2281993 188.420271,61.0239866 C195.295433,60.5474902 195.635787,61.3643411 190.59854,65.6528083 L187.194995,68.5117864 L188.3522,70.4177718 C189.441335,72.2556863 194.34244,75.0465935 202.034453,78.313997 C204.961502,79.5392733 204.82536,81.3771878 201.694098,83.7596696 C199.379687,85.5295132 198.83512,85.665655 192.232242,85.7337259 C190.883118,85.7337259 189.800031,85.7045714 188.860898,85.7337259 C185.156344,85.84873 183.957462,86.3654643 180.04755,88.3204204 C176.371721,90.1583349 174.942231,91.1793985 174.942231,92.1323912 C174.942231,92.8811711 173.580813,94.446802 171.81097,95.8082202 C168.747779,98.122631 168.747779,98.1907019 170.381481,98.5991273 C171.334473,98.871411 172.287466,99.5521201 172.491679,100.096687 C173.104317,101.526176 167.114077,108.401338 164.255099,109.558543 C161.32805,110.78382 158.673285,110.78382 158.196788,109.490473 C157.652221,108.197125 159.08171,106.427282 160.57927,106.427282 C161.191908,106.427282 162.893681,105.610431 164.391241,104.589367 L167.114077,102.683382 L161.872617,102.274956 C158.060647,101.934602 156.154661,101.458105 154.793243,100.368971 C152.887258,98.871411 151.389698,98.5310564 150.981272,99.4840491 C150.708989,100.164758 143.153118,104.385154 142.200125,104.385154 C141.7917,104.385154 141.110991,104.79358 140.566423,105.270076 C140.089927,105.678502 138.79658,106.767636 137.707445,107.584487 C131.989489,112.009096 129.334724,115.2765 129.334724,117.931265 C129.334724,119.08847 128.926298,119.360754 126.952242,119.360754 C124.910115,119.360754 124.56976,119.156541 124.56976,117.863194 Z M77.9411887,30.1878656 C74.4015016,27.8053839 70.5895308,26.239753 66.7094891,25.7632567 C64.6673618,25.490973 63.101731,25.4229021 63.3059437,25.6271148 C63.78244,26.1716821 74.2653597,30.3240074 76.5797706,30.8685747 C79.915245,31.7534965 80.1194578,31.6173547 77.9411887,30.1878656 Z M157.856434,10.6515153 C155.746236,7.92867897 154.248676,7.04375717 151.866194,7.04375717 L149.415641,7.11182808 L152.955328,8.74552985 C154.861314,9.63045165 156.631157,10.7195862 156.903441,11.0599407 C157.107654,11.4683661 157.652221,11.8087207 158.060647,11.8087207 C158.469072,11.8087207 158.401001,11.3322243 157.856434,10.6515153 Z" id="Shape" fill="#6C2722"></path>
                <path d="M139.273076,103.636374 C139.54536,103.091807 139.205005,103.023736 138.183942,103.364091 C136.754453,103.840587 136.754453,103.636374 138.728509,101.253893 C140.906778,98.5310564 143.969969,92.1323912 143.085047,92.1323912 C142.812763,92.1323912 141.7917,92.8811711 140.838707,93.7660929 C138.592367,95.8762911 136.277956,97.0334965 135.461105,96.5570001 C135.05268,96.3527874 134.780396,95.0594402 134.780396,93.7660929 C134.780396,92.4727457 134.508113,91.4516821 134.099687,91.4516821 C133.759333,91.4516821 133.418978,91.7239657 133.418978,92.0643203 C133.418978,92.4046748 132.534056,93.3576675 131.376851,94.1745184 L129.402795,95.6040074 L127.973306,94.1745184 C126.452927,92.6541403 126.475834,89.3760812 127.231735,87.2621155 C127.626512,86.1580756 128.03885,85.3253004 128.926298,85.3253004 C129.743149,85.3253004 131.444922,84.2361659 132.738269,82.9428187 C135.188822,80.4241951 135.256893,80.492266 130.355787,79.4712024 C128.233792,78.999648 128.081303,78.5528583 126.66561,75.8850915 C126.446412,75.4720295 125.946102,74.9001205 125.68143,74.3707775 C123.230877,69.6738849 122.731846,66.8780846 123.957122,61.6366247 C124.773973,58.505363 130.423858,49.1796487 133.487049,45.8441743 C134.440042,44.8911816 135.529176,43.2574798 136.073743,42.1002744 C137.026736,39.8539344 137.979729,29.5071565 137.230949,29.5071565 C136.346027,29.5071565 130.628071,33.7275528 128.585944,35.8377509 C127.224526,37.26724 126.748029,38.2883036 127.020313,39.3774381 C127.837164,42.6448416 121.234286,46.8652379 109.934515,50.3368541 C102.174432,52.7193359 91.2830865,52.9916195 86.7904067,50.9494923 L84.0675704,49.724216 L86.1096976,49.2477196 C88.015683,48.8392942 87.9476121,48.7712233 84.5440667,48.0224433 C82.5700104,47.545947 80.1194578,47.2055924 79.0983942,47.2055924 C78.0773306,47.2055924 75.2864234,46.5248833 72.8358707,45.7080325 C69.1600417,44.4146852 67.7305527,43.3936216 64.3270073,39.7858635 C53.7079458,28.4860929 51.5977477,26.7843203 47.7857769,26.7843203 C44.041877,26.7843203 45.9478624,25.6951857 51.3935349,24.6741221 L56.5669239,23.7892003 L53.9802294,22.7000658 C52.5507404,22.1554986 48.8749114,20.385655 45.8117205,18.8200241 C37.1667153,14.3273442 33.2186027,13.1701388 26.7518665,13.1701388 C23.2121794,13.1701388 20.1489885,13.5785643 18.5833577,14.1912024 C15.2478832,15.6206915 15.1117414,15.4845497 17.4261522,13.1020679 C19.5363504,10.855728 25.3223775,7.65639534 30.087341,6.09076447 C42.7485297,1.87036823 57.5879875,3.29985728 69.4323253,9.97080618 C73.312367,12.0810043 80.9363087,17.8670314 85.088634,21.7470731 C86.3819812,22.9723495 89.1728884,24.8783349 91.2830865,25.9674694 L95.0950574,27.9415257 L98.2263191,25.6951857 C99.9280918,24.4699094 101.493723,23.1084913 101.766006,22.7681367 C102.855141,20.9302222 97.1371846,22.9042785 94.4143483,25.2867603 C92.5083629,26.9204621 92.3041502,25.6951857 94.0059228,23.2446331 C95.4354119,21.2705768 96.5245464,20.1814423 101.629864,15.7568333 C102.855141,14.6676988 111.77243,10.106948 115.720542,8.47324622 L117.422315,7.79253715 L115.51633,7.79253715 C114.427195,7.72446624 112.657351,8.33710441 111.500146,9.1539553 C110.411011,9.97080618 109.321877,10.3792316 109.049593,10.106948 C108.436955,9.49430983 115.039833,3.50407 117.626528,2.27879367 C118.647591,1.80229732 120.009009,1.18965915 120.621648,0.849304617 C121.302357,0.508950081 124.501689,0.236666453 127.701022,0.236666453 C132.602127,0.236666453 134.099687,0.508950081 136.958665,1.93843913 C138.79658,2.89143183 140.770636,4.11670816 141.383274,4.66127542 C142.268196,5.61426812 142.608551,5.54619721 144.78682,4.25284998 C150.572847,0.645091896 163.165965,5.88655175 166.637581,13.3743515 C167.046006,14.3954151 167.862857,16.0291169 168.339353,17.0501805 C169.700772,20.0453004 169.292346,33.7956237 167.658644,38.5605872 C166.909864,40.6707853 166.365297,42.4406289 166.501439,42.4406289 C166.705652,42.4406289 167.386361,41.4195653 168.135141,40.2623599 C169.292346,38.2883036 169.496559,38.2202327 169.496559,39.5135799 C169.496559,44.2785434 164.459312,52.8554777 159.694348,56.0548104 C157.58415,57.5523703 157.243796,58.0969376 157.243796,60.5474902 C157.243796,65.2443828 153.363754,69.8732045 145.807883,74.1616717 L142.063983,76.2718698 L145.739812,76.6122243 C149.007216,76.9525789 149.824067,76.7483661 153.159541,74.8423807 C155.201668,73.6171044 158.605214,71.9834026 160.647341,71.1665517 C163.302106,70.0774172 164.663525,69.0563536 165.208092,67.7630064 C165.684588,66.7419428 167.31829,64.4956028 168.883921,62.6576884 C171.130261,60.0709939 171.879041,59.5944975 172.695892,60.2071357 C173.172388,60.683632 173.716955,60.8878448 173.785026,60.7517029 C175.691011,57.9607958 177.869281,55.3741013 178.345777,55.3741013 C178.61806,55.3741013 178.890344,56.8035903 178.822273,58.6415048 C178.686131,61.6366247 178.822273,61.8408375 180.387904,61.7727666 C181.340897,61.7727666 183.246882,61.5004829 184.6083,61.2281993 C186.922711,60.7517029 187.058853,60.8197739 186.718498,62.1131211 C186.310073,63.8148938 187.399208,63.9510356 189.917831,62.5215465 C193.253306,60.6155611 193.389447,61.5685538 190.326257,65.0401701 C187.263066,68.5117864 187.263066,68.5798573 188.420271,70.4858427 C189.169051,71.7791899 191.551533,73.4128917 196.044213,75.5230898 C199.5839,77.2929334 202.417269,78.3183601 202.008843,78.4545019 C201.464276,78.6587147 200.809176,80.4241951 200.809176,81.9217551 C200.809176,83.3512441 200.120772,84.5287081 199.712346,84.8690627 C199.23585,85.1413463 195.976142,85.665655 192.164171,85.7337259 C190.884154,85.7337259 189.806139,85.707624 188.901473,85.7337259 C185.139484,85.842269 183.998539,86.3449254 180.04755,88.3204204 C176.371721,90.1583349 174.942231,91.1793985 174.942231,92.1323912 C174.942231,92.8811711 173.580813,94.446802 171.81097,95.8762911 C170.041126,97.1696383 168.883921,98.2587728 169.156204,98.2587728 C169.428488,98.2587728 168.951992,98.871411 168.06707,99.6882619 C167.182148,100.505113 166.501439,101.458105 166.637581,101.79846 C166.773723,102.274956 165.07195,102.411098 161.804546,102.206885 C157.924505,101.934602 156.222732,101.526176 154.861314,100.437042 C152.887258,98.871411 151.389698,98.5310564 150.981272,99.4840491 C150.504776,100.641255 142.812763,104.385154 140.838707,104.385154 C139.477289,104.385154 138.932722,104.112871 139.273076,103.636374 Z M182.430031,77.1567916 C182.430031,75.5230898 180.251762,75.3188771 178.754202,76.884508 C177.256642,78.3820679 177.324713,78.5182097 180.04755,78.5182097 C181.953535,78.5182097 182.430031,78.2459261 182.430031,77.1567916 Z M77.3966215,29.7794402 C75.9671324,28.8264475 73.7888634,27.6692421 72.631658,27.1246748 C70.385318,26.239753 62.6933055,24.9464058 63.3059437,25.6271148 C63.78244,26.1716821 74.2653597,30.3240074 76.5797706,30.8685747 C79.983316,31.7534965 80.0513869,31.6173547 77.3966215,29.7794402 Z M157.856434,10.6515153 C155.746236,7.92867897 154.248676,7.04375717 151.866194,7.04375717 L149.415641,7.11182808 L152.955328,8.74552985 C154.861314,9.63045165 156.631157,10.7195862 156.903441,11.0599407 C157.107654,11.4683661 157.652221,11.8087207 158.060647,11.8087207 C158.469072,11.8087207 158.401001,11.3322243 157.856434,10.6515153 Z" id="Shape" fill="#C11D02"></path>
                <path d="M139.273076,103.636374 C139.54536,103.091807 139.205005,103.023736 138.183942,103.364091 C136.754453,103.840587 136.754453,103.636374 138.728509,101.253893 C141.04292,98.3268437 143.901898,92.1323912 142.948905,92.1323912 C142.608551,92.1323912 141.587487,92.8811711 140.702565,93.7660929 C138.660438,95.8082202 136.277956,97.1015674 135.461105,96.5570001 C135.05268,96.3527874 134.780396,95.0594402 134.780396,93.7660929 C134.780396,92.4727457 134.508113,91.4516821 134.099687,91.4516821 C133.759333,91.4516821 133.418978,91.7239657 133.418978,92.0643203 C133.418978,92.4046748 132.534056,93.3576675 131.376851,94.1745184 L129.402795,95.6040074 L127.973306,94.1745184 C126.458328,92.6595409 126.485487,89.3772246 127.231735,87.2621155 C127.625521,86.1460008 128.032814,85.3253004 128.926298,85.3253004 C129.743149,85.3253004 131.444922,84.2361659 132.738269,82.9428187 C135.188822,80.4241951 135.256893,80.492266 130.355787,79.4712024 C128.21126,78.9946407 128.022007,78.5244286 126.574413,75.7798394 C126.367841,75.3881853 125.89508,74.7539173 125.64856,74.260877 C123.198007,69.5639844 122.731846,66.8780846 123.957122,61.6366247 C124.773973,58.505363 130.423858,49.1796487 133.487049,45.8441743 C134.440042,44.8911816 135.529176,43.2574798 136.073743,42.1002744 C137.026736,39.8539344 137.979729,29.5071565 137.230949,29.5071565 C136.346027,29.5071565 130.628071,33.7275528 128.585944,35.8377509 C127.224526,37.26724 126.748029,38.2883036 127.020313,39.3774381 C127.837164,42.6448416 121.234286,46.8652379 109.934515,50.3368541 C102.174432,52.7193359 91.2830865,52.9916195 86.7904067,50.9494923 L84.0675704,49.724216 L86.1096976,49.2477196 C88.015683,48.8392942 87.9476121,48.7712233 84.5440667,48.0224433 C82.5700104,47.545947 80.1194578,47.2055924 79.0983942,47.2055924 C78.0773306,47.2055924 75.2864234,46.5248833 72.8358707,45.7080325 C69.1600417,44.4146852 67.7305527,43.3936216 64.3270073,39.7858635 C53.7079458,28.4860929 51.5977477,26.7843203 47.7857769,26.7843203 C44.041877,26.7843203 45.9478624,25.6951857 51.3935349,24.6741221 L56.5669239,23.7892003 L53.9802294,22.7000658 C52.5507404,22.1554986 48.8749114,20.385655 45.8117205,18.8200241 C37.1667153,14.3273442 33.2186027,13.1701388 26.7518665,13.1701388 C23.2121794,13.1701388 20.1489885,13.5785643 18.5833577,14.1912024 C15.2478832,15.6206915 15.1117414,15.4845497 17.4261522,13.1020679 C19.5363504,10.855728 25.3223775,7.65639534 30.087341,6.09076447 C42.7485297,1.87036823 57.5879875,3.29985728 69.4323253,9.97080618 C73.312367,12.0810043 80.9363087,17.8670314 85.088634,21.7470731 C86.3819812,22.9723495 89.1728884,24.8783349 91.2830865,25.9674694 L95.0950574,27.9415257 L98.2263191,25.6951857 C99.9280918,24.4699094 101.493723,23.1084913 101.766006,22.7681367 C102.855141,20.9302222 97.1371846,22.9042785 94.4143483,25.2867603 C92.5083629,26.9204621 92.3041502,25.6951857 94.0059228,23.2446331 C95.4354119,21.2705768 96.5245464,20.1814423 101.629864,15.7568333 C102.855141,14.6676988 111.77243,10.106948 115.720542,8.47324622 L117.422315,7.79253715 L115.51633,7.79253715 C114.427195,7.72446624 112.657351,8.33710441 111.500146,9.1539553 C110.411011,9.97080618 109.321877,10.3792316 109.049593,10.106948 C108.436955,9.49430983 115.039833,3.50407 117.626528,2.27879367 C118.647591,1.80229732 120.009009,1.18965915 120.621648,0.849304617 C121.302357,0.508950081 124.501689,0.236666453 127.701022,0.236666453 C132.602127,0.236666453 134.099687,0.508950081 136.958665,1.93843913 C138.79658,2.89143183 140.770636,4.11670816 141.383274,4.66127542 C142.268196,5.61426812 142.608551,5.54619721 144.78682,4.25284998 C150.572847,0.645091896 163.165965,5.88655175 166.637581,13.3743515 C167.046006,14.3954151 167.862857,16.0291169 168.339353,17.0501805 C169.700772,20.0453004 169.292346,33.7956237 167.658644,38.5605872 C166.909864,40.6707853 166.365297,42.4406289 166.501439,42.4406289 C166.705652,42.4406289 167.386361,41.4195653 168.135141,40.2623599 C169.292346,38.2883036 169.496559,38.2202327 169.496559,39.5135799 C169.496559,44.2785434 164.459312,52.8554777 159.694348,56.0548104 C157.58415,57.5523703 157.243796,58.0969376 157.243796,60.5474902 C157.243796,65.2443828 153.363754,69.8732045 145.807883,74.1616717 L142.063983,76.2718698 L145.739812,76.6122243 C149.007216,76.9525789 149.824067,76.7483661 153.159541,74.8423807 C155.201668,73.6171044 158.605214,71.9834026 160.647341,71.1665517 C163.302106,70.0774172 164.663525,69.0563536 165.208092,67.7630064 C165.684588,66.7419428 167.31829,64.4956028 168.883921,62.6576884 C171.130261,60.0709939 171.879041,59.5944975 172.695892,60.2071357 C173.172388,60.683632 173.716955,60.8878448 173.785026,60.7517029 C175.691011,57.9607958 177.869281,55.3741013 178.345777,55.3741013 C178.61806,55.3741013 178.890344,56.8035903 178.822273,58.6415048 C178.686131,61.6366247 178.822273,61.8408375 180.387904,61.7727666 C181.340897,61.7727666 183.11074,61.5004829 184.336017,61.2281993 C186.242002,60.7517029 186.514286,60.8878448 186.514286,62.1131211 C186.514286,63.7468229 187.535349,63.8829647 189.917831,62.5215465 C193.253306,60.6155611 193.389447,61.5685538 190.326257,65.0401701 C187.263066,68.5117864 187.263066,68.5798573 188.420271,70.4858427 C189.169051,71.7791899 191.415391,73.3448208 195.567716,75.2508062 C200.128467,77.4290752 201.421814,78.3820679 201.08146,79.1989188 C200.809176,79.7434861 200.673034,81.1729751 200.741105,82.3982514 C200.809176,83.5554569 200.161577,84.6133436 199.685081,84.9536981 C199.208584,85.2259818 195.976142,85.665655 192.164171,85.7337259 C190.855957,85.7337259 189.778764,85.7060961 188.860898,85.7337259 C185.146066,85.8455503 183.977609,86.3553905 180.04755,88.3204204 C176.371721,90.1583349 174.942231,91.1793985 174.942231,92.1323912 C174.942231,92.8811711 173.580813,94.446802 171.81097,95.8762911 C170.041126,97.1696383 168.883921,98.3268437 169.224275,98.3268437 C169.904984,98.3949146 165.616517,99.4159782 161.804546,100.028616 C159.966632,100.368971 159.353994,100.777396 159.558206,101.458105 C160.034703,102.683382 156.767299,101.866531 154.58903,100.164758 C152.887258,98.871411 151.389698,98.5991273 150.981272,99.4840491 C150.504776,100.641255 142.812763,104.385154 140.838707,104.385154 C139.477289,104.385154 138.932722,104.112871 139.273076,103.636374 Z M160.57927,96.0124329 C162.212972,95.1275111 163.914745,93.9022348 164.32317,93.1534548 C164.731595,92.4727457 165.616517,91.2474694 166.297226,90.4986894 C167.794786,88.7288458 167.794786,88.5246331 165.82073,87.6397113 C164.391241,86.9590022 163.982815,87.2312858 161.259979,90.7029021 C157.856434,94.9913693 156.290803,97.5780637 157.039583,97.5780637 C157.311867,97.5780637 158.945568,96.8292838 160.57927,96.0124329 Z M183.11074,78.1097843 C183.11074,77.1567916 181.61318,75.1146644 180.932471,75.1146644 C179.979479,75.1146644 177.665068,77.1567916 177.665068,77.9736425 C177.665068,78.2459261 178.890344,78.5182097 180.387904,78.5182097 C181.885464,78.5182097 183.11074,78.313997 183.11074,78.1097843 Z M77.3966215,29.7794402 C75.9671324,28.8264475 73.7888634,27.6692421 72.631658,27.1246748 C70.385318,26.239753 62.6933055,24.9464058 63.3059437,25.6271148 C63.78244,26.1716821 74.2653597,30.3240074 76.5797706,30.8685747 C79.983316,31.7534965 80.0513869,31.6173547 77.3966215,29.7794402 Z M136.958665,26.1036112 C136.686382,22.7681367 134.780396,17.9351023 133.691262,17.9351023 C132.193702,17.9351023 130.696142,18.7519532 130.696142,19.5688041 C130.696142,19.9772295 131.649135,22.2235695 132.874411,24.6060512 C135.393034,29.4390856 137.29902,30.1197947 136.958665,26.1036112 Z M132.329844,16.6417551 C133.078624,16.3694715 133.350907,15.961046 133.010553,15.6887624 C132.05756,15.1441951 129.334724,15.8929751 129.334724,16.6417551 C129.334724,17.3905351 130.491929,17.3905351 132.329844,16.6417551 Z M157.856434,10.6515153 C155.746236,7.92867897 154.248676,7.04375717 151.866194,7.04375717 L149.415641,7.11182808 L152.955328,8.74552985 C154.861314,9.63045165 156.631157,10.7195862 156.903441,11.0599407 C157.107654,11.4683661 157.652221,11.8087207 158.060647,11.8087207 C158.469072,11.8087207 158.401001,11.3322243 157.856434,10.6515153 Z" id="Shape" fill="#DF3C0B"></path>
                <path d="M162.553326,101.866531 C163.370177,101.730389 164.731595,101.730389 165.616517,101.866531 C166.433368,102.002673 165.752659,102.138815 164.050886,102.138815 C162.349114,102.138815 161.668405,102.002673 162.553326,101.866531 Z" id="Path" fill="#DF3C0B"></path>
                <g id="Group" transform="translate(0.000000, 15.873642)">
                    <path d="M9.18957247,9.7534727 C4.90110532,8.80048 6.75015599e-14,4.9885092 6.75015599e-14,2.67409835 C6.75015599e-14,1.51689293 0.136141814,1.51689293 2.31441084,2.81024017 C5.85409802,4.85236738 9.18957247,4.71622557 14.2948905,2.197602 C19.2640667,-0.252950658 22.735683,-0.593305194 26.2753702,1.10846749 C28.7259228,2.26567291 29.338561,3.42287833 27.5006465,3.42287833 C26.8880083,3.42287833 25.0500938,4.78429647 23.4163921,6.41799825 C21.7146194,8.11977093 19.4682795,9.54925998 18.311074,9.82154361 C15.9966632,10.29804 11.3678415,10.2299691 9.18957247,9.7534727 Z" id="Path" fill="#DF3C0B"></path>
                    <path d="M9.18957247,9.7534727 C5.30953076,8.93662181 -6.03961325e-14,4.78429647 -6.03961325e-14,2.60602744 C-6.03961325e-14,1.51689293 0.136141814,1.51689293 2.31441084,2.81024017 C5.85409802,4.85236738 9.18957247,4.71622557 14.2948905,2.197602 C19.2640667,-0.252950658 22.735683,-0.593305194 26.2753702,1.10846749 C28.7939937,2.33374382 29.338561,3.42287833 27.2964338,3.42287833 C26.6157247,3.42287833 25.3223775,4.37587103 24.3693848,5.46500555 C21.0339103,9.48118907 15.2478832,11.1148908 9.18957247,9.7534727 Z" id="Path" fill="#EF692A"></path>
                    <path d="M9.18957247,9.7534727 C5.30953076,8.93662181 8.70414851e-14,4.78429647 8.70414851e-14,2.60602744 C8.70414851e-14,1.51689293 0.204212722,1.51689293 2.45055266,2.87831107 C5.99023983,4.9885092 9.73413973,4.71622557 14.635245,2.06146019 C18.1068613,0.223545693 19.5472981,-0.154479641 22.610489,0.0497330801 C24.7206871,0.253945802 26.411512,0.972325672 27.0922211,1.58496384 C28.1132847,2.67409835 26.7190192,2.60602744 24.561104,2.3668206 C22.4031889,2.12761375 19.3621229,1.58496384 18.8991621,2.87831107 C18.4362014,4.17165831 21.2000373,4.17165831 21.6497468,5.63315536 C22.0994563,7.09465241 21.2000373,8.69636764 19.3621229,9.44514762 C17.3880665,10.3300694 11.9804797,10.3661109 9.18957247,9.7534727 Z" id="Path" fill="#F9A040"></path>
                </g>
                <path d="M139.54536,103.29602 C139.54536,102.751453 139.136934,102.54724 138.388154,102.819524 C137.571303,103.159878 137.707445,102.615311 139.000792,100.913538 C141.179062,98.122631 143.833827,92.1323912 142.948905,92.1323912 C142.608551,92.1323912 141.587487,92.8131002 140.702565,93.698022 C138.524296,95.7401492 136.209885,97.0334965 135.461105,96.5570001 C135.05268,96.2847165 134.780396,95.0594402 134.780396,93.7660929 C134.780396,92.4727457 134.644254,91.4516821 134.508113,91.4516821 C134.371971,91.4516821 133.282836,92.3366039 132.05756,93.4938093 C130.355787,95.0594402 129.607007,95.3997947 128.654015,94.8552275 C126.952242,93.9022348 126.407675,91.8601075 126.952242,88.3204204 C127.292596,85.8017968 127.632951,85.3253004 128.926298,85.3253004 C129.743149,85.3253004 131.444922,84.3042368 132.738269,82.9428187 C135.188822,80.4241951 135.256893,80.492266 130.355787,79.4712024 C128.22381,78.9974297 128.189347,78.3182031 126.759628,75.6165934 C126.545989,75.2128992 125.915525,74.6749323 125.658895,74.1616717 C123.140271,69.2605663 122.663775,66.4015882 124.229406,61.0239866 C125.250469,57.5523703 130.491929,49.0435069 133.55512,45.8441743 C136.482169,42.7809834 137.162878,39.9900763 137.162878,31.2089292 C137.162878,23.7211294 137.026736,22.7681367 135.324964,19.2965205 C133.282836,15.212266 128.109447,10.4473025 125.658895,10.4473025 C122.459562,10.4473025 122.32342,11.4002952 124.842044,15.5526206 L127.224526,19.5007332 L125.522753,21.4747895 C123.480626,23.9934131 123.480626,24.742193 125.590824,27.8734548 C126.543816,29.2348729 127.088384,30.5962911 126.884171,30.9366456 C126.339604,31.8896383 129.538936,31.6854256 132.738269,30.5282202 C134.371971,29.9836529 135.80146,29.5752275 135.869531,29.7113693 C136.209885,30.0517238 128.041376,35.76968 124.56976,37.6075945 C122.867987,38.4925163 121.438498,39.2412963 121.370428,39.3093672 C121.302357,39.3774381 121.710782,40.3985017 122.32342,41.623778 C123.208342,43.5297634 123.548697,43.6659052 124.501689,42.9851962 C125.454682,42.1683453 125.522753,42.2364162 124.637831,43.3255507 C123.208342,45.1634652 117.83074,47.6820888 110.342941,50.1326414 C104.761126,51.902485 102.78707,52.2428395 96.6606882,52.2428395 C91.2150156,52.1747686 88.9006048,51.902485 86.7904067,50.9494923 L84.0675704,49.724216 L86.1096976,49.2477196 C88.015683,48.8392942 87.9476121,48.7712233 84.5440667,48.0224433 C82.5700104,47.545947 80.1194578,47.2055924 79.0983942,47.2055924 C78.0773306,47.2055924 75.2864234,46.5248833 72.9039416,45.7080325 C69.3642544,44.4827561 67.7986236,43.3936216 64.7354327,40.0581472 C54.3205839,28.9625893 51.5296767,26.7843203 47.7857769,26.7843203 C44.041877,26.7843203 45.9478624,25.6951857 51.3935349,24.6741221 L56.498853,23.7892003 L53.2314494,22.2916404 C51.4616058,21.4067186 49.6917623,20.7260095 49.2833368,20.7260095 C48.9429823,20.6579386 47.1731387,19.7730168 45.471366,18.6838823 C39.617268,14.9399824 33.3547445,13.1701388 26.3434411,13.1701388 C22.1911157,13.2382097 19.5363504,13.5785643 18.3791449,14.1912024 C15.6563087,15.7568333 15.2478832,15.3484078 17.4261522,13.1020679 C22.1911157,8.06482078 35.4649426,3.64021181 45.7436496,3.64021181 C55.4777894,3.70828272 65.3480709,6.90761536 73.8569343,12.6936425 C75.0141397,13.5104934 76.0352033,14.3273442 76.2394161,14.531557 C76.4436288,14.7357697 77.8050469,15.7568333 79.234536,16.8459678 C80.7320959,17.9351023 83.3868613,20.1814423 85.2247758,21.815144 C87.0626903,23.4488458 89.9897393,25.490973 91.7595829,26.3758948 L95.0269864,28.0095966 L97.9540355,25.9674694 C99.5877372,24.8783349 101.357581,23.5169167 101.902148,22.9723495 C103.671992,21.2025059 100.064234,21.8832149 96.1841919,23.9934131 C94.2101356,25.0825476 92.5764338,25.7632567 92.5764338,25.4229021 C92.5764338,25.1506185 94.0059228,23.2446331 95.8438373,21.2705768 C99.723879,16.9821096 107.552033,11.7406498 113.26999,9.63045165 C116.809677,8.2690335 117.150031,8.06482078 115.51633,7.86060806 C114.427195,7.72446624 112.861564,8.20096259 111.568217,9.08588439 C108.096601,11.604508 108.368884,9.83466437 111.976642,6.56726082 C117.286173,1.73422641 121.030073,0.236666453 127.837164,0.236666453 C132.602127,0.236666453 134.167758,0.508950081 136.958665,1.93843913 C138.79658,2.89143183 140.770636,4.11670816 141.315203,4.66127542 C142.268196,5.61426812 142.676621,5.54619721 144.991032,4.25284998 C148.190365,2.41493548 152.614974,2.68721911 157.448008,5.00162996 C161.055766,6.70340264 165.276163,10.5834443 166.501439,13.2382097 C166.909864,14.1231315 167.726715,15.7568333 168.203212,16.8459678 C169.700772,20.0453004 169.360417,33.591411 167.658644,38.5605872 C166.909864,40.6707853 166.365297,42.4406289 166.501439,42.4406289 C166.705652,42.4406289 167.386361,41.4195653 168.135141,40.2623599 C169.292346,38.2883036 169.496559,38.2202327 169.496559,39.5135799 C169.496559,44.2785434 164.459312,52.8554777 159.694348,56.0548104 C157.58415,57.5523703 157.243796,58.0969376 157.243796,60.5474902 C157.243796,65.2443828 153.363754,69.8732045 145.807883,74.1616717 L142.063983,76.3399407 L145.399458,76.6122243 C148.394578,76.884508 149.551783,76.5441534 156.699228,73.1406081 C161.32805,70.8942681 164.867737,68.78407 165.276163,67.9672191 C165.616517,67.2184391 167.250219,64.9720992 168.81585,62.929972 C171.334473,59.7306393 171.81097,59.3902848 172.55975,60.3432775 C173.240459,61.2962702 173.648884,61.0920575 175.486799,58.4372921 C176.644004,56.7355194 177.937351,55.3741013 178.277706,55.3741013 C178.61806,55.3741013 178.890344,56.8035903 178.822273,58.6415048 C178.686131,61.6366247 178.822273,61.8408375 180.387904,61.7727666 C181.340897,61.7727666 183.11074,61.5004829 184.336017,61.2281993 C186.242002,60.7517029 186.514286,60.8878448 186.514286,62.1131211 C186.514286,63.7468229 187.535349,63.8829647 189.917831,62.5215465 C193.253306,60.6155611 193.389447,61.5685538 190.326257,65.0401701 C188.624484,67.0142264 187.194995,68.78407 187.194995,68.9882827 C187.194995,70.3497009 191.891887,73.8213171 196.316496,75.7953734 C199.175474,77.0206498 201.673902,78.0345463 201.673902,78.30683 C201.673902,79.9405318 199.515829,80.492266 195.976142,79.5392733 C194.002086,78.9266352 191.143107,78.3820679 189.781689,78.2459261 C187.943775,78.0417134 186.582357,77.2929334 184.948655,75.5230898 C183.655308,74.1616717 182.089677,73.0725372 181.477039,73.0725372 C180.79633,73.0725372 180.524046,72.8002535 180.728259,72.3918281 C181.477039,71.1665517 176.575933,71.6430481 172.55975,73.208679 C169.632701,74.2978135 168.611637,74.5020262 168.203212,73.8213171 C167.794786,73.208679 167.31829,73.4809626 166.56951,74.7062389 C165.208092,76.6802952 165.752659,77.2248625 169.360417,77.4290752 C170.926048,77.4971461 172.968175,78.3820679 174.874161,79.7434861 C178.277706,82.2621096 182.021606,82.6024642 185.084797,80.8326206 C186.786569,79.811557 187.671491,79.811557 193.729802,80.6284078 C200.196538,81.5133296 200.468822,81.6494715 200.468822,83.2831732 C200.468822,84.6445914 199.992325,85.0530168 197.745985,85.5295132 C196.248425,85.8698677 193.049093,85.9379386 190.734682,85.665655 C186.650428,85.3253004 186.037789,85.4614423 180.660188,88.0481367 C176.507862,90.090264 174.942231,91.1793985 174.942231,92.0643203 C174.942231,95.3317238 163.778603,100.777396 158.469072,100.096687 C157.107654,99.8924746 155.882377,100.028616 155.746236,100.368971 C155.610094,100.641255 154.793243,100.3009 153.84025,99.620191 C152.206548,98.3949146 152.206548,98.2587728 153.363754,97.1015674 C154.044463,96.4208583 154.520959,96.2166456 154.520959,96.7612129 C154.520959,97.9864892 157.652221,97.7142056 160.715412,96.2166456 C163.029823,94.9913693 167.454432,90.090264 167.454432,88.7288458 C167.454432,88.4565622 166.56951,87.843924 165.548446,87.4354986 C164.459312,86.9590022 163.097894,85.665655 162.349114,84.5084496 C161.123837,82.3982514 161.123837,82.3982514 162.553326,82.738606 C163.914745,83.1470314 163.914745,83.0108896 162.212972,80.7645497 C160.57927,78.6543515 160.306986,78.5182097 159.898561,79.6073442 C159.626277,80.3561242 159.694348,81.1729751 160.034703,81.5814006 C161.191908,82.8066769 160.647341,85.8017968 158.741356,88.4565622 C156.83537,91.0432567 154.997456,92.7450293 147.78194,98.8033401 C145.875954,100.437042 144.446465,102.002673 144.650678,102.343027 C145.127174,103.159878 143.765756,103.908658 141.451345,104.0448 C140.29414,104.112871 139.54536,103.840587 139.54536,103.29602 Z M152.070407,64.6998156 C153.159541,63.8829647 153.159541,63.7468229 152.206548,62.929972 C151.321627,62.181192 150.84513,62.181192 149.415641,63.1341847 C148.462649,63.7468229 147.713869,64.5636738 147.713869,64.9040283 C147.713869,65.857021 150.640918,65.7208792 152.070407,64.6998156 Z M182.702315,64.5636738 C183.11074,63.4745392 182.021606,63.2022556 180.11562,63.9510356 C178.481919,64.5636738 178.822273,65.5847374 180.660188,65.5847374 C181.545109,65.5847374 182.430031,65.108241 182.702315,64.5636738 Z M82.910365,37.5395236 C83.9314286,36.51846 82.910365,34.5444037 79.7110323,31.6854256 C76.307487,28.6222348 71.134098,26.3078239 66.7094891,25.8313276 C63.4420855,25.490973 63.1698019,25.5590439 64.6673618,26.239753 C68.4793326,28.0776675 73.312367,30.0517238 75.8990615,30.8685747 C79.7110323,32.093851 79.7791032,32.093851 78.6218978,34.2721201 C76.988196,37.4033818 77.2604797,38.3563745 79.8471741,38.3563745 C81.0724505,38.3563745 82.4338686,38.0160199 82.910365,37.5395236 Z M112.861564,25.2186894 C113.950699,23.9934131 113.950699,23.8572712 112.657351,22.9723495 C111.976642,22.4277822 110.002586,22.0193568 108.368884,22.0193568 C105.169552,22.0193568 105.101481,22.0874277 107.007466,26.9204621 C107.688175,28.8264475 107.688175,28.8264475 109.730302,27.6011711 C110.819437,26.988533 112.248926,25.8993985 112.861564,25.2186894 Z M157.856434,10.6515153 C155.814307,8.13289169 153.431825,5.81848084 152.002336,5.06970086 C150.164421,4.11670816 150.028279,4.4570627 151.525839,5.95462266 C152.478832,6.97568626 152.410761,7.04375717 150.981272,7.04375717 C149.824067,7.04375717 150.300563,7.52025352 152.819187,8.74552985 C154.657101,9.69852255 156.495016,10.7876571 156.83537,11.1280116 C157.992576,12.285217 158.809426,11.8767916 157.856434,10.6515153 Z M50.0321168,10.2430898 C48.2622732,9.01781348 44.4503024,7.72446624 42.6804588,7.72446624 C41.3871116,7.72446624 41.3871116,7.79253715 42.4762461,9.01781348 C43.7695933,10.4473025 45.1990824,10.855728 49.0110532,11.0599407 C51.1893222,11.1280116 51.2573931,11.0599407 50.0321168,10.2430898 Z" id="Shape" fill="#EF692A"></path>
                <path d="M147.03316,101.321964 C147.986152,100.777396 149.075287,100.368971 149.415641,100.368971 C149.824067,100.368971 149.34757,100.777396 148.394578,101.321964 C147.441585,101.866531 146.420521,102.274956 146.012096,102.274956 C145.671741,102.274956 146.080167,101.866531 147.03316,101.321964 Z" id="Path" fill="#EF692A"></path>
                <path d="M153.363754,99.2117655 C152.206548,98.3949146 152.206548,98.2587728 153.363754,97.1015674 C154.044463,96.4208583 154.520959,96.2166456 154.520959,96.7612129 C154.520959,99.4840491 164.050886,95.5359365 165.616517,92.1323912 C165.888801,91.5878239 166.56951,90.4306185 167.182148,89.6137676 C168.203212,88.2523495 168.203212,88.0481367 167.250219,88.0481367 C166.637581,88.0481367 165.276163,87.2312858 164.118957,86.2782931 C161.804546,84.3723077 161.259979,82.3301805 163.165965,83.0789605 C164.32317,83.5554569 164.32317,83.487386 163.234035,81.8536842 C162.212972,80.2199824 161.736475,78.5182097 161.940688,76.6802952 C162.008759,76.135728 162.621397,76.0676571 163.914745,76.4760825 C169.020063,78.0417134 171.130261,78.4501388 171.538686,77.8375007 C171.81097,77.4290752 172.832033,78.0417134 173.921168,79.1989188 C175.010302,80.3561242 176.916288,81.5133296 178.073493,81.8536842 C180.524046,82.5343933 185.084797,81.7856133 185.833577,80.5603369 C186.173931,80.0157697 187.875704,80.0157697 192.368384,80.5603369 C200.33268,81.5133296 200.945318,81.7175424 200.673034,83.487386 C200.400751,85.3933714 196.520709,86.2782931 190.734682,85.665655 C186.650428,85.3253004 186.037789,85.4614423 180.660188,88.0481367 C176.507862,90.090264 174.942231,91.1793985 174.942231,92.0643203 C174.942231,93.8341638 170.449552,97.2377092 166.365297,98.6671983 C162.07683,100.096687 154.997456,100.437042 153.363754,99.2117655 Z" id="Path" fill="#F9A040"></path>
                <path d="M135.256893,96.4208583 C135.05268,96.2166456 134.984609,95.195582 135.188822,94.1745184 C135.80146,91.4516821 134.576184,91.1793985 132.05756,93.4938093 C130.287716,95.1275111 129.607007,95.3997947 128.585944,94.8552275 C126.884171,93.9022348 126.339604,91.3836112 127.088384,88.2523495 C127.496809,86.4825059 128.109447,85.5975841 128.994369,85.4614423 C130.287716,85.1891586 134.401847,81.6318903 134.401847,80.7469685 C134.401847,80.4746848 133.172037,79.9930981 131.266052,79.6527436 C128.381913,79.1535656 128.139447,78.7565288 126.802404,76.3213734 C126.498502,75.7678769 126.184552,74.9004289 125.768532,74.0936008 C123.794475,70.1454881 123.149172,69.3505455 123.353385,65.5385747 C123.442749,64.5555688 123.496625,63.6358817 123.699387,62.7335579 C124.11442,60.8865919 124.879391,59.1113768 125.931178,57.0078031 C128.31366,52.1747686 129.198582,51.6982723 128.041376,55.8505976 C127.020313,59.5264266 127.088384,65.2443828 128.177518,66.1973755 C129.334724,67.1503682 130.015433,66.4696592 130.015433,64.359461 C130.015433,62.929972 130.151575,62.7938302 131.036496,63.5426101 C132.329844,64.5636738 132.193702,64.6998156 133.759333,60.4794193 C134.371971,58.6415048 135.529176,56.1228813 136.277956,54.8976049 C137.162878,53.400045 137.29902,52.651265 136.754453,52.3109105 C136.346027,52.0386268 136.141814,50.6772087 136.277956,49.1796487 C136.414098,47.6820888 136.277956,46.5248833 136.005673,46.5248833 C135.733389,46.5248833 134.440042,47.477876 133.078624,48.6350815 C131.785276,49.7922869 131.004493,50.7095171 130.696142,50.2687832 C130.387791,49.8280493 133.430847,45.7282232 134.71826,44.0738416 C136.005673,42.41946 136.930012,38.0426285 136.998083,29.7379779 C137.066154,25.0410853 137.367091,23.6530585 135.665318,19.9091586 C133.418978,15.0761242 129.538936,11.0599407 124.978186,9.01781348 C121.030073,7.24796989 114.76755,7.41294362 111.636288,9.25085811 C110.27487,10.067709 108.953122,10.5152068 108.953122,10.1748523 C108.953122,9.01764688 114.418597,3.98056635 118.298639,1.93843913 C121.4299,0.372808267 123.0722,2.13162821e-14 127.973306,2.13162821e-14 C132.602127,2.13162821e-14 134.167758,0.508950081 136.958665,1.93843913 C138.79658,2.89143183 140.770636,4.11670816 141.315203,4.66127542 C142.268196,5.61426812 142.676621,5.54619721 144.991032,4.25284998 C147.03316,3.09564455 148.326507,2.82336093 150.913201,3.09564455 C157.107654,3.70828272 164.32317,8.47324622 166.705652,13.5785643 C167.182148,14.6676988 167.998999,16.3014006 168.407424,17.1863223 C168.81585,18.0712441 169.156204,22.2235695 169.156204,26.3758948 C169.088133,33.4552692 168.81585,35.0209 166.433368,42.1002744 C166.229155,42.8490544 166.773723,42.2364162 167.726715,40.7388562 C169.156204,38.4925163 169.496559,38.2883036 169.496559,39.5135799 C169.496559,44.2785434 164.391241,52.9235486 159.626277,56.1909522 C157.652221,57.4842994 157.243796,58.1650085 157.243796,60.3432775 C157.243796,61.7727666 156.83537,63.7468229 156.290803,64.7678865 C155.198862,66.8028679 152.641864,69.6184887 149.605417,71.8940153 C148.477481,72.7392953 147.17364,73.4298611 146.012096,74.0936008 L142.335739,76.1904597 L145.671741,76.6802952 C148.871074,77.0887207 149.687925,76.884508 153.636038,74.7062389 C159.149781,71.711119 161.123837,71.7791899 158.060647,74.9104516 C156.83537,76.0676571 155.882377,77.2248625 155.882377,77.4290752 C155.882377,78.3820679 152.819187,81.241046 151.798123,81.241046 C151.185485,81.241046 148.462649,82.6024642 145.671741,84.3042368 C142.880834,85.9379386 139.885714,87.3674277 139.068863,87.3674277 C137.435162,87.3674277 136.414098,88.3884913 137.435162,89.0011294 C138.456225,89.6818385 143.016976,87.843924 146.488592,85.4614423 C150.84513,82.4663223 151.525839,82.738606 148.939145,86.4825059 C145.807883,91.1113276 144.854891,92.1323912 143.561543,92.1323912 C142.948905,92.1323912 141.723629,92.7450293 140.838707,93.5618802 C138.728509,95.3997947 135.733389,96.9654256 135.256893,96.4208583 Z M139.54536,91.9962494 C139.54536,91.4516821 138.183942,90.4986894 137.911658,90.8390439 C137.775516,90.9751857 137.435162,91.7920366 137.162878,92.6769584 C136.754453,94.1745184 136.822523,94.1745184 138.115871,93.3576675 C138.932722,92.8811711 139.54536,92.268533 139.54536,91.9962494 Z M151.798123,65.1763119 C153.567967,64.4275319 154.997456,63.2703265 155.678165,61.9769793 C156.631157,60.0709939 156.631157,59.8667812 155.473952,58.9818594 C154.793243,58.505363 153.908321,58.1650085 153.567967,58.3011503 C152.274619,58.7095757 147.577727,64.8359574 148.054223,65.5166665 C148.59879,66.4696592 148.530719,66.4696592 151.798123,65.1763119 Z M157.856434,10.6515153 C157.311867,9.97080618 156.495016,9.01781348 156.08659,8.54131713 C155.610094,8.06482078 155.201668,7.3160408 155.201668,6.97568626 C155.201668,5.95462266 149.34757,3.57214091 148.122294,4.04863726 C146.148238,4.79741723 146.828947,6.90761536 149.211429,7.38411171 C151.321627,7.86060806 155.610094,9.97080618 156.903441,11.1960825 C158.060647,12.285217 158.809426,11.8087207 157.856434,10.6515153 Z" id="Shape" fill="#F9A040"></path>
                <path d="M169.496559,69.7370627 C169.496559,67.6949355 177.05243,55.3741013 178.345777,55.3741013 C179.026486,55.3741013 178.413848,63.4064683 177.596997,64.9720992 C177.256642,65.5847374 176.235579,66.3335173 175.214515,66.5377301 C174.261522,66.8100137 172.695892,67.7630064 171.81097,68.6479282 C169.973055,70.4858427 169.496559,70.6900554 169.496559,69.7370627 Z" id="Path" fill="#F9A040"></path>
                <path d="M184.267946,67.3545809 C183.246882,66.5377301 183.178811,66.3335173 184.131804,65.5847374 C185.493222,64.4956028 191.823816,61.5004829 192.84488,61.5004829 C193.253306,61.5004829 192.0961,63.0661138 190.258186,64.9040283 C186.650428,68.5798573 186.173931,68.78407 184.267946,67.3545809 Z" id="Path" fill="#F9A040"></path>
                <path d="M91.5141932,52.1458731 C89.2678533,51.9416603 86.6542649,51.0856341 85.7012722,50.5410669 L84.0675704,49.6561451 L86.1096976,49.2477196 C88.015683,48.8392942 87.8795412,48.7712233 84.5440667,48.0224433 C82.5700104,47.545947 80.2555996,47.2055924 79.4387487,47.2055924 C78.4465605,47.2055924 76.6417453,47.1236688 74.8998169,46.5825177 C72.6979739,45.8984887 70.2797385,44.9183702 68.6835454,44.0062598 C67.3221272,43.1894089 67.0498436,42.9851962 61.1276747,36.3142473 C55.2055057,29.6432984 51.1893222,26.7843203 47.7177059,26.7843203 C42.8846715,26.7843203 47.7177059,25.1506185 56.7030657,23.7892003 C57.8602711,23.5849876 58.4048384,23.7211294 58.1325547,24.1976258 C57.8602711,24.6060512 58.2006257,24.742193 59.2216893,24.4018385 C60.3788947,24.061484 60.6511783,24.1295549 60.2427529,24.810264 C59.8343274,25.4229021 60.1066111,25.5590439 61.1276747,25.2867603 C61.9445255,25.0144767 62.6252346,25.1506185 62.6252346,25.490973 C62.6252346,25.8313276 63.0336601,26.1036112 63.5101564,26.1036112 C64.0547237,26.1036112 64.7354327,27.8053839 65.28,30.5282202 C66.0968509,34.6805455 66.3691345,35.0889709 68.6835454,36.3142473 C74.809927,39.3774381 83.0465068,39.6497217 83.591074,36.7226727 C83.9314286,35.0889709 78.8261105,30.3240074 74.5376434,28.1457384 C72.631658,27.1927457 70.9979562,26.3078239 70.7937435,26.1036112 C70.5895308,25.8993985 68.4793326,24.742193 66.02878,23.5849876 C62.6252346,21.8832149 60.3788947,20.0453004 56.2946403,15.6206915 C50.7808968,9.56238074 47.7857769,7.79253715 41.046757,6.77147354 C37.9835662,6.29497719 37.3709281,6.70340264 39.1407716,7.99674987 C39.7534098,8.40517532 40.6383316,10.5153734 41.1148279,12.6936425 C41.9316788,16.2333296 41.8160597,17.4726264 40.6588543,16.315421 C40.3865707,16.0431374 38.5717439,15.3701828 36.5976876,14.6894737 C31.8327241,13.0557719 21.7269866,12.8978552 18.0511576,14.4634861 C16.1762033,15.2809438 15.1730151,15.5976772 15.041593,15.4136864 C14.910171,15.2296955 15.6161951,14.5118817 17.1596654,13.2602449 C20.2951618,9.92877997 26.3205218,6.9587249 33.0775717,5.23528893 C40.4031462,3.36684656 48.5598299,2.93720285 54.0483003,4.38899179 C60.6511783,6.09076447 62.4210219,6.70340264 65.3480709,7.99674987 C68.3431908,9.29009711 75.19454,13.6111189 76.13839,14.2592733 C77.0822399,14.9074277 77.9788633,15.6457043 79.2722105,16.6667679 C80.5655578,17.6197606 82.910365,19.6928935 84.5440667,21.1904535 C88.4921794,24.8662825 94.6866319,28.2818802 95.9799791,27.4650293 C97.6136809,26.4439657 98.7028154,26.7162494 98.7028154,28.0776675 C98.7028154,29.3710147 101.357581,31.5492838 102.923212,31.5492838 C103.399708,31.5492838 105.918332,30.3240074 108.436955,28.8945184 C111.091721,27.3288875 112.997706,26.5801075 112.997706,27.0566039 C112.997706,27.4650293 112.657351,28.2138093 112.248926,28.6222348 C111.77243,29.0987311 111.840501,30.0517238 112.589281,31.8896383 L113.678415,34.4763328 L118.987946,34.0679073 C121.846924,33.7956237 126.203462,32.9787728 128.654015,32.2299928 C134.099687,30.5962911 134.167758,30.5962911 132.05756,32.2299928 C128.994369,34.6805455 117.898811,39.7177926 114.01877,40.5346435 C110.138728,41.2834235 108.845381,42.4406289 110.070657,44.0062598 C110.479082,44.4146852 111.091721,45.7761034 111.432075,46.9333088 C112.180855,49.0435069 112.912295,49.3157905 109.440679,50.5410669 C107.534693,51.2217759 106.442128,51.3945765 104.18107,51.8563419 C102.673698,52.1641856 100.847613,52.3158492 98.7028154,52.3113328 C95.4533412,52.2917875 93.0571338,52.2366343 91.5141932,52.1458731 Z" id="Path" fill="#F9A040"></path>
                <path d="M93.5183132,23.649408 C95.4923695,20.8585008 101.40434,15.4164788 104.331389,13.8508479 C107.326509,12.3532879 108.495537,12.3615591 108.495537,13.3145518 C108.495537,14.2675445 107.326509,15.5022828 108.913452,17.3905351 C110.500394,19.2787873 118.613018,18.3358389 117.512743,19.5343521 C116.412469,20.7328653 107.960459,21.3386477 105.101481,21.5428604 C101.629864,21.8832149 97.9722873,23.0514368 95.9092659,24.4261985 C94.9046315,25.0956695 94.2153751,25.781045 93.673304,25.9967006 C92.175854,26.5924408 92.2688436,25.3486866 93.5183132,23.649408 Z" id="Path" fill="#F9A040"></path>
                <path d="M139.885714,52.5151232 C139.341147,51.2217759 140.906778,48.7031524 144.310323,45.5038197 L146.420521,43.4616925 L144.03804,47.545947 C140.089927,54.2849668 140.430282,53.8084704 139.885714,52.5151232 Z" id="Path" fill="#FECA41"></path>
                <path d="M161.736475,37.8798781 C162.893681,35.3612546 163.165965,33.9317655 162.757539,33.591411 C162.212972,33.3191273 162.281043,32.2299928 162.961752,30.1197947 C163.506319,28.4860929 164.255099,26.0355403 164.595454,24.742193 C165.276163,22.4958531 165.344234,22.7000658 165.276163,26.7843203 C165.276163,34.4082619 163.165965,41.7599198 160.987696,41.7599198 C160.238916,41.7599198 160.443128,40.874998 161.736475,37.8798781 Z" id="Path" fill="#FECA41"></path>
                <path d="M57.5199166,31.1408583 C54.8651512,28.7583766 54.8651512,28.7583766 57.0434202,29.9836529 C59.425902,31.2770001 61.8764546,33.591411 60.855391,33.591411 C60.5150365,33.5233401 59.0174765,32.4342056 57.5199166,31.1408583 Z" id="Path" fill="#FECA41"></path>
                <path d="M92.440292,29.166802 C88.4241084,26.239753 87.4711157,24.742193 91.0108029,26.8523912 C95.8438373,29.7794402 96.9329718,30.5962911 96.2522628,31.0047165 C95.9119082,31.2770001 94.2101356,30.3920783 92.440292,29.166802 Z" id="Path" fill="#FECA41"></path>
                <path d="M66.2329927,13.4424224 C65.0757873,12.4894297 62.1487383,10.6515153 59.7662565,9.42623892 C54.8651512,6.70340264 55.3416475,6.3630481 61.0596038,8.54131713 C66.5733472,10.5834443 70.1811053,12.8978552 69.704609,14.1912024 C69.1600417,15.5526206 68.8196872,15.4845497 66.2329927,13.4424224 Z" id="Path" fill="#FECA41"></path>
                <path d="M55.8181439,12.8297843 C54.9332221,11.8767916 52.4826694,10.3111607 50.4405422,9.29009711 C48.3303441,8.2690335 46.4243587,7.11182808 46.1520751,6.77147354 C45.8797914,6.3630481 42.8166006,6.09076447 39.2769135,6.02269356 C35.6691554,6.02269356 32.9463191,5.81848084 33.0824609,5.54619721 C33.5589572,4.86548814 47.1050678,4.25284998 49.6917623,4.86548814 C51.2573931,5.27391359 52.0061731,5.75040994 51.8700313,6.49918991 C51.8019604,7.17989899 52.9591658,7.99674987 55.8181439,9.01781348 L59.9023983,10.5153734 L58.7451929,12.3532879 C58.1325547,13.3743515 57.5199166,14.2592733 57.5199166,14.3273442 C57.4518457,14.4634861 56.7030657,13.782777 55.8181439,12.8297843 Z" id="Path" fill="#FECA41"></path>
                <path d="M111.636288,7.92867897 C111.636288,6.22690629 120.07708,1.5980846 123.208342,1.5980846 C125.590824,1.5980846 127.973306,2.34686458 127.973306,3.02757365 C127.973306,3.36792818 127.020313,3.64021181 125.931178,3.64021181 C124.705902,3.64021181 123.684838,4.04863726 123.480626,4.66127542 C123.208342,5.20584268 122.32342,5.68233903 121.370428,5.68233903 C119.124088,5.68233903 113.542273,7.11182808 112.52121,7.92867897 C112.044713,8.2690335 111.636288,8.2690335 111.636288,7.92867897 Z" id="Path" fill="#FECA41"></path>
                <path d="M153.363754,99.2117655 C152.206548,98.3949146 152.206548,98.2587728 153.363754,97.1015674 C154.044463,96.4208583 154.520959,96.2166456 154.520959,96.7612129 C154.520959,99.4840491 164.050886,95.5359365 165.616517,92.1323912 C165.888801,91.5878239 166.56951,90.4306185 167.182148,89.6137676 C168.203212,88.2523495 168.203212,88.0481367 167.250219,88.0481367 C166.024943,88.0481367 162.008759,84.8488041 162.008759,83.8958114 C162.008759,83.5554569 162.621397,83.2831732 163.370177,83.2831732 L164.799666,83.2831732 L163.370177,81.7856133 C162.621397,80.9006915 162.008759,79.4031315 162.008759,78.1097843 C162.008759,75.9995862 162.07683,75.9315153 163.914745,76.4760825 C169.088133,78.1097843 171.198332,78.4501388 171.402544,77.8375007 C171.538686,77.4290752 172.627821,78.0417134 173.785026,79.1308479 C176.644004,81.989826 179.571053,82.8747478 183.042669,81.9217551 C184.6083,81.5133296 185.833577,80.9006915 185.833577,80.492266 C185.833577,80.0157697 186.786569,79.9476988 188.420271,80.1519115 C189.781689,80.4241951 192.640667,80.7645497 194.682795,80.9006915 C200.060396,81.4452587 200.945318,81.7856133 200.673034,83.487386 C200.400751,85.3933714 196.520709,86.2782931 190.734682,85.665655 C186.650428,85.3253004 186.037789,85.4614423 180.660188,88.0481367 C176.507862,90.090264 174.942231,91.1793985 174.942231,92.0643203 C174.942231,93.7660929 170.721835,96.9654256 166.501439,98.5991273 C162.349114,100.096687 154.997456,100.505113 153.363754,99.2117655 Z" id="Path" fill="#EF9772"></path>
                <path d="M139.068863,90.9751857 C138.456225,90.4986894 137.367091,90.090264 136.754453,90.090264 C136.073743,90.090264 135.461105,90.4986894 135.256893,90.9751857 C135.120751,91.3836112 134.780396,91.5878239 134.508113,91.3836112 C134.3039,91.1793985 134.235829,90.4306185 134.508113,89.8179803 C134.848467,88.9330585 135.461105,88.7969167 136.890594,89.0692003 C138.864651,89.5456967 142.744692,88.0481367 146.760876,85.3253004 L148.939145,83.8958114 L146.760876,87.9800658 C144.78682,91.7920366 144.514536,92.0643203 142.472409,91.9281784 C141.247132,91.8601075 139.749572,91.3836112 139.068863,90.9751857 Z" id="Path" fill="#EF9772"></path>
                <path d="M169.496559,70.0093463 C169.496559,69.8732045 170.585693,67.4907228 171.879041,64.8359574 C174.329593,59.7306393 177.324713,55.3741013 178.345777,55.3741013 C179.026486,55.3741013 178.413848,63.4064683 177.528926,65.108241 C177.188571,65.7208792 176.371721,66.2654464 175.691011,66.2654464 C174.942231,66.2654464 173.444672,67.2184391 172.219395,68.3075736 C170.109197,70.28163 169.496559,70.6900554 169.496559,70.0093463 Z" id="Path" fill="#EF9772"></path>
                <path d="M184.744442,67.4226519 C182.906528,66.4015882 183.519166,65.7889501 188.420271,63.2703265 C193.525589,60.683632 194.002086,61.0920575 190.258186,64.9040283 C186.514286,68.6479282 186.718498,68.5798573 184.744442,67.4226519 Z" id="Path" fill="#EF9772"></path>
                <path d="M152.819187,98.871411 C152.070407,97.7142056 153.023399,97.3057801 156.08659,97.5099928 C158.469072,97.6461346 159.626277,97.2377092 162.349114,95.3997947 C164.187028,94.1745184 165.548446,93.017313 165.344234,92.8131002 C165.208092,92.6088875 165.752659,91.519753 166.637581,90.4306185 L168.203212,88.4565622 L165.82073,87.6364937 C164.459312,86.9557846 162.51983,85.1891586 162.111405,84.3723077 C161.430696,83.0789605 161.259979,82.8066769 162.553326,83.1470314 C164.32317,83.5554569 164.32317,83.2831732 162.621397,81.1049042 C161.872617,80.1519115 161.721269,78.313997 161.721269,77.2248625 C161.721269,75.3188771 161.721269,75.3188771 163.967609,76.2718698 C165.192886,76.7483661 168.013707,77.0206498 169.579338,77.2248625 C171.144969,77.3610043 172.914813,77.9055716 173.595522,78.5182097 C176.318358,80.9006915 179.162628,82.738606 182.157748,82.2621096 C183.791449,82.0578969 185.761248,81.9119051 186.033531,81.5034797 C186.305815,81.0950542 188.079917,80.5603369 191.619604,80.8326206 C199.515829,81.3091169 200.945318,81.7856133 200.673034,83.487386 C200.400751,85.3933714 196.452638,86.2782931 190.734682,85.665655 C186.650428,85.3253004 186.037789,85.4614423 180.660188,88.0481367 C176.439791,90.090264 174.942231,91.1793985 174.942231,92.1323912 C174.942231,93.8341638 170.926048,96.8973547 166.56951,98.3949146 C162.689468,99.7563328 153.499896,100.096687 152.819187,98.871411 Z" id="Path" fill="#FF9F3C"></path>
                <path d="M139.54536,91.0432567 C137.230949,90.2264058 136.209885,90.1583349 135.324964,90.7029021 C134.644254,91.1113276 134.099687,91.1793985 134.099687,90.8390439 C134.099687,89.7499094 135.665318,89.1372712 138.0478,89.341484 C140.157998,89.4776258 141.859771,88.7969167 146.692805,85.5975841 L148.59879,84.3723077 L146.488592,88.0481367 C145.331387,90.090264 143.969969,91.8601075 143.493472,91.9281784 C143.016976,91.9962494 141.247132,91.5878239 139.54536,91.0432567 Z" id="Path" fill="#FCE1C4"></path>
                <path d="M172.287466,64.359461 C173.785026,61.432412 175.759082,58.0969376 176.644004,57.0078031 L178.277706,55.0337467 L178.345777,58.1650085 C178.345777,63.8148938 177.733139,65.4485955 175.282586,66.2654464 C174.05731,66.6738719 172.491679,67.6268646 171.879041,68.3075736 C169.428488,71.0304099 169.56463,69.53285 172.287466,64.359461 Z" id="Path" fill="#FCE1C4"></path>
                <path d="M184.812513,67.2184391 C184.131804,66.6738719 183.927591,66.2654464 184.404088,66.2654464 C184.880584,66.2654464 185.084797,65.9931628 184.880584,65.6528083 C184.540229,65.108241 191.687675,61.5004829 193.049093,61.5004829 C193.729802,61.5004829 188.624484,66.8100137 187.194995,67.6268646 C186.582357,67.9672191 185.629364,67.8310773 184.812513,67.2184391 Z" id="Path" fill="#FCE1C4"></path>
                <path d="M152.751116,99.0075528 C151.934265,98.1907019 152.819187,97.8503474 155.814307,97.8503474 C158.33293,97.8503474 159.898561,97.373851 162.281043,95.8082202 C165.82073,93.4938093 168.747779,88.8649876 167.250219,87.9119949 C166.841794,87.6397113 166.705652,87.3674277 167.114077,87.3674277 C167.454432,87.3674277 166.977935,86.8228604 166.093014,86.2102222 L164.391241,84.9849459 L166.773723,84.5765205 C168.883921,84.168095 169.020063,84.1000241 167.658644,83.6235278 C166.773723,83.3512441 165.684588,82.2621096 165.140021,81.1729751 C164.187028,79.1989188 164.187028,79.1989188 165.956872,79.6073442 C166.977935,79.811557 168.883921,80.3561242 170.177268,80.7645497 C173.853097,81.9217551 174.329593,81.989826 178.413848,82.3982514 C181.000542,82.6024642 183.042669,82.3301805 184.744442,81.6494715 C186.650428,80.8326206 188.488342,80.6964788 192.164171,81.0368333 C198.903191,81.5814006 200.468822,82.1259678 200.468822,83.6915987 C200.468822,85.3253004 196.992153,86.239252 191.410339,85.7627557 C188.847273,85.7100063 186.51943,85.7100063 184.27309,86.5268572 C179.916552,88.160559 174.937372,91.3023107 174.937372,92.4595161 C174.937372,94.1612888 170.789906,96.8292838 166.433368,98.2587728 C163.438248,99.2798364 160.851554,99.620191 157.652221,99.4840491 C155.133597,99.3479073 152.955328,99.1436946 152.751116,99.0075528 Z" id="Path" fill="#FFCB93"></path>
                <path d="M185.152868,66.9461555 C184.404088,66.4696592 184.404088,66.2654464 185.016726,66.2654464 C185.493222,66.2654464 185.765506,65.9931628 185.493222,65.6528083 C185.084797,64.9720992 192.028029,61.3643411 192.640667,61.9769793 C192.981022,62.3173338 187.399208,67.6268646 186.650428,67.6268646 C186.378144,67.6268646 185.697435,67.28651 185.152868,66.9461555 Z" id="Path" fill="#FEFBF9"></path>
                <path d="M174.80609,65.857021 C175.895224,65.3124537 175.827153,64.5636738 174.601877,63.2703265 C173.716955,62.3854047 173.648884,61.9769793 174.397664,60.683632 C174.874161,59.8667812 175.691011,58.7776466 176.167508,58.2330794 C176.575933,57.756583 176.984359,57.0078031 176.984359,56.6674485 C176.984359,56.327094 177.324713,56.0548104 177.733139,56.0548104 C178.277706,56.0548104 178.413848,57.4162285 178.073493,60.6155611 C177.80121,63.1341847 177.528926,65.2443828 177.460855,65.3124537 C177.392784,65.3805246 176.575933,65.5847374 175.622941,65.857021 C174.669948,66.0612337 174.329593,66.0612337 174.80609,65.857021 Z" id="Path" fill="#FEFBF9"></path>
            </g>
            <path d="M10.64,103.360754 L10.64,91.780754 L19.1,91.780754 C22.82,91.780754 26.05,91.170754 28.79,89.950754 C31.53,88.730754 33.64,86.970754 35.12,84.670754 C36.6,82.370754 37.34,79.680754 37.34,76.600754 C37.34,73.480754 36.6,70.780754 35.12,68.500754 C33.64,66.220754 31.53,64.460754 28.79,63.220754 C26.05,61.980754 22.82,61.360754 19.1,61.360754 L19.1,61.360754 L0.92,61.360754 L0.92,103.360754 L10.64,103.360754 Z M18.56,83.860754 L10.64,83.860754 L10.64,69.280754 L18.56,69.280754 C21.48,69.280754 23.7,69.910754 25.22,71.170754 C26.74,72.430754 27.5,74.240754 27.5,76.600754 C27.5,78.920754 26.74,80.710754 25.22,81.970754 C23.7,83.230754 21.48,83.860754 18.56,83.860754 L18.56,83.860754 Z M65.18,104.080754 C69.54,104.080754 73.46,103.140754 76.94,101.260754 C80.42,99.380754 83.16,96.790754 85.16,93.490754 C87.16,90.190754 88.16,86.480754 88.16,82.360754 C88.16,78.240754 87.16,74.530754 85.16,71.230754 C83.16,67.930754 80.42,65.340754 76.94,63.460754 C73.46,61.580754 69.54,60.640754 65.18,60.640754 C60.82,60.640754 56.89,61.580754 53.39,63.460754 C49.89,65.340754 47.15,67.930754 45.17,71.230754 C43.19,74.530754 42.2,78.240754 42.2,82.360754 C42.2,86.480754 43.19,90.190754 45.17,93.490754 C47.15,96.790754 49.89,99.380754 53.39,101.260754 C56.89,103.140754 60.82,104.080754 65.18,104.080754 Z M65.18,95.800754 C62.7,95.800754 60.46,95.230754 58.46,94.090754 C56.46,92.950754 54.89,91.360754 53.75,89.320754 C52.61,87.280754 52.04,84.960754 52.04,82.360754 C52.04,79.760754 52.61,77.440754 53.75,75.400754 C54.89,73.360754 56.46,71.770754 58.46,70.630754 C60.46,69.490754 62.7,68.920754 65.18,68.920754 C67.66,68.920754 69.9,69.490754 71.9,70.630754 C73.9,71.770754 75.47,73.360754 76.61,75.400754 C77.75,77.440754 78.32,79.760754 78.32,82.360754 C78.32,84.960754 77.75,87.280754 76.61,89.320754 C75.47,91.360754 73.9,92.950754 71.9,94.090754 C69.9,95.230754 67.66,95.800754 65.18,95.800754 Z M114.56,103.360754 C119.12,103.360754 123.15,102.490754 126.65,100.750754 C130.15,99.010754 132.87,96.560754 134.81,93.400754 C136.75,90.240754 137.72,86.560754 137.72,82.360754 C137.72,78.160754 136.75,74.480754 134.81,71.320754 C132.87,68.160754 130.15,65.710754 126.65,63.970754 C123.15,62.230754 119.12,61.360754 114.56,61.360754 L114.56,61.360754 L95.48,61.360754 L95.48,103.360754 L114.56,103.360754 Z M114.08,95.380754 L105.2,95.380754 L105.2,69.340754 L114.08,69.340754 C118.28,69.340754 121.63,70.510754 124.13,72.850754 C126.63,75.190754 127.88,78.360754 127.88,82.360754 C127.88,86.360754 126.63,89.530754 124.13,91.870754 C121.63,94.210754 118.28,95.380754 114.08,95.380754 L114.08,95.380754 Z" id="POD" fill="#000000"></path>
            <g id="Group" transform="translate(99.818182, 100.000000) rotate(-7.000000) translate(-99.818182, -100.000000) translate(84.000000, 94.000000)">
                <path d="M10.0249882,10.640152 C5.34666035,9.60052364 7.36380653e-14,5.44201003 7.36380653e-14,2.9171982 C7.36380653e-14,1.65479229 0.148518343,1.65479229 2.52481183,3.06571654 C6.38628875,5.29349169 10.0249882,5.14497335 15.594426,2.397384 C21.0153455,-0.275946172 24.8025633,-0.64724203 28.6640402,1.20923726 C31.3373704,2.47164317 32.0057029,3.73404909 30.0007053,3.73404909 C29.3323727,3.73404909 27.3273751,5.21923252 25.545155,7.00145263 C23.6886757,8.85793192 21.238123,10.4173745 19.9757171,10.7144112 C17.4509053,11.2342254 12.4012816,11.1599662 10.0249882,10.640152 Z" id="Path" fill="#DF3C0B"></path>
                <path d="M10.0249882,10.640152 C5.79221538,9.74904198 -6.588669e-14,5.21923252 -6.588669e-14,2.84293903 C-6.588669e-14,1.65479229 0.148518343,1.65479229 2.52481183,3.06571654 C6.38628875,5.29349169 10.0249882,5.14497335 15.594426,2.397384 C21.0153455,-0.275946172 24.8025633,-0.64724203 28.6640402,1.20923726 C31.4116295,2.54590234 32.0057029,3.73404909 29.7779278,3.73404909 C29.0353361,3.73404909 27.6244118,4.77367749 26.5847834,5.96182423 C22.946084,10.3431154 16.6340544,12.1253355 10.0249882,10.640152 Z" id="Path" fill="#EF692A"></path>
                <path d="M10.0249882,10.640152 C5.79221538,9.74904198 9.49543474e-14,5.21923252 9.49543474e-14,2.84293903 C9.49543474e-14,1.65479229 0.222777514,1.65479229 2.67333017,3.13997572 C6.53480709,5.44201003 10.6190615,5.14497335 15.9657219,2.24886566 C19.7529396,0.243868028 21.3243252,-0.168523245 24.6659879,0.0542542692 C26.9680223,0.277031784 28.8125585,1.06071891 29.5551503,1.72905146 C30.6690378,2.9171982 29.148021,2.84293903 26.7939317,2.5819861 C24.4398424,2.32103318 21.1223158,1.72905146 20.6172677,3.13997572 C20.1122197,4.55089997 23.1273135,4.55089997 23.6179056,6.14526039 C24.1084977,7.73962081 23.1273135,9.48694652 21.1223158,10.3037974 C18.9687999,11.2691666 13.0696142,11.3084846 10.0249882,10.640152 Z" id="Path" fill="#F9A040"></path>
            </g>
            <path d="M11.07,135.360754 L11.07,134.080754 L2.65,134.080754 L2.65,128.880754 L9.89,128.880754 L9.89,127.620754 L2.65,127.620754 L2.65,122.640754 L10.77,122.640754 L10.77,121.360754 L1.17,121.360754 L1.17,135.360754 L11.07,135.360754 Z M33.29,135.360754 L39.49,121.360754 L37.99,121.360754 L32.59,133.520754 L27.23,121.360754 L25.63,121.360754 L31.83,135.360754 L33.29,135.360754 Z M64.91,135.360754 L64.91,134.080754 L56.49,134.080754 L56.49,128.880754 L63.73,128.880754 L63.73,127.620754 L56.49,127.620754 L56.49,122.640754 L64.61,122.640754 L64.61,121.360754 L55.01,121.360754 L55.01,135.360754 L64.91,135.360754 Z M83.37,135.360754 L83.37,124.000754 L92.37,135.360754 L93.59,135.360754 L93.59,121.360754 L92.13,121.360754 L92.13,132.720754 L83.11,121.360754 L81.89,121.360754 L81.89,135.360754 L83.37,135.360754 Z M115.85,135.360754 L115.85,122.640754 L120.77,122.640754 L120.77,121.360754 L109.45,121.360754 L109.45,122.640754 L114.37,122.640754 L114.37,135.360754 L115.85,135.360754 Z M154.67,135.360754 L156.35,131.620754 L164.15,131.620754 L165.83,135.360754 L167.39,135.360754 L160.99,121.360754 L159.53,121.360754 L153.13,135.360754 L154.67,135.360754 Z M163.61,130.420754 L156.89,130.420754 L160.25,122.900754 L163.61,130.420754 Z M189.15,135.480754 C190.136667,135.480754 191.076667,135.327421 191.97,135.020754 C192.863333,134.714087 193.636667,134.274087 194.29,133.700754 L194.29,133.700754 L194.29,128.360754 L192.87,128.360754 L192.87,133.080754 C191.87,133.800754 190.65,134.160754 189.21,134.160754 C188.076667,134.160754 187.056667,133.907421 186.15,133.400754 C185.243333,132.894087 184.53,132.200754 184.01,131.320754 C183.49,130.440754 183.23,129.454087 183.23,128.360754 C183.23,127.267421 183.49,126.277421 184.01,125.390754 C184.53,124.504087 185.246667,123.810754 186.16,123.310754 C187.073333,122.810754 188.096667,122.560754 189.23,122.560754 C190.936667,122.560754 192.343333,123.107421 193.45,124.200754 L193.45,124.200754 L194.37,123.260754 C193.756667,122.594087 193.003333,122.090754 192.11,121.750754 C191.216667,121.410754 190.236667,121.240754 189.17,121.240754 C187.756667,121.240754 186.49,121.547421 185.37,122.160754 C184.25,122.774087 183.37,123.624087 182.73,124.710754 C182.09,125.797421 181.77,127.014087 181.77,128.360754 C181.77,129.707421 182.09,130.924087 182.73,132.010754 C183.37,133.097421 184.25,133.947421 185.37,134.560754 C186.49,135.174087 187.75,135.480754 189.15,135.480754 Z M221.87,135.360754 L221.87,134.080754 L213.45,134.080754 L213.45,128.880754 L220.69,128.880754 L220.69,127.620754 L213.45,127.620754 L213.45,122.640754 L221.57,122.640754 L221.57,121.360754 L211.97,121.360754 L211.97,135.360754 L221.87,135.360754 Z M240.33,135.360754 L240.33,124.000754 L249.33,135.360754 L250.55,135.360754 L250.55,121.360754 L249.09,121.360754 L249.09,132.720754 L240.07,121.360754 L238.85,121.360754 L238.85,135.360754 L240.33,135.360754 Z M274.69,135.480754 C275.73,135.480754 276.693333,135.304087 277.58,134.950754 C278.466667,134.597421 279.216667,134.087421 279.83,133.420754 L279.83,133.420754 L278.89,132.480754 C277.81,133.600754 276.43,134.160754 274.75,134.160754 C273.643333,134.160754 272.636667,133.907421 271.73,133.400754 C270.823333,132.894087 270.113333,132.200754 269.6,131.320754 C269.086667,130.440754 268.83,129.454087 268.83,128.360754 C268.83,127.267421 269.086667,126.280754 269.6,125.400754 C270.113333,124.520754 270.823333,123.827421 271.73,123.320754 C272.636667,122.814087 273.643333,122.560754 274.75,122.560754 C276.416667,122.560754 277.796667,123.114087 278.89,124.220754 L278.89,124.220754 L279.83,123.280754 C279.216667,122.614087 278.47,122.107421 277.59,121.760754 C276.71,121.414087 275.75,121.240754 274.71,121.240754 C273.323333,121.240754 272.07,121.547421 270.95,122.160754 C269.83,122.774087 268.953333,123.624087 268.32,124.710754 C267.686667,125.797421 267.37,127.014087 267.37,128.360754 C267.37,129.707421 267.686667,130.924087 268.32,132.010754 C268.953333,133.097421 269.826667,133.947421 270.94,134.560754 C272.053333,135.174087 273.303333,135.480754 274.69,135.480754 Z M300.99,135.360754 L300.99,130.520754 L306.59,121.360754 L305.11,121.360754 L300.31,129.220754 L295.51,121.360754 L293.93,121.360754 L299.53,130.520754 L299.53,135.360754 L300.99,135.360754 Z" id="EVENTAGENCY" fill="#F9A040"></path>
        </g>
    </g>
</svg>