<?xml version="1.0" encoding="iso-8859-1"?>
<!-- Generator: Adobe Illustrator 19.0.0, SVG Export Plug-In . SVG Version: 6.00 Build 0)  -->
<svg version="1.1" id="Capa_1" xmlns="http://www.w3.org/2000/svg" xmlns:xlink="http://www.w3.org/1999/xlink" x="0px" y="0px"
	 viewBox="0 0 469.333 469.333" style="enable-background:new 0 0 469.333 469.333;" xml:space="preserve">
<g>
	
		<linearGradient id="SVGID_1_" gradientUnits="userSpaceOnUse" x1="-41.7396" y1="616.7184" x2="-41.7396" y2="572.7164" gradientTransform="matrix(10.6667 0 0 -10.6667 679.8889 6577.4448)">
		<stop  offset="0" style="stop-color:#FFBF3F"/>
		<stop  offset="1" style="stop-color:#FF6A8F"/>
	</linearGradient>
	<path style="fill:url(#SVGID_1_);" d="M213.333,213.333c28.832,0,53.259-19.168,61.237-45.429
		C300.832,159.925,320,135.499,320,106.667c0-35.296-28.704-64-64-64c-28.832,0-53.259,19.168-61.237,45.429
		c-26.261,7.979-45.429,32.405-45.429,61.237C149.333,184.629,178.037,213.333,213.333,213.333z M256,64
		c23.531,0,42.667,19.136,42.667,42.667c0,15.84-8.779,29.525-21.621,36.885c-2.763-30.688-27.243-55.168-57.931-57.931
		C226.475,72.779,240.16,64,256,64z M256,149.333c-23.531,0-42.667-19.136-42.667-42.667C236.864,106.667,256,125.803,256,149.333z
		 M192.288,112.448c2.763,30.688,27.243,55.168,57.931,57.931C242.859,183.221,229.173,192,213.333,192
		c-23.531,0-42.667-19.136-42.667-42.667C170.667,133.493,179.445,119.808,192.288,112.448z"/>
	
		<linearGradient id="SVGID_2_" gradientUnits="userSpaceOnUse" x1="-48.2396" y1="616.7184" x2="-48.2396" y2="572.7164" gradientTransform="matrix(10.6667 0 0 -10.6667 679.8889 6577.4448)">
		<stop  offset="0" style="stop-color:#FFBF3F"/>
		<stop  offset="1" style="stop-color:#FF6A8F"/>
	</linearGradient>
	<path style="fill:url(#SVGID_2_);" d="M181.333,64V42.667H160v10.667h-10.667v21.333h21.333
		C176.555,74.667,181.333,69.888,181.333,64z"/>
	
		<linearGradient id="SVGID_3_" gradientUnits="userSpaceOnUse" x1="-35.2396" y1="616.7184" x2="-35.2396" y2="572.7164" gradientTransform="matrix(10.6667 0 0 -10.6667 679.8889 6577.4448)">
		<stop  offset="0" style="stop-color:#FFBF3F"/>
		<stop  offset="1" style="stop-color:#FF6A8F"/>
	</linearGradient>
	<path style="fill:url(#SVGID_3_);" d="M288,192v21.333h21.333v-10.667H320v-21.333h-21.333C292.779,181.333,288,186.112,288,192z"
		/>
</g>
<g>
	
		<linearGradient id="SVGID_4_" gradientUnits="userSpaceOnUse" x1="-44.7396" y1="616.7184" x2="-44.7396" y2="572.7184" gradientTransform="matrix(10.6667 0 0 -10.6667 679.8889 6577.4448)">
		<stop  offset="0" style="stop-color:#FFBF3F"/>
		<stop  offset="1" style="stop-color:#FF6A8F"/>
	</linearGradient>
	<rect x="128" y="320" style="fill:url(#SVGID_4_);" width="149.333" height="21.333"/>
	
		<linearGradient id="SVGID_5_" gradientUnits="userSpaceOnUse" x1="-33.7396" y1="616.7184" x2="-33.7396" y2="572.7184" gradientTransform="matrix(10.6667 0 0 -10.6667 679.8889 6577.4448)">
		<stop  offset="0" style="stop-color:#FFBF3F"/>
		<stop  offset="1" style="stop-color:#FF6A8F"/>
	</linearGradient>
	<rect x="298.667" y="320" style="fill:url(#SVGID_5_);" width="42.667" height="21.333"/>
	
		<linearGradient id="SVGID_6_" gradientUnits="userSpaceOnUse" x1="-47.7396" y1="616.7184" x2="-47.7396" y2="572.7184" gradientTransform="matrix(10.6667 0 0 -10.6667 679.8889 6577.4448)">
		<stop  offset="0" style="stop-color:#FFBF3F"/>
		<stop  offset="1" style="stop-color:#FF6A8F"/>
	</linearGradient>
	<rect x="128" y="277.333" style="fill:url(#SVGID_6_);" width="85.333" height="21.333"/>
	
		<linearGradient id="SVGID_7_" gradientUnits="userSpaceOnUse" x1="-36.7396" y1="616.7184" x2="-36.7396" y2="572.7184" gradientTransform="matrix(10.6667 0 0 -10.6667 679.8889 6577.4448)">
		<stop  offset="0" style="stop-color:#FFBF3F"/>
		<stop  offset="1" style="stop-color:#FF6A8F"/>
	</linearGradient>
	<rect x="234.667" y="277.333" style="fill:url(#SVGID_7_);" width="106.667" height="21.333"/>
	
		<linearGradient id="SVGID_8_" gradientUnits="userSpaceOnUse" x1="-41.7396" y1="616.7184" x2="-41.7396" y2="572.7184" gradientTransform="matrix(10.6667 0 0 -10.6667 679.8889 6577.4448)">
		<stop  offset="0" style="stop-color:#FFBF3F"/>
		<stop  offset="1" style="stop-color:#FF6A8F"/>
	</linearGradient>
	<path style="fill:url(#SVGID_8_);" d="M394.667,0h-320C68.779,0,64,4.779,64,10.667v448c0,5.888,4.779,10.667,10.667,10.667h320
		c5.888,0,10.667-4.779,10.667-10.667v-448C405.333,4.779,400.555,0,394.667,0z M342.411,448H126.923
		c-4.256-20.864-20.725-37.333-41.589-41.589V62.923c20.864-4.256,37.333-20.725,41.589-41.589h215.488
		c4.256,20.864,20.725,37.333,41.589,41.589v343.488C363.136,410.667,346.667,427.136,342.411,448z M384,21.333v19.509
		c-9.077-3.221-16.288-10.432-19.509-19.509H384z M85.333,21.333h19.509c-3.221,9.077-10.432,16.288-19.509,19.509V21.333z
		 M85.333,448v-19.509c9.077,3.221,16.288,10.432,19.509,19.509H85.333z M384,448h-19.509c3.221-9.077,10.432-16.288,19.509-19.509
		V448z"/>
	
		<linearGradient id="SVGID_9_" gradientUnits="userSpaceOnUse" x1="-48.7396" y1="616.7184" x2="-48.7396" y2="572.7184" gradientTransform="matrix(10.6667 0 0 -10.6667 679.8889 6577.4448)">
		<stop  offset="0" style="stop-color:#FFBF3F"/>
		<stop  offset="1" style="stop-color:#FF6A8F"/>
	</linearGradient>
	<rect x="149.333" y="362.667" style="fill:url(#SVGID_9_);" width="21.333" height="21.333"/>
	
		<linearGradient id="SVGID_10_" gradientUnits="userSpaceOnUse" x1="-45.7396" y1="616.7184" x2="-45.7396" y2="572.7184" gradientTransform="matrix(10.6667 0 0 -10.6667 679.8889 6577.4448)">
		<stop  offset="0" style="stop-color:#FFBF3F"/>
		<stop  offset="1" style="stop-color:#FF6A8F"/>
	</linearGradient>
	<rect x="181.333" y="405.333" style="fill:url(#SVGID_10_);" width="21.333" height="21.333"/>
	
		<linearGradient id="SVGID_11_" gradientUnits="userSpaceOnUse" x1="-41.7396" y1="616.7184" x2="-41.7396" y2="572.7184" gradientTransform="matrix(10.6667 0 0 -10.6667 679.8889 6577.4448)">
		<stop  offset="0" style="stop-color:#FFBF3F"/>
		<stop  offset="1" style="stop-color:#FF6A8F"/>
	</linearGradient>
	<rect x="224" y="405.333" style="fill:url(#SVGID_11_);" width="21.333" height="21.333"/>
	
		<linearGradient id="SVGID_12_" gradientUnits="userSpaceOnUse" x1="-37.7396" y1="616.7184" x2="-37.7396" y2="572.7184" gradientTransform="matrix(10.6667 0 0 -10.6667 679.8889 6577.4448)">
		<stop  offset="0" style="stop-color:#FFBF3F"/>
		<stop  offset="1" style="stop-color:#FF6A8F"/>
	</linearGradient>
	<rect x="266.667" y="405.333" style="fill:url(#SVGID_12_);" width="21.333" height="21.333"/>
	
		<linearGradient id="SVGID_13_" gradientUnits="userSpaceOnUse" x1="-34.7396" y1="616.7184" x2="-34.7396" y2="572.7184" gradientTransform="matrix(10.6667 0 0 -10.6667 679.8889 6577.4448)">
		<stop  offset="0" style="stop-color:#FFBF3F"/>
		<stop  offset="1" style="stop-color:#FF6A8F"/>
	</linearGradient>
	<rect x="298.667" y="362.667" style="fill:url(#SVGID_13_);" width="21.333" height="21.333"/>
	
		<linearGradient id="SVGID_14_" gradientUnits="userSpaceOnUse" x1="-41.7396" y1="616.7184" x2="-41.7396" y2="572.7184" gradientTransform="matrix(10.6667 0 0 -10.6667 679.8889 6577.4448)">
		<stop  offset="0" style="stop-color:#FFBF3F"/>
		<stop  offset="1" style="stop-color:#FF6A8F"/>
	</linearGradient>
	<rect x="192" y="362.667" style="fill:url(#SVGID_14_);" width="85.333" height="21.333"/>
</g>
<g>
</g>
<g>
</g>
<g>
</g>
<g>
</g>
<g>
</g>
<g>
</g>
<g>
</g>
<g>
</g>
<g>
</g>
<g>
</g>
<g>
</g>
<g>
</g>
<g>
</g>
<g>
</g>
<g>
</g>
</svg>
