<?xml version="1.0" encoding="iso-8859-1"?>
<!-- Generator: Adobe Illustrator 19.0.0, SVG Export Plug-In . SVG Version: 6.00 Build 0)  -->
<svg version="1.1" id="Capa_1" xmlns="http://www.w3.org/2000/svg" xmlns:xlink="http://www.w3.org/1999/xlink" x="0px" y="0px"
	 viewBox="0 0 469.447 469.447" style="enable-background:new 0 0 469.447 469.447;" xml:space="preserve">
<g>
	
		<linearGradient id="SVGID_1_" gradientUnits="userSpaceOnUse" x1="-41.6828" y1="618.166" x2="-41.6828" y2="574.279" gradientTransform="matrix(10.6667 0 0 -10.6667 679.3401 6578.7695)">
		<stop  offset="0" style="stop-color:#FFBF3F"/>
		<stop  offset="1" style="stop-color:#FF6A8F"/>
	</linearGradient>
	<path style="fill:url(#SVGID_1_);" d="M298.723,128.114c-23.723,0-46.688,4.779-68.267,14.208
		c-8.885,3.883-17.269,8.533-25.205,13.739c-14.624-4.309-29.781-6.613-45.195-6.613c-88.224,0-160,71.776-160,160
		s71.776,160,160,160c24.395,0,47.435-5.643,68.139-15.445c22.208,10.112,45.856,15.445,70.528,15.445
		c94.101,0,170.667-76.565,170.667-170.667S392.825,128.114,298.723,128.114z M21.39,309.447
		c0-76.459,62.208-138.667,138.667-138.667c7.968,0,15.851,0.725,23.616,2.048c-6.613,6.048-12.736,12.576-18.293,19.541
		c-1.771-0.075-3.52-0.256-5.323-0.256c-64.693,0-117.333,52.64-117.333,117.333S95.363,426.78,160.057,426.78
		S277.39,374.14,277.39,309.447c0-36.629-17.419-71.147-46.165-93.184c5.739-4.693,11.989-8.757,18.635-12.192
		c31.029,26.432,48.864,64.373,48.864,105.376c0,76.459-62.208,138.667-138.667,138.667S21.39,385.906,21.39,309.447z
		 M150.713,213.916c-14.528,25.333-22.656,54.432-22.656,84.864c0,39.221,13.216,76.277,37.355,106.4
		c-1.781,0.096-3.541,0.267-5.355,0.267c-52.928,0-96-43.072-96-96C64.057,259.666,102.147,218.642,150.713,213.916z
		 M192.057,298.78c0-25.44,8.981-48.811,23.904-67.168c24.853,17.931,40.096,46.923,40.096,77.835
		c0,26.752-11.029,50.965-28.747,68.395C204.867,357.618,192.057,329.33,192.057,298.78z M272.398,195.538
		c8.437-2.155,17.227-3.424,26.325-3.424c58.816,0,106.667,47.851,106.667,106.667s-47.851,106.667-106.667,106.667
		c-3.509,0-6.965-0.373-10.432-0.715c19.861-26.656,31.765-59.563,31.765-95.285C320.057,266.044,302.873,225.49,272.398,195.538z
		 M298.723,448.114c-16.235,0-31.957-2.677-47.04-7.701c7.093-4.981,13.781-10.496,19.968-16.523
		c8.853,1.909,17.931,2.891,27.072,2.891c70.581,0,128-57.419,128-128s-57.419-128-128-128s-128,57.419-128,128
		c0,35.392,14.229,68.331,39.435,92.395c-6.347,3.904-13.152,7.136-20.363,9.493c-26.005-27.744-40.405-63.627-40.405-101.888
		c0-59.392,35.168-113.131,89.6-136.907c18.869-8.245,38.976-12.427,59.733-12.427c82.347,0,149.333,66.987,149.333,149.333
		S381.07,448.114,298.723,448.114z"/>
	
		<linearGradient id="SVGID_2_" gradientUnits="userSpaceOnUse" x1="-42.1661" y1="618.166" x2="-42.1661" y2="574.279" gradientTransform="matrix(10.6667 0 0 -10.6667 679.3401 6578.7695)">
		<stop  offset="0" style="stop-color:#FFBF3F"/>
		<stop  offset="1" style="stop-color:#FF6A8F"/>
	</linearGradient>
	<path style="fill:url(#SVGID_2_);" d="M147.182,59.527l47.989,48.299c2.005,2.005,4.715,3.136,7.552,3.147c0.011,0,0.011,0,0.021,0
		c2.827,0,5.547-1.12,7.541-3.115l19.189-19.179l19.04,19.147c1.995,2.016,4.704,3.147,7.541,3.147c0.011,0,0.011,0,0.021,0
		c2.827,0,5.547-1.12,7.541-3.115l48.331-48.299c0.629-0.629,1.163-1.323,1.611-2.08c8.736-14.656,6.976-33.611-4.277-46.112
		C297.497-1.71,278.798-3.737,264.835,6.524c-0.512,0.384-0.992,0.8-1.429,1.269l-5.557,5.877c-0.608-0.8-1.237-1.568-1.909-2.304
		c-6.805-7.573-16.277-11.616-26.208-11.253c-0.107,0-0.213,0-0.299,0c-9.931-0.331-19.403,3.68-26.219,11.253
		c-0.661,0.736-1.301,1.504-1.909,2.304l-5.557-5.877c-0.448-0.459-0.917-0.885-1.44-1.269
		c-13.984-10.272-32.661-8.235-44.437,4.843c-11.275,12.501-13.035,31.467-4.288,46.112
		C146.041,58.215,146.574,58.908,147.182,59.527z M165.731,25.639c4.171-4.619,10.347-5.557,15.285-2.4l14.144,14.976
		c4.032,4.267,11.488,4.256,15.509,0l2.837-3.008c1.045-1.109,1.845-2.432,2.336-3.872c0.779-2.283,1.856-4.203,3.221-5.707
		c2.613-2.901,6.005-4.373,9.632-4.203c0.277,0.021,0.565,0.032,0.843,0.021c0.021,0,0.011,0,0.075,0
		c0.277,0.011,0.565,0,0.853-0.011c3.541-0.245,7.019,1.301,9.643,4.213c1.355,1.504,2.443,3.424,3.211,5.696
		c0.491,1.44,1.291,2.763,2.336,3.872l2.837,3.008c2.005,2.133,4.821,3.349,7.755,3.349c0.011,0,0.011,0,0.011,0
		c2.933,0,5.739-1.205,7.755-3.339l14.155-14.976c4.96-3.157,11.136-2.219,15.285,2.4c4.661,5.152,5.589,13.504,2.379,19.883
		l-39.701,39.68L237.07,66.044c-2.005-2.016-4.715-3.147-7.552-3.147c-0.011,0-0.011,0-0.021,0c-2.827,0-5.547,1.12-7.541,3.115
		l-19.189,19.179l-39.403-39.659C160.142,39.164,161.081,30.802,165.731,25.639z"/>
</g>
<g>
</g>
<g>
</g>
<g>
</g>
<g>
</g>
<g>
</g>
<g>
</g>
<g>
</g>
<g>
</g>
<g>
</g>
<g>
</g>
<g>
</g>
<g>
</g>
<g>
</g>
<g>
</g>
<g>
</g>
</svg>
