<?xml version="1.0" encoding="iso-8859-1"?>
<!-- Generator: Adobe Illustrator 19.0.0, SVG Export Plug-In . SVG Version: 6.00 Build 0)  -->
<svg version="1.1" id="Capa_1" xmlns="http://www.w3.org/2000/svg" xmlns:xlink="http://www.w3.org/1999/xlink" x="0px" y="0px"
	 viewBox="0 0 469.333 469.333" style="enable-background:new 0 0 469.333 469.333;" xml:space="preserve">
<linearGradient id="SVGID_1_" gradientUnits="userSpaceOnUse" x1="-41.7396" y1="617.1354" x2="-41.7396" y2="572.7404" gradientTransform="matrix(10.6667 0 0 -10.6667 679.8889 6577.4448)">
	<stop  offset="0" style="stop-color:#FFBF3F"/>
	<stop  offset="1" style="stop-color:#FF6A8F"/>
</linearGradient>
<path style="fill:url(#SVGID_1_);" d="M299.029,118.496l29.632-41.152c1.397-1.952,1.995-4.256,1.931-6.56
	c0.075-2.123-0.405-4.256-1.579-6.101L291.083,4.949C289.12,1.867,285.717,0,282.069,0h-4.736H192h-4.736
	c-3.648,0-7.051,1.867-9.003,4.949l-37.931,59.733c-1.173,1.845-1.653,3.979-1.579,6.101c-0.075,2.304,0.523,4.608,1.931,6.56
	l29.632,41.163C99.883,145.088,53.333,211.68,53.333,288c0,99.989,81.344,181.333,181.333,181.333S416,387.989,416,288
	C416,211.68,369.451,145.077,299.029,118.496z M234.667,132.917l-16.971-39.605l15.136,2.517l0,0l0,0l0.096,0.011
	c0.032,0,0.053,0,0.085,0c0.544,0.107,1.099,0.16,1.653,0.16s1.109-0.053,1.664-0.149c0.032,0,0.053,0,0.085,0l0.096-0.011l0,0l0,0
	l15.136-2.517L234.667,132.917z M193.472,89.28l-0.597,0.256l25.173,58.731l-44.917-62.379L193.472,89.28z M234.667,170.667
	C299.36,170.667,352,223.307,352,288s-52.64,117.333-117.333,117.333S117.333,352.693,117.333,288S169.973,170.667,234.667,170.667z
	 M275.861,89.28l20.352-3.392l-44.917,62.379l25.173-58.731L275.861,89.28z M302.443,62.645L255.2,70.912l24.864-43.52
	L302.443,62.645z M258.944,21.333l-24.277,42.496l-24.277-42.496H258.944z M189.28,27.392l24.864,43.52l-47.243-8.267L189.28,27.392
	z M234.667,448c-88.224,0-160-71.776-160-160c0-69.28,43.488-129.44,108.64-151.445l13.152,18.261C138.539,171.456,96,224.8,96,288
	c0,76.459,62.208,138.667,138.667,138.667S373.333,364.459,373.333,288c0-63.2-42.539-116.544-100.448-133.184l13.152-18.261
	C351.179,158.56,394.667,218.72,394.667,288C394.667,376.224,322.891,448,234.667,448z"/>
<g>
</g>
<g>
</g>
<g>
</g>
<g>
</g>
<g>
</g>
<g>
</g>
<g>
</g>
<g>
</g>
<g>
</g>
<g>
</g>
<g>
</g>
<g>
</g>
<g>
</g>
<g>
</g>
<g>
</g>
</svg>
