<?xml version="1.0" encoding="iso-8859-1"?>
<!-- Generator: Adobe Illustrator 19.0.0, SVG Export Plug-In . SVG Version: 6.00 Build 0)  -->
<svg version="1.1" id="Capa_1" xmlns="http://www.w3.org/2000/svg" xmlns:xlink="http://www.w3.org/1999/xlink" x="0px" y="0px"
	 viewBox="0 0 469.333 469.333" style="enable-background:new 0 0 469.333 469.333;" xml:space="preserve">
<g>
	
		<linearGradient id="SVGID_1_" gradientUnits="userSpaceOnUse" x1="-41.7396" y1="616.2184" x2="-41.7396" y2="573.0514" gradientTransform="matrix(10.6667 0 0 -10.6667 679.8889 6577.4448)">
		<stop  offset="0" style="stop-color:#FFBF3F"/>
		<stop  offset="1" style="stop-color:#FF6A8F"/>
	</linearGradient>
	<path style="fill:url(#SVGID_1_);" d="M448,407.296v-97.963c0-17.643-14.357-32-32-32h-10.667v-96c0-17.643-14.357-32-32-32h-43.68
		l-9.707-97.067c-0.256-2.571-1.461-4.8-3.189-6.496C318.773,41.589,320,36.949,320,32c0-17.643-14.357-32-32-32
		c-17.643,0-32,14.357-32,32c0,4.949,1.227,9.589,3.243,13.771c-1.728,1.696-2.933,3.925-3.189,6.496l-9.707,97.067H224V74.667
		c0-11.36-5.995-21.301-14.944-26.976c2.645-4.661,4.277-9.963,4.277-15.691c0-17.643-14.357-32-32-32s-32,14.357-32,32
		c0,5.728,1.632,11.029,4.277,15.691c-8.949,5.675-14.944,15.616-14.944,26.976v74.667H96c-17.643,0-32,14.357-32,32v96H53.333
		c-17.643,0-32,14.357-32,32v97.963C8.949,411.712,0,423.445,0,437.333v21.333c0,5.888,4.779,10.667,10.667,10.667h448
		c5.888,0,10.667-4.779,10.667-10.667v-21.333C469.333,423.445,460.384,411.712,448,407.296z M426.667,309.333v96h-64
		c-47.285,0-89.611-28.32-107.925-71.285c7.211-5.867,11.925-14.709,11.925-24.715c0-3.755-0.768-7.317-1.963-10.667H416
		C421.877,298.667,426.667,303.456,426.667,309.333z M245.333,266.667c0-13.909,8.917-25.771,21.333-30.176v40.843h-21.333V266.667z
		 M224,277.333h-21.333v-40.843C215.083,240.896,224,252.757,224,266.667V277.333z M245.333,309.333
		c0,5.877-4.789,10.667-10.667,10.667S224,315.211,224,309.333s4.789-10.667,10.667-10.667S245.333,303.456,245.333,309.333z
		 M234.667,341.333c0.011,0,0.021,0,0.032,0c11.211,26.923,30.357,49.035,54.165,64H180.469c23.808-14.965,42.955-37.077,54.165-64
		C234.645,341.333,234.656,341.333,234.667,341.333z M362.667,277.333v-10.667c0-13.909,8.917-25.771,21.333-30.176v40.843H362.667z
		 M299.68,64l0.224,2.261c-0.341,4.299-3.2,23.627-26.677,28.576L276.32,64H299.68z M288,21.333c5.877,0,10.667,4.789,10.667,10.667
		S293.877,42.667,288,42.667c-5.877,0-10.667-4.789-10.667-10.667S282.123,21.333,288,21.333z M271.04,116.747
		c14.357-1.632,24.928-6.805,32.555-13.525l4.619,46.112h-40.427L271.04,116.747z M181.333,21.333C187.211,21.333,192,26.123,192,32
		s-4.789,10.667-10.667,10.667c-5.877,0-10.667-4.789-10.667-10.667S175.456,21.333,181.333,21.333z M160,74.667
		C160,68.789,164.789,64,170.667,64H192c5.877,0,10.667,4.789,10.667,10.667v74.667H192v-42.667h-21.333v42.667H160V74.667z
		 M96,170.667h277.333c5.877,0,10.667,4.789,10.667,10.667v33.077c-24.309,4.96-42.667,26.496-42.667,52.256v10.667H288V224
		c0-5.888-4.779-10.667-10.667-10.667c-17.504,0-32.939,8.597-42.667,21.664c-9.728-13.067-25.163-21.664-42.667-21.664
		c-5.888,0-10.667,4.779-10.667,10.667v53.333H128v-10.667c0-25.749-18.357-47.296-42.667-52.256v-33.077
		C85.333,175.456,90.123,170.667,96,170.667z M85.333,236.491c12.416,4.405,21.333,16.267,21.333,30.176v10.667H85.333V236.491z
		 M42.667,309.333c0-5.877,4.789-10.667,10.667-10.667h151.296c-1.195,3.349-1.963,6.912-1.963,10.667
		c0,10.005,4.715,18.848,11.925,24.715c-18.315,42.965-60.64,71.285-107.925,71.285h-64V309.333z M448,448H21.333v-10.667
		c0-5.877,4.789-10.667,10.667-10.667h405.333c5.877,0,10.667,4.789,10.667,10.667V448z"/>
	
		<linearGradient id="SVGID_2_" gradientUnits="userSpaceOnUse" x1="-52.7396" y1="616.2184" x2="-52.7396" y2="573.0514" gradientTransform="matrix(10.6667 0 0 -10.6667 679.8889 6577.4448)">
		<stop  offset="0" style="stop-color:#FFBF3F"/>
		<stop  offset="1" style="stop-color:#FF6A8F"/>
	</linearGradient>
	<path style="fill:url(#SVGID_2_);" d="M149.333,352v-21.333c0-5.888-4.779-10.667-10.667-10.667h-21.333c-17.643,0-32,14.357-32,32
		v21.333C85.333,379.221,90.112,384,96,384h21.333C134.976,384,149.333,369.643,149.333,352z M106.667,352
		c0-5.877,4.789-10.667,10.667-10.667H128V352c0,5.877-4.789,10.667-10.667,10.667h-10.667V352z"/>
	
		<linearGradient id="SVGID_3_" gradientUnits="userSpaceOnUse" x1="-30.7396" y1="616.2184" x2="-30.7396" y2="573.0514" gradientTransform="matrix(10.6667 0 0 -10.6667 679.8889 6577.4448)">
		<stop  offset="0" style="stop-color:#FFBF3F"/>
		<stop  offset="1" style="stop-color:#FF6A8F"/>
	</linearGradient>
	<path style="fill:url(#SVGID_3_);" d="M352,320h-21.333c-5.888,0-10.667,4.779-10.667,10.667V352c0,17.643,14.357,32,32,32h21.333
		c5.888,0,10.667-4.779,10.667-10.667V352C384,334.357,369.643,320,352,320z M362.667,362.667H352
		c-5.877,0-10.667-4.789-10.667-10.667v-10.667H352c5.877,0,10.667,4.789,10.667,10.667V362.667z"/>
</g>
<g>
</g>
<g>
</g>
<g>
</g>
<g>
</g>
<g>
</g>
<g>
</g>
<g>
</g>
<g>
</g>
<g>
</g>
<g>
</g>
<g>
</g>
<g>
</g>
<g>
</g>
<g>
</g>
<g>
</g>
</svg>
