<?xml version="1.0" encoding="iso-8859-1"?>
<!-- Generator: Adobe Illustrator 19.0.0, SVG Export Plug-In . SVG Version: 6.00 Build 0)  -->
<svg version="1.1" id="Capa_1" xmlns="http://www.w3.org/2000/svg" xmlns:xlink="http://www.w3.org/1999/xlink" x="0px" y="0px"
	 viewBox="0 0 469.414 469.414" style="enable-background:new 0 0 469.414 469.414;" xml:space="preserve">
<linearGradient id="SVGID_1_" gradientUnits="userSpaceOnUse" x1="-41.6991" y1="616.9663" x2="-41.6991" y2="572.9587" gradientTransform="matrix(10.6667 0 0 -10.6667 679.498 6578.3882)">
	<stop  offset="0" style="stop-color:#FFBF3F"/>
	<stop  offset="1" style="stop-color:#FF6A8F"/>
</linearGradient>
<path style="fill:url(#SVGID_1_);" d="M469.374,309.414v-21.333c0-5.899-4.768-10.667-10.667-10.667H448.04v-81.568
	c0-11.424-1.184-22.475-3.189-33.12c-0.565-3.04-1.12-6.08-1.835-9.045c-0.117-0.469-0.267-0.917-0.384-1.376
	c-7.744-30.891-23.488-56.853-44.011-74.453c-0.053-0.053-0.107-0.096-0.171-0.149c-2.816-2.4-5.717-4.64-8.704-6.72
	c-0.267-0.192-0.533-0.384-0.811-0.565c-2.763-1.877-5.589-3.605-8.48-5.195c-0.512-0.277-1.003-0.576-1.515-0.853
	c-2.667-1.408-5.387-2.656-8.16-3.797c-0.747-0.309-1.472-0.661-2.229-0.949c-2.592-1.003-5.237-1.824-7.904-2.581
	c-0.928-0.267-1.835-0.597-2.773-0.832c-2.645-0.672-5.344-1.141-8.053-1.568c-0.96-0.149-1.899-0.395-2.859-0.512
	c-3.659-0.459-7.36-0.715-11.115-0.715h-8.715c6.4-13.995,3.851-31.051-6.955-42.293c-12.288-12.768-31.723-14.784-46.176-4.789
	c-0.523,0.352-1.013,0.757-1.461,1.205l-6.891,6.827c-0.864-1.131-1.781-2.219-2.773-3.232
	c-7.157-7.467-17.152-11.467-27.392-11.051c-0.075,0-0.139-0.021-0.235,0c-10.155-0.373-20.181,3.595-27.349,11.029
	c-0.992,1.035-1.92,2.112-2.773,3.253l-6.891-6.827c-0.448-0.448-0.939-0.853-1.461-1.205c-14.475-9.995-33.899-7.957-46.176,4.789
	c-10.784,11.243-13.333,28.299-6.933,42.293h-10.112c-3.755,0-7.456,0.256-11.115,0.715c-0.96,0.117-1.888,0.363-2.837,0.512
	c-2.72,0.427-5.419,0.896-8.085,1.568c-0.928,0.235-1.824,0.565-2.741,0.821c-2.677,0.768-5.333,1.589-7.936,2.592
	c-0.747,0.299-1.461,0.64-2.187,0.939c-2.784,1.152-5.515,2.4-8.203,3.819c-0.491,0.267-0.981,0.555-1.472,0.821
	c-2.912,1.6-5.76,3.328-8.533,5.227c-0.256,0.171-0.501,0.352-0.747,0.523c-3.019,2.101-5.941,4.363-8.779,6.784
	c-0.032,0.032-0.064,0.053-0.096,0.085c-20.672,17.707-36.512,43.893-44.213,75.061c-0.064,0.245-0.149,0.491-0.203,0.736
	c-0.843,3.499-1.536,7.083-2.165,10.688c-0.896,5.035-1.621,10.144-2.091,15.371c-0.021,0.203-0.053,0.395-0.075,0.597
	c0,0,0,0,0,0.011c-0.437,5.109-0.704,10.293-0.704,15.563v81.568H10.707c-5.888,0-10.667,4.768-10.667,10.667v21.333
	c0,15.36,10.88,28.203,25.344,31.285l-13.44,107.381H0.04v21.333h469.333v-21.333h-11.915L444.04,340.7
	C458.494,337.617,469.374,324.774,469.374,309.414z M448.04,309.414c0,5.888-4.779,10.667-10.667,10.667h-5.333h-5.333v-10.667
	c0-5.888,4.779-10.667,10.667-10.667h10.667V309.414z M42.707,195.846c0-1.355,0.117-2.677,0.149-4.032
	c42.037-1.707,79.093-22.656,102.293-54.635c-16.192,128.128-73.568,140.245-74.101,140.352l0.043,0.245
	c-6.784,0.779-12.896,3.616-17.717,7.957c-3.083-2.784-6.677-4.939-10.667-6.357V195.846z M64.04,309.414
	c0-5.888,4.789-10.667,10.667-10.667h10.667v10.667c0,5.888-4.789,10.667-10.667,10.667h-5.269c-0.021,0-0.032-0.011-0.053-0.011
	H64.04V309.414z M81.374,340.689c14.453-3.072,25.333-15.915,25.333-31.275v-21.333c0-2.016-0.704-3.787-1.675-5.387
	c27.04-22.325,62.432-75.499,65.44-201.237l28.789,27.147c4.096,3.861,10.496,3.883,14.613,0.021l21.429-20.064l21.248,20.043
	c2.059,1.941,4.683,2.901,7.328,2.901c2.613,0,5.237-0.96,7.296-2.891l27.797-26.027c3.189,124.949,38.464,177.845,65.419,200.096
	c-0.981,1.611-1.685,3.381-1.685,5.397v21.333c0,15.36,10.88,28.203,25.344,31.285l-13.44,107.381H94.792L81.374,340.689z
	 M426.707,195.846v83.541c-3.989,1.419-7.584,3.584-10.667,6.357c-4.821-4.341-10.933-7.179-17.717-7.957l0.043-0.256
	c-0.672-0.096-57.867-12.779-74.08-140.309c23.211,31.957,60.245,52.896,102.272,54.592
	C426.59,193.158,426.707,194.481,426.707,195.846z M400.04,320.081h-5.333c-5.888,0-10.667-4.779-10.667-10.667v-10.667h10.667
	c5.888,0,10.667,4.779,10.667,10.667v10.667H400.04z M344.574,75.334c0.896,0.117,1.781,0.32,2.677,0.469
	c1.973,0.331,3.947,0.704,5.877,1.195c0.981,0.256,1.941,0.565,2.901,0.853c1.856,0.565,3.691,1.173,5.493,1.888
	c0.907,0.352,1.803,0.736,2.688,1.12c1.899,0.832,3.765,1.749,5.611,2.741c0.725,0.395,1.451,0.768,2.165,1.184
	c2.133,1.237,4.213,2.581,6.261,4.021c0.373,0.267,0.768,0.512,1.141,0.779c7.584,5.547,14.528,12.491,20.608,20.576
	c0.075,0.096,0.139,0.203,0.213,0.299c1.877,2.517,3.669,5.152,5.376,7.872c0.277,0.448,0.544,0.907,0.821,1.355
	c1.461,2.4,2.848,4.885,4.171,7.435c0.363,0.693,0.715,1.387,1.067,2.091c1.163,2.336,2.24,4.747,3.285,7.2
	c0.395,0.928,0.8,1.845,1.173,2.784c0.896,2.251,1.707,4.565,2.496,6.891c0.395,1.173,0.832,2.325,1.195,3.52
	c0.64,2.048,1.163,4.16,1.717,6.251c1.237,4.747,2.347,9.6,3.147,14.613c-52.949-3.392-95.925-43.477-103.339-95.723h14.528
	C338.792,74.748,341.704,74.972,344.574,75.334z M166.003,25.916c4.885-5.077,12.171-6.027,18.005-2.464l15.253,15.125
	c4.16,4.128,10.869,4.128,15.029,0l3.051-3.029c1.109-1.109,1.973-2.443,2.507-3.925c0.821-2.272,1.984-4.181,3.445-5.696
	c3.008-3.125,6.88-4.928,11.253-4.512c0.181-0.011,0.608,0,0.96,0c0.224-0.011,0.512,0,0.768-0.011
	c4.245-0.416,8.235,1.387,11.264,4.523c1.451,1.515,2.603,3.424,3.445,5.717c0.533,1.461,1.376,2.784,2.475,3.872l3.04,3.029
	c4.16,4.149,10.88,4.16,15.04,0.021l15.264-15.125c5.803-3.584,13.109-2.613,18.005,2.464c4.992,5.184,5.995,13.237,2.56,19.573
	L263.88,86.193L242.632,66.15c-4.096-3.861-10.496-3.883-14.613-0.021L206.59,86.193l-43.157-40.704
	C160.008,39.164,161.011,31.1,166.003,25.916z M148.083,74.748c-7.413,52.245-50.379,92.331-103.339,95.765
	c0.811-5.067,1.92-9.963,3.189-14.763c0.533-2.037,1.056-4.085,1.675-6.069c0.384-1.248,0.832-2.443,1.248-3.659
	c0.779-2.272,1.557-4.533,2.432-6.731c0.395-0.992,0.821-1.963,1.237-2.944c1.013-2.389,2.08-4.747,3.211-7.029
	c0.373-0.747,0.747-1.493,1.131-2.229c1.301-2.496,2.656-4.928,4.085-7.285c0.299-0.501,0.597-1.003,0.907-1.493
	c1.664-2.667,3.413-5.237,5.248-7.691c0.117-0.16,0.224-0.32,0.341-0.469c6.069-8.064,12.981-14.976,20.544-20.512
	c0.405-0.299,0.821-0.555,1.237-0.843c2.016-1.419,4.075-2.752,6.165-3.968c0.736-0.427,1.472-0.811,2.219-1.216
	c1.824-0.981,3.68-1.888,5.568-2.72c0.907-0.395,1.803-0.779,2.72-1.141c1.803-0.704,3.627-1.323,5.472-1.877
	c0.971-0.299,1.941-0.608,2.923-0.864c1.931-0.501,3.893-0.864,5.867-1.195c0.896-0.149,1.781-0.352,2.688-0.469
	c2.859-0.373,5.76-0.597,8.704-0.597H148.083z M21.374,309.414v-10.667H32.04c5.877,0,10.667,4.779,10.667,10.667v10.656h-5.333
	c-0.021,0-0.032,0.011-0.053,0.011h-5.28C26.163,320.081,21.374,315.302,21.374,309.414z M33.448,448.081l13.344-106.667h6.581
	h6.592l13.333,106.667H33.448z M396.115,448.081l13.344-106.667h6.581h6.581l13.333,106.667H396.115z"/>
<g>
</g>
<g>
</g>
<g>
</g>
<g>
</g>
<g>
</g>
<g>
</g>
<g>
</g>
<g>
</g>
<g>
</g>
<g>
</g>
<g>
</g>
<g>
</g>
<g>
</g>
<g>
</g>
<g>
</g>
</svg>
