<?xml version="1.0" encoding="iso-8859-1"?>
<!-- Generator: Adobe Illustrator 19.0.0, SVG Export Plug-In . SVG Version: 6.00 Build 0)  -->
<svg version="1.1" id="Capa_1" xmlns="http://www.w3.org/2000/svg" xmlns:xlink="http://www.w3.org/1999/xlink" x="0px" y="0px"
	 viewBox="0 0 469.333 469.333" style="enable-background:new 0 0 469.333 469.333;" xml:space="preserve">
<g>
	
		<linearGradient id="SVGID_1_" gradientUnits="userSpaceOnUse" x1="-41.7396" y1="616.5524" x2="-41.7396" y2="572.6254" gradientTransform="matrix(10.6667 0 0 -10.6667 679.8889 6577.4448)">
		<stop  offset="0" style="stop-color:#FFBF3F"/>
		<stop  offset="1" style="stop-color:#FF6A8F"/>
	</linearGradient>
	<path style="fill:url(#SVGID_1_);" d="M416,64h-43.84c13.867-13.568,22.507-32.448,22.507-53.333C394.667,4.779,389.888,0,384,0
		h-96c-22.251,0-41.856,11.424-53.333,28.693C223.189,11.424,203.584,0,181.333,0h-96c-5.888,0-10.667,4.779-10.667,10.667
		c0,20.885,8.64,39.765,22.507,53.333h-43.84c-5.888,0-10.667,4.779-10.667,10.667v106.667c0,5.888,4.779,10.667,10.667,10.667H64
		v266.667c0,5.888,4.779,10.667,10.667,10.667h320c5.888,0,10.667-4.779,10.667-10.667V192H416c5.888,0,10.667-4.779,10.667-10.667
		V74.667C426.667,68.779,421.888,64,416,64z M288,21.333h84.256C367.307,45.643,345.76,64,320,64h-74.667
		C245.333,40.469,264.469,21.333,288,21.333z M256,170.667h-42.667V85.333H256V170.667z M97.077,21.333h84.256
		C204.864,21.333,224,40.469,224,64h-74.667C123.573,64,102.027,45.643,97.077,21.333z M64,85.333h128v85.333H64V85.333z M384,448
		h-96v-53.333h-21.333V448h-64v-53.333h-21.333V448h-96V192h96v21.333h21.333V192h64v21.333H288V192h96V448z M405.333,170.667h-128
		V85.333h128V170.667z"/>
	
		<linearGradient id="SVGID_2_" gradientUnits="userSpaceOnUse" x1="-41.7222" y1="616.5524" x2="-41.7222" y2="572.6254" gradientTransform="matrix(10.6667 0 0 -10.6667 679.8889 6577.4448)">
		<stop  offset="0" style="stop-color:#FFBF3F"/>
		<stop  offset="1" style="stop-color:#FF6A8F"/>
	</linearGradient>
	<path style="fill:url(#SVGID_2_);" d="M249.835,243.04c-0.512,0.384-0.992,0.8-1.44,1.269l-13.547,14.336l-13.547-14.336
		c-0.448-0.469-0.917-0.885-1.44-1.269c-18.016-13.259-42.155-10.613-57.376,6.283c-14.528,16.128-16.885,41.557-5.6,60.469
		c0.448,0.747,0.981,1.429,1.589,2.048l14.347,14.432c-1.792,9.28-0.352,19.2,4.704,27.68c0.448,0.747,0.981,1.429,1.589,2.048
		l47.989,48.299c2.016,2.037,4.725,3.168,7.563,3.168c0.011,0,0.011,0,0.021,0c2.827,0,5.547-1.12,7.541-3.115l48.331-48.299
		c0.619-0.629,1.163-1.323,1.611-2.08c5.077-8.512,6.507-18.453,4.693-27.765l14.336-14.325c0.619-0.629,1.163-1.323,1.611-2.08
		c11.296-18.912,8.939-44.341-5.589-60.469C292,232.437,267.872,229.792,249.835,243.04z M274.421,342.016l-39.701,39.68
		l-39.413-39.669c-3.221-6.368-2.283-14.731,2.368-19.893c4.171-4.608,10.368-5.557,15.285-2.4l14.155,14.976
		c4.032,4.277,11.488,4.267,15.509,0l14.144-14.976c4.949-3.157,11.115-2.219,15.285,2.4
		C276.683,327.296,277.632,335.637,274.421,342.016z M295.104,297.803l-8.693,8.683c-11.829-11.733-29.547-13.344-42.965-3.467
		c-0.512,0.384-1.003,0.8-1.44,1.269l-7.147,7.573l-7.157-7.573c-0.448-0.469-0.917-0.885-1.44-1.269
		c-13.44-9.888-31.179-8.256-42.997,3.499l-8.651-8.704c-5.931-10.955-4.437-25.152,3.723-34.208
		c7.648-8.501,19.125-10.027,28.192-3.883l20.576,21.781c4.032,4.277,11.488,4.267,15.509,0l20.576-21.781
		c9.067-6.133,20.533-4.619,28.192,3.883C299.531,272.661,301.024,286.859,295.104,297.803z"/>
</g>
<g>
</g>
<g>
</g>
<g>
</g>
<g>
</g>
<g>
</g>
<g>
</g>
<g>
</g>
<g>
</g>
<g>
</g>
<g>
</g>
<g>
</g>
<g>
</g>
<g>
</g>
<g>
</g>
<g>
</g>
</svg>
