<?xml version="1.0" encoding="iso-8859-1"?>
<!-- Generator: Adobe Illustrator 19.0.0, SVG Export Plug-In . SVG Version: 6.00 Build 0)  -->
<svg version="1.1" id="Capa_1" xmlns="http://www.w3.org/2000/svg" xmlns:xlink="http://www.w3.org/1999/xlink" x="0px" y="0px"
	 viewBox="0 0 469.333 469.333" style="enable-background:new 0 0 469.333 469.333;" xml:space="preserve">
<g>
	
		<linearGradient id="SVGID_1_" gradientUnits="userSpaceOnUse" x1="-41.7215" y1="616.5524" x2="-41.7215" y2="572.8354" gradientTransform="matrix(10.6667 0 0 -10.6667 679.8889 6577.4448)">
		<stop  offset="0" style="stop-color:#FFBF3F"/>
		<stop  offset="1" style="stop-color:#FF6A8F"/>
	</linearGradient>
	<path style="fill:url(#SVGID_1_);" d="M179.125,366.688l47.989,48.299c2.005,2.016,4.715,3.147,7.552,3.147
		c0.011,0,0.011,0,0.021,0c2.827,0,5.547-1.12,7.541-3.125l48.331-48.299c0.619-0.619,1.163-1.312,1.611-2.069
		c8.747-14.645,6.987-33.6-4.277-46.101c-11.787-13.088-30.475-15.136-44.448-4.843c-0.512,0.384-0.992,0.8-1.429,1.269
		l-7.147,7.573l-7.157-7.573c-0.448-0.469-0.917-0.896-1.429-1.269c-13.984-10.293-32.672-8.235-44.448,4.832
		c-11.275,12.512-13.035,31.467-4.288,46.112C177.984,365.387,178.517,366.069,179.125,366.688z M197.675,332.8
		c4.171-4.629,10.347-5.557,15.275-2.4l14.155,14.976c4.032,4.277,11.477,4.256,15.509,0l14.144-14.976
		c4.928-3.157,11.104-2.229,15.275,2.4v0.011c4.651,5.152,5.589,13.504,2.379,19.861l-39.701,39.691l-39.413-39.669
		C192.075,346.325,193.024,337.973,197.675,332.8z"/>
	
		<linearGradient id="SVGID_2_" gradientUnits="userSpaceOnUse" x1="-41.7396" y1="616.5524" x2="-41.7396" y2="572.8354" gradientTransform="matrix(10.6667 0 0 -10.6667 679.8889 6577.4448)">
		<stop  offset="0" style="stop-color:#FFBF3F"/>
		<stop  offset="1" style="stop-color:#FF6A8F"/>
	</linearGradient>
	<path style="fill:url(#SVGID_2_);" d="M448,0H21.333C9.568,0,0,9.568,0,21.333v256c0,11.765,9.568,21.333,21.333,21.333V320
		c0,11.765,9.568,21.333,21.333,21.333h64v117.333c0,5.899,4.779,10.667,10.667,10.667H352c5.888,0,10.667-4.768,10.667-10.667
		V341.333h64c11.765,0,21.333-9.568,21.333-21.333v-21.333c11.765,0,21.333-9.568,21.333-21.333v-256C469.333,9.568,459.765,0,448,0
		z M42.667,320v-21.333h64V320H42.667z M341.333,448H128V277.333h213.333V448z M426.667,320h-64v-21.333h64V320z M448,277.333
		h-85.333v-10.667c0-5.899-4.779-10.667-10.667-10.667H117.333c-5.888,0-10.667,4.768-10.667,10.667v10.667H21.333v-256H448V277.333
		z"/>
	
		<linearGradient id="SVGID_3_" gradientUnits="userSpaceOnUse" x1="-41.7396" y1="616.5524" x2="-41.7396" y2="572.8354" gradientTransform="matrix(10.6667 0 0 -10.6667 679.8889 6577.4448)">
		<stop  offset="0" style="stop-color:#FFBF3F"/>
		<stop  offset="1" style="stop-color:#FF6A8F"/>
	</linearGradient>
	<path style="fill:url(#SVGID_3_);" d="M234.667,234.667c52.928,0,96-43.061,96-96s-43.072-96-96-96s-96,43.061-96,96
		S181.739,234.667,234.667,234.667z M234.667,64c41.173,0,74.667,33.504,74.667,74.667s-33.493,74.667-74.667,74.667
		S160,179.829,160,138.667S193.493,64,234.667,64z"/>
	
		<linearGradient id="SVGID_4_" gradientUnits="userSpaceOnUse" x1="-41.7396" y1="616.5524" x2="-41.7396" y2="572.8354" gradientTransform="matrix(10.6667 0 0 -10.6667 679.8889 6577.4448)">
		<stop  offset="0" style="stop-color:#FFBF3F"/>
		<stop  offset="1" style="stop-color:#FF6A8F"/>
	</linearGradient>
	<path style="fill:url(#SVGID_4_);" d="M234.667,192C264.075,192,288,168.075,288,138.667h-21.333c0,17.643-14.357,32-32,32
		s-32-14.357-32-32s14.357-32,32-32V85.333c-29.408,0-53.333,23.925-53.333,53.333S205.259,192,234.667,192z"/>
	
		<linearGradient id="SVGID_5_" gradientUnits="userSpaceOnUse" x1="-56.7396" y1="616.5524" x2="-56.7396" y2="572.8354" gradientTransform="matrix(10.6667 0 0 -10.6667 679.8889 6577.4448)">
		<stop  offset="0" style="stop-color:#FFBF3F"/>
		<stop  offset="1" style="stop-color:#FF6A8F"/>
	</linearGradient>
	<path style="fill:url(#SVGID_5_);" d="M53.333,170.667h21.333c17.643,0,32-14.357,32-32V53.333c0-5.899-4.779-10.667-10.667-10.667
		H74.667c-17.643,0-32,14.357-32,32V160C42.667,165.899,47.445,170.667,53.333,170.667z M85.333,138.667
		c0,5.888-4.789,10.667-10.667,10.667H64v-42.667h21.333V138.667z M64,74.667C64,68.779,68.789,64,74.667,64h10.667v21.333H64
		V74.667z"/>
	
		<linearGradient id="SVGID_6_" gradientUnits="userSpaceOnUse" x1="-56.7396" y1="616.5524" x2="-56.7396" y2="572.8354" gradientTransform="matrix(10.6667 0 0 -10.6667 679.8889 6577.4448)">
		<stop  offset="0" style="stop-color:#FFBF3F"/>
		<stop  offset="1" style="stop-color:#FF6A8F"/>
	</linearGradient>
	<path style="fill:url(#SVGID_6_);" d="M74.667,256c17.643,0,32-14.357,32-32s-14.357-32-32-32s-32,14.357-32,32
		S57.024,256,74.667,256z M74.667,213.333c5.877,0,10.667,4.779,10.667,10.667s-4.789,10.667-10.667,10.667
		C68.789,234.667,64,229.888,64,224S68.789,213.333,74.667,213.333z"/>
	
		<linearGradient id="SVGID_7_" gradientUnits="userSpaceOnUse" x1="-50.7396" y1="616.5524" x2="-50.7396" y2="572.8354" gradientTransform="matrix(10.6667 0 0 -10.6667 679.8889 6577.4448)">
		<stop  offset="0" style="stop-color:#FFBF3F"/>
		<stop  offset="1" style="stop-color:#FF6A8F"/>
	</linearGradient>
	<rect x="128" y="42.667" style="fill:url(#SVGID_7_);" width="21.333" height="21.333"/>
	
		<linearGradient id="SVGID_8_" gradientUnits="userSpaceOnUse" x1="-27.7396" y1="616.5524" x2="-27.7396" y2="572.8354" gradientTransform="matrix(10.6667 0 0 -10.6667 679.8889 6577.4448)">
		<stop  offset="0" style="stop-color:#FFBF3F"/>
		<stop  offset="1" style="stop-color:#FF6A8F"/>
	</linearGradient>
	<path style="fill:url(#SVGID_8_);" d="M373.333,138.667H416c5.888,0,10.667-4.768,10.667-10.667V74.667c0-17.643-14.357-32-32-32
		H352c-5.888,0-10.667,4.768-10.667,10.667v53.333C341.333,124.309,355.691,138.667,373.333,138.667z M362.667,64h32
		c5.877,0,10.667,4.779,10.667,10.667v42.667h-32c-5.877,0-10.667-4.779-10.667-10.667V64z"/>
	
		<linearGradient id="SVGID_9_" gradientUnits="userSpaceOnUse" x1="-25.7396" y1="616.5524" x2="-25.7396" y2="572.8354" gradientTransform="matrix(10.6667 0 0 -10.6667 679.8889 6577.4448)">
		<stop  offset="0" style="stop-color:#FFBF3F"/>
		<stop  offset="1" style="stop-color:#FF6A8F"/>
	</linearGradient>
	<rect x="384" y="160" style="fill:url(#SVGID_9_);" width="42.667" height="21.333"/>
	
		<linearGradient id="SVGID_10_" gradientUnits="userSpaceOnUse" x1="-26.7396" y1="616.5524" x2="-26.7396" y2="572.8354" gradientTransform="matrix(10.6667 0 0 -10.6667 679.8889 6577.4448)">
		<stop  offset="0" style="stop-color:#FFBF3F"/>
		<stop  offset="1" style="stop-color:#FF6A8F"/>
	</linearGradient>
	<rect x="362.667" y="202.667" style="fill:url(#SVGID_10_);" width="64" height="21.333"/>
	
		<linearGradient id="SVGID_11_" gradientUnits="userSpaceOnUse" x1="-38.7396" y1="616.5524" x2="-38.7396" y2="572.8354" gradientTransform="matrix(10.6667 0 0 -10.6667 679.8889 6577.4448)">
		<stop  offset="0" style="stop-color:#FFBF3F"/>
		<stop  offset="1" style="stop-color:#FF6A8F"/>
	</linearGradient>
	<rect x="256" y="96" style="fill:url(#SVGID_11_);" width="21.333" height="21.333"/>
</g>
<g>
</g>
<g>
</g>
<g>
</g>
<g>
</g>
<g>
</g>
<g>
</g>
<g>
</g>
<g>
</g>
<g>
</g>
<g>
</g>
<g>
</g>
<g>
</g>
<g>
</g>
<g>
</g>
<g>
</g>
</svg>
