<?xml version="1.0" encoding="iso-8859-1"?>
<!-- Generator: Adobe Illustrator 19.0.0, SVG Export Plug-In . SVG Version: 6.00 Build 0)  -->
<svg version="1.1" id="Capa_1" xmlns="http://www.w3.org/2000/svg" xmlns:xlink="http://www.w3.org/1999/xlink" x="0px" y="0px"
	 viewBox="0 0 469.333 469.333" style="enable-background:new 0 0 469.333 469.333;" xml:space="preserve">
<g>
	
		<linearGradient id="SVGID_1_" gradientUnits="userSpaceOnUse" x1="-41.7396" y1="616.6354" x2="-41.7396" y2="572.7094" gradientTransform="matrix(10.6667 0 0 -10.6667 679.8889 6577.4448)">
		<stop  offset="0" style="stop-color:#FFBF3F"/>
		<stop  offset="1" style="stop-color:#FF6A8F"/>
	</linearGradient>
	<path style="fill:url(#SVGID_1_);" d="M444.875,140.821l-31.029-31.029c-2.005-2.005-4.715-3.125-7.541-3.125h-43.637V21.333
		C362.667,9.568,353.099,0,341.333,0H128c-11.765,0-21.333,9.568-21.333,21.333v21.333h-32c-29.408,0-53.333,23.925-53.333,53.333
		v96c0,29.408,23.925,53.333,53.333,53.333v29.333c0,5.28,3.851,9.739,9.045,10.539l-5.92,5.92
		c-2.005,1.995-3.125,4.704-3.125,7.541v24c0,4.448,2.763,8.427,6.912,9.995l3.104,1.152l-5.749,4.32
		c-2.688,2.016-4.267,5.184-4.267,8.533v40c0,4.448,2.763,8.427,6.912,9.995l3.104,1.152l-5.749,4.32
		c-2.688,2.016-4.267,5.184-4.267,8.533v16c0,2.101,0.629,4.171,1.792,5.92l21.333,32c1.984,2.965,5.312,4.747,8.875,4.747h32
		c4.224,0,8.032-2.475,9.749-6.336l10.667-24c0.608-1.365,0.917-2.837,0.917-4.331V245.333c29.408,0,53.333-23.925,53.333-53.333V96
		c0-29.408-23.925-53.333-53.333-53.333h-32V21.333h213.333v85.333h-43.637c-2.837,0-5.547,1.12-7.541,3.125l-31.029,31.029
		c-2.005,2.005-3.125,4.715-3.125,7.541V448c0,11.765,9.568,21.333,21.333,21.333h149.333c11.765,0,21.333-9.568,21.333-21.333
		V148.363C448,145.536,446.88,142.827,444.875,140.821z M138.667,432.405L131.744,448h-19.36L96,423.435V416l17.067-12.8
		c3.125-2.336,4.715-6.187,4.171-10.037c-0.555-3.861-3.168-7.104-6.816-8.48L96,379.275V352l17.067-12.8
		c3.125-2.336,4.715-6.187,4.171-10.037c-0.555-3.861-3.168-7.104-6.816-8.48L96,315.275v-12.192l18.208-18.208
		c2.891-2.88,3.861-7.147,2.549-10.997c-1.323-3.851-4.725-6.624-8.768-7.125L96,265.248v-19.915h42.667V432.405z M160,64
		c17.643,0,32,14.357,32,32v96c0,17.643-14.357,32-32,32H74.667c-17.643,0-32-14.357-32-32V96c0-17.643,14.357-32,32-32H160z
		 M426.667,448H277.333V152.779L302.112,128h99.776l24.779,24.779V448z"/>
	
		<linearGradient id="SVGID_2_" gradientUnits="userSpaceOnUse" x1="-30.7396" y1="616.6354" x2="-30.7396" y2="572.7094" gradientTransform="matrix(10.6667 0 0 -10.6667 679.8889 6577.4448)">
		<stop  offset="0" style="stop-color:#FFBF3F"/>
		<stop  offset="1" style="stop-color:#FF6A8F"/>
	</linearGradient>
	<path style="fill:url(#SVGID_2_);" d="M352,224c17.643,0,32-14.357,32-32s-14.357-32-32-32c-17.643,0-32,14.357-32,32
		S334.357,224,352,224z M352,181.333c5.888,0,10.667,4.779,10.667,10.667s-4.779,10.667-10.667,10.667
		c-5.888,0-10.667-4.779-10.667-10.667S346.112,181.333,352,181.333z"/>
	
		<linearGradient id="SVGID_3_" gradientUnits="userSpaceOnUse" x1="-30.7396" y1="616.6354" x2="-30.7396" y2="572.7094" gradientTransform="matrix(10.6667 0 0 -10.6667 679.8889 6577.4448)">
		<stop  offset="0" style="stop-color:#FFBF3F"/>
		<stop  offset="1" style="stop-color:#FF6A8F"/>
	</linearGradient>
	<polygon style="fill:url(#SVGID_3_);" points="394.667,320 394.667,266.667 373.333,266.667 373.333,277.333 330.667,277.333 
		330.667,256 309.333,256 309.333,320 330.667,320 330.667,298.667 373.333,298.667 373.333,320 	"/>
	
		<linearGradient id="SVGID_4_" gradientUnits="userSpaceOnUse" x1="-34.7396" y1="616.6354" x2="-34.7396" y2="572.7094" gradientTransform="matrix(10.6667 0 0 -10.6667 679.8889 6577.4448)">
		<stop  offset="0" style="stop-color:#FFBF3F"/>
		<stop  offset="1" style="stop-color:#FF6A8F"/>
	</linearGradient>
	<rect x="298.667" y="384" style="fill:url(#SVGID_4_);" width="21.333" height="21.333"/>
	
		<linearGradient id="SVGID_5_" gradientUnits="userSpaceOnUse" x1="-30.7396" y1="616.6354" x2="-30.7396" y2="572.7094" gradientTransform="matrix(10.6667 0 0 -10.6667 679.8889 6577.4448)">
		<stop  offset="0" style="stop-color:#FFBF3F"/>
		<stop  offset="1" style="stop-color:#FF6A8F"/>
	</linearGradient>
	<rect x="341.333" y="362.667" style="fill:url(#SVGID_5_);" width="21.333" height="42.667"/>
	
		<linearGradient id="SVGID_6_" gradientUnits="userSpaceOnUse" x1="-26.7396" y1="616.6354" x2="-26.7396" y2="572.7094" gradientTransform="matrix(10.6667 0 0 -10.6667 679.8889 6577.4448)">
		<stop  offset="0" style="stop-color:#FFBF3F"/>
		<stop  offset="1" style="stop-color:#FF6A8F"/>
	</linearGradient>
	<rect x="384" y="384" style="fill:url(#SVGID_6_);" width="21.333" height="21.333"/>
	
		<linearGradient id="SVGID_7_" gradientUnits="userSpaceOnUse" x1="-52.7398" y1="616.6354" x2="-52.7398" y2="572.7094" gradientTransform="matrix(10.6667 0 0 -10.6667 679.8889 6577.4448)">
		<stop  offset="0" style="stop-color:#FFBF3F"/>
		<stop  offset="1" style="stop-color:#FF6A8F"/>
	</linearGradient>
	<path style="fill:url(#SVGID_7_);" d="M64.181,137.568l8.533,45.717C73.653,188.341,78.059,192,83.2,192h68.267
		c5.131,0,9.547-3.659,10.485-8.704l8.533-45.717c0.693-3.765-0.661-7.595-3.573-10.069c-2.901-2.485-6.933-3.211-10.496-1.931
		l-17.515,6.251l-12.523-20.128c-3.872-6.251-14.229-6.251-18.101,0l-12.523,20.128l-17.515-6.251
		c-3.595-1.28-7.605-0.565-10.496,1.931C64.843,129.984,63.477,133.813,64.181,137.568z M96.683,154.805
		c4.715,1.717,9.995-0.149,12.64-4.405l8.011-12.864l8.011,12.864c2.656,4.256,7.925,6.133,12.64,4.405l8.139-2.891l-3.52,18.752
		H92.064l-3.509-18.763L96.683,154.805z"/>
</g>
<g>
</g>
<g>
</g>
<g>
</g>
<g>
</g>
<g>
</g>
<g>
</g>
<g>
</g>
<g>
</g>
<g>
</g>
<g>
</g>
<g>
</g>
<g>
</g>
<g>
</g>
<g>
</g>
<g>
</g>
</svg>
