<?xml version="1.0" encoding="iso-8859-1"?>
<!-- Generator: Adobe Illustrator 19.0.0, SVG Export Plug-In . SVG Version: 6.00 Build 0)  -->
<svg version="1.1" id="Capa_1" xmlns="http://www.w3.org/2000/svg" xmlns:xlink="http://www.w3.org/1999/xlink" x="0px" y="0px"
	 viewBox="0 0 469.333 469.333" style="enable-background:new 0 0 469.333 469.333;" xml:space="preserve">
<linearGradient id="SVGID_1_" gradientUnits="userSpaceOnUse" x1="-41.7396" y1="616.1354" x2="-41.7396" y2="572.6424" gradientTransform="matrix(10.6667 0 0 -10.6667 679.8889 6577.4448)">
	<stop  offset="0" style="stop-color:#FFBF3F"/>
	<stop  offset="1" style="stop-color:#FF6A8F"/>
</linearGradient>
<path style="fill:url(#SVGID_1_);" d="M458.667,181.333H328.288c-15.243-10.528-33.824-13.248-50.955-7.637V128h21.333
	c5.899,0,10.667-4.779,10.667-10.667V96H288v10.667h-21.333v-96C266.667,4.779,261.899,0,256,0h-42.667
	c-5.899,0-10.667,4.779-10.667,10.667v96h-21.333V96H160v21.333c0,5.888,4.768,10.667,10.667,10.667H192v45.557
	c-17.035-5.451-35.456-2.677-50.581,7.776H10.667C4.768,181.333,0,186.112,0,192v10.667c0,17.376,8.48,32.693,21.376,42.432
	c0,0.085-0.043,0.149-0.043,0.235V256c0,25.749,18.357,47.296,42.667,52.256v1.077c0,29.408,23.925,53.333,53.333,53.333H192v64
	c0,2.837,1.131,5.557,3.147,7.563l32.192,32c1.995,1.995,4.693,3.104,7.52,3.104c0.011,0,0.021,0,0.032,0
	c2.837-0.011,5.547-1.141,7.531-3.147l31.808-32c1.995-1.995,3.104-4.704,3.104-7.52v-64H352c29.408,0,53.333-23.925,53.333-53.333
	v-1.077C429.643,303.296,448,281.76,448,256v-10.667c0-0.085-0.043-0.149-0.043-0.235c12.896-9.739,21.376-25.056,21.376-42.432V192
	C469.333,186.112,464.565,181.333,458.667,181.333z M224,21.333h21.333v85.333H224V21.333z M224.149,128L224,170.635l21.333,0.075
	L245.483,128H256v58.688l-21.141,22.379l-21.525-22.773V128H224.149z M195.851,198.848l31.253,33.088
	c4.021,4.267,11.477,4.267,15.499,0l31.253-33.077c14.581-10.229,32.811-8.832,46.144,2.955v0.853h0.917
	c0.896,0.832,1.835,1.579,2.677,2.507c13.888,15.413,16.299,39.648,5.941,58.101l-10.613,10.613
	c-1.653-9.056-5.483-17.675-11.691-24.555c-15.243-16.896-39.349-19.541-57.387-6.283c-0.512,0.384-0.992,0.8-1.429,1.269
	l-13.557,14.336l-13.557-14.336c-0.437-0.469-0.917-0.885-1.429-1.269c-18.027-13.259-42.155-10.613-57.387,6.283
	c-6.219,6.901-10.069,15.552-11.701,24.629l-10.592-10.667c-10.379-18.453-7.957-42.699,5.941-58.112
	c0.843-0.939,1.781-1.675,2.677-2.507h0.523v-0.501C162.688,190.059,181.12,188.512,195.851,198.848z M174.624,297.813
	c-5.941-10.955-4.448-25.152,3.723-34.208c7.659-8.501,19.136-10.048,28.181-3.883l20.587,21.781c4.021,4.267,11.477,4.267,15.499,0
	l20.587-21.781c9.077-6.144,20.523-4.608,28.181,3.883c8.117,8.992,9.621,23.051,3.84,33.973l-60.619,60.576L174.624,297.813z
	 M122.027,202.667c-5.525,9.749-8.629,20.747-9.205,32H53.333c-17.643,0-32-14.357-32-32H122.027z M42.667,256h10.667h61.44
	c1.643,6.72,4.128,13.259,7.723,19.296c0.437,0.747,0.981,1.44,1.589,2.048L134.677,288H74.667
	C57.024,288,42.667,273.643,42.667,256z M85.333,309.333h70.539l31.797,32h-70.336C99.691,341.333,85.333,326.976,85.333,309.333z
	 M245.333,433.003v-27.669H224v27.499l-10.667-10.603v-55.061l13.589,13.685c1.995,2.016,4.715,3.147,7.541,3.147
	c0.011,0,0.011,0,0.021,0c0.021,0,0.032-0.011,0.053-0.011s0.032,0.011,0.053,0.011c0.011,0,0.011,0,0.021,0
	c2.827,0,5.547-1.12,7.541-3.115L256,367.04v55.221L245.333,433.003z M352,341.333h-70.272l29.472-29.451
	c0.171-0.171,0.277-0.384,0.437-0.555l1.984-1.995H384C384,326.976,369.643,341.333,352,341.333z M426.667,256
	c0,17.643-14.357,32-32,32h-59.701l10.624-10.624c0.629-0.629,1.163-1.323,1.611-2.08c3.605-6.037,6.091-12.576,7.733-19.307H416
	h10.667V256z M416,234.667h-59.104c-0.576-11.243-3.68-22.251-9.205-32H448C448,220.309,433.643,234.667,416,234.667z"/>
<g>
</g>
<g>
</g>
<g>
</g>
<g>
</g>
<g>
</g>
<g>
</g>
<g>
</g>
<g>
</g>
<g>
</g>
<g>
</g>
<g>
</g>
<g>
</g>
<g>
</g>
<g>
</g>
<g>
</g>
</svg>
