<?xml version="1.0" encoding="iso-8859-1"?>
<!-- Generator: Adobe Illustrator 19.0.0, SVG Export Plug-In . SVG Version: 6.00 Build 0)  -->
<svg version="1.1" id="Capa_1" xmlns="http://www.w3.org/2000/svg" xmlns:xlink="http://www.w3.org/1999/xlink" x="0px" y="0px"
	 viewBox="0 0 470.076 470.076" style="enable-background:new 0 0 470.076 470.076;" xml:space="preserve">
<g>
	
		<linearGradient id="SVGID_1_" gradientUnits="userSpaceOnUse" x1="-41.3504" y1="616.8776" x2="-41.3504" y2="573.4586" gradientTransform="matrix(10.6667 0 0 -10.6667 676.3016 6586.1035)">
		<stop  offset="0" style="stop-color:#FFBF3F"/>
		<stop  offset="1" style="stop-color:#FF6A8F"/>
	</linearGradient>
	<path style="fill:url(#SVGID_1_);" d="M320.136,178.428c7.648-12.811,9.493-28.384,5.952-42.507l24.907-24.885
		c0.629-0.619,1.163-1.323,1.611-2.069c16.416-27.509,13.013-64.48-8.096-87.904c-21.803-24.171-56.32-27.989-82.091-9.056
		c-0.512,0.373-0.992,0.8-1.429,1.269l-25.76,27.253L209.48,13.265c-0.437-0.469-0.917-0.896-1.44-1.269
		c-25.76-18.933-60.299-15.115-82.091,9.056c-21.109,23.424-24.512,60.395-8.085,87.904c0.437,0.736,0.981,1.44,1.589,2.048
		l24.885,25.045c-3.499,14.091-1.632,29.6,5.984,42.379c0.437,0.736,0.981,1.429,1.589,2.048l75.477,75.968
		c1.995,2.005,4.704,3.147,7.541,3.147c0.011,0,0.011,0,0.021,0c2.827,0,5.547-1.12,7.541-3.125l76.021-75.968
		C319.144,179.889,319.688,179.185,320.136,178.428z M135.55,96.956c-11.019-19.552-8.48-45.269,6.24-61.6
		c14.347-15.883,35.957-18.581,52.885-6.688l32.8,34.731c2.005,2.133,4.811,3.339,7.755,3.339s5.739-1.205,7.755-3.339
		l32.811-34.731c16.928-11.904,38.539-9.227,52.864,6.688c14.731,16.331,17.28,42.037,6.272,61.579l-18.837,18.827
		c-0.683-0.864-1.248-1.813-1.995-2.635c-16.384-18.197-42.368-21.056-61.728-6.773c-0.512,0.384-0.992,0.8-1.429,1.269
		l-15.712,16.619l-15.701-16.619c-0.437-0.469-0.917-0.885-1.429-1.269c-19.381-14.251-45.355-11.413-61.749,6.784
		c-0.757,0.843-1.344,1.813-2.037,2.699L135.55,96.956z M302.43,166.417l-67.445,67.403l-66.955-67.381
		c-6.816-12.469-5.141-28.693,4.181-39.029c8.843-9.813,22.112-11.541,32.533-4.384l22.741,24.064
		c2.005,2.133,4.811,3.339,7.755,3.339c2.944,0,5.739-1.205,7.755-3.339l22.752-24.064c10.443-7.179,23.701-5.429,32.523,4.373
		c0,0,0,0.011,0.011,0.011C307.571,137.745,309.246,153.948,302.43,166.417z"/>
	
		<linearGradient id="SVGID_2_" gradientUnits="userSpaceOnUse" x1="-54.8685" y1="616.8776" x2="-54.8685" y2="573.4586" gradientTransform="matrix(10.6667 0 0 -10.6667 676.3016 6586.1035)">
		<stop  offset="0" style="stop-color:#FFBF3F"/>
		<stop  offset="1" style="stop-color:#FF6A8F"/>
	</linearGradient>
	<path style="fill:url(#SVGID_2_);" d="M139.55,297.905l9.952-49.739c0.693-3.499-0.395-7.115-2.912-9.632l-21.333-21.333
		c-2.421-2.432-5.813-3.552-9.248-2.987c-3.381,0.555-6.304,2.699-7.829,5.76l-23.776,47.563l-9.867-14.805L53.555,126.993
		c-0.853-5.141-5.301-8.917-10.517-8.917h-32c-5.899,0-10.667,4.768-10.667,10.667v192c0,2.539,0.907,5.013,2.571,6.933
		l61.429,71.68v60.053c0,5.899,4.768,10.667,10.667,10.667h96c5.899,0,10.667-4.768,10.667-10.667v-74.667
		c0-1.653-0.384-3.296-1.12-4.768L139.55,297.905z M160.371,448.742H85.704v-53.333c0-2.539-0.907-5.013-2.571-6.933l-61.429-71.68
		V139.409h12.299l19.84,119.083c0.245,1.493,0.811,2.901,1.643,4.171l17.899,26.859l-7.893,15.787l19.083,9.547l36.053-72.096
		l6.827,6.837l-9.547,47.733c-0.469,2.325-0.149,4.736,0.917,6.869l41.547,83.061V448.742z"/>
	
		<linearGradient id="SVGID_3_" gradientUnits="userSpaceOnUse" x1="-27.8685" y1="616.8776" x2="-27.8685" y2="573.4586" gradientTransform="matrix(10.6667 0 0 -10.6667 676.3016 6586.1035)">
		<stop  offset="0" style="stop-color:#FFBF3F"/>
		<stop  offset="1" style="stop-color:#FF6A8F"/>
	</linearGradient>
	<path style="fill:url(#SVGID_3_);" d="M459.038,118.076h-32c-5.216,0-9.664,3.776-10.517,8.917l-20.96,125.739l-9.867,14.805
		l-23.776-47.563c-1.536-3.061-4.448-5.205-7.829-5.76c-3.445-0.597-6.848,0.565-9.248,2.987l-21.333,21.333
		c-2.517,2.517-3.616,6.133-2.912,9.632l9.952,49.739l-41.035,82.059c-0.757,1.483-1.141,3.125-1.141,4.779v74.667
		c0,5.899,4.768,10.667,10.667,10.667h96c5.899,0,10.667-4.768,10.667-10.667v-60.053l61.429-71.68
		c1.664-1.92,2.571-4.395,2.571-6.933v-192C469.704,122.844,464.936,118.076,459.038,118.076z M448.371,316.796l-61.429,71.68
		c-1.664,1.92-2.571,4.395-2.571,6.933v53.333h-74.667V387.26l41.547-83.083c1.067-2.123,1.387-4.544,0.917-6.869l-9.547-47.733
		l6.827-6.837l36.053,72.096l19.083-9.547l-7.893-15.787l17.899-26.859c0.832-1.259,1.397-2.677,1.643-4.171l19.84-119.061h12.299
		V316.796z"/>
</g>
<g>
</g>
<g>
</g>
<g>
</g>
<g>
</g>
<g>
</g>
<g>
</g>
<g>
</g>
<g>
</g>
<g>
</g>
<g>
</g>
<g>
</g>
<g>
</g>
<g>
</g>
<g>
</g>
<g>
</g>
</svg>
