<?xml version="1.0" encoding="iso-8859-1"?>
<!-- Generator: Adobe Illustrator 19.0.0, SVG Export Plug-In . SVG Version: 6.00 Build 0)  -->
<svg version="1.1" id="Capa_1" xmlns="http://www.w3.org/2000/svg" xmlns:xlink="http://www.w3.org/1999/xlink" x="0px" y="0px"
	 viewBox="0 0 469.333 469.333" style="enable-background:new 0 0 469.333 469.333;" xml:space="preserve">
<linearGradient id="SVGID_1_" gradientUnits="userSpaceOnUse" x1="-41.739" y1="616.5524" x2="-41.739" y2="572.6354" gradientTransform="matrix(10.6667 0 0 -10.6667 679.8829 6577.4448)">
	<stop  offset="0" style="stop-color:#FFBF3F"/>
	<stop  offset="1" style="stop-color:#FF6A8F"/>
</linearGradient>
<path style="fill:url(#SVGID_1_);" d="M458.454,403.243c-0.683-3.445-3.029-6.325-6.261-7.712l-145.739-62.453l-15.68-31.349
	c24.117-17.461,39.893-45.76,39.893-77.728h5.333c14.709,0,26.667-11.968,26.667-26.667v-32c0-14.699-11.957-26.667-26.667-26.667
	h-5.333V42.773c0-8.608-3.36-16.672-9.493-22.731c-6.037-5.984-14.027-9.269-22.528-9.269c-0.107,0-0.224,0-0.331,0
	c-7.723,0.085-13.515,0.181-18.08,0.555C274.358,4.459,265.729,0,256.001,0H117.334c-5.888,0-10.667,4.779-10.667,10.667V64
	c0,23.627,12.907,44.256,32,55.339v19.328h-5.333c-14.699,0-26.667,11.968-26.667,26.667v32c0,14.699,11.968,26.667,26.667,26.667
	h5.333c0,31.968,15.776,60.267,39.883,77.717l-15.669,31.349L17.131,395.531c-3.232,1.376-5.568,4.267-6.251,7.712L0.214,456.576
	c-0.629,3.136,0.181,6.389,2.208,8.853c2.027,2.475,5.045,3.904,8.245,3.904h448c3.2,0,6.219-1.429,8.245-3.904
	c2.016-2.464,2.837-5.717,2.208-8.853L458.454,403.243z M229.899,382.88c1.493,0.747,3.136,1.12,4.768,1.12
	c1.632,0,3.275-0.373,4.768-1.12l33.579-16.789l-38.347,70.293l-38.347-70.304L229.899,382.88z M336.001,160
	c2.933,0,5.333,2.389,5.333,5.333v32c0,2.944-2.4,5.333-5.333,5.333h-5.333V160H336.001z M298.529,32.107
	c2.613-0.192,5.589,1.067,7.648,3.093c2.037,2.016,3.157,4.715,3.157,7.573v63.893h-21.333v-74.4
	C290.646,32.213,294.081,32.16,298.529,32.107z M128.001,21.333h128c5.888,0,10.667,4.789,10.667,10.667v74.667h-96
	c-23.531,0-42.667-19.136-42.667-42.667V21.333z M133.334,202.667c-2.944,0-5.333-2.389-5.333-5.333v-32
	c0-2.944,2.389-5.333,5.333-5.333h5.333v42.667H133.334z M160.001,224v-10.667v-64V128h10.667h106.667h32v21.333v64V224
	c0,41.173-33.504,74.667-74.667,74.667C193.494,298.667,160.001,265.173,160.001,224z M234.667,320
	c13.333,0,26.027-2.741,37.568-7.669l12.117,24.235l-49.685,24.843l-49.685-24.843l12.117-24.235
	C208.641,317.259,221.345,320,234.667,320z M30.689,412.928l112.885-48.384l-35.296,56.469c-2.048,3.285-2.165,7.435-0.277,10.827
	c1.888,3.392,5.451,5.493,9.333,5.493h22.731L132.95,448H23.681L30.689,412.928z M168.875,432.587
	c2.187-3.275,2.389-7.477,0.533-10.944c-1.856-3.477-5.472-5.643-9.408-5.643h-23.424l33.461-53.536L216.694,448h-58.101
	L168.875,432.587z M252.641,448l46.656-85.536L332.747,416h-23.413c-0.96,0-1.899,0.139-2.805,0.384
	c-0.299,0.085-0.555,0.235-0.843,0.341c-0.587,0.213-1.184,0.427-1.728,0.736c-0.32,0.181-0.576,0.437-0.875,0.651
	c-0.459,0.331-0.917,0.651-1.312,1.045c-0.277,0.288-0.501,0.629-0.747,0.939c-0.277,0.352-0.608,0.672-0.843,1.067
	c-0.043,0.075-0.064,0.171-0.107,0.245c-0.043,0.075-0.107,0.128-0.149,0.213c-0.16,0.299-0.213,0.629-0.341,0.939
	c-0.203,0.491-0.416,0.971-0.555,1.483c-0.107,0.405-0.139,0.8-0.192,1.216c-0.064,0.523-0.139,1.024-0.128,1.547
	c0.011,0.405,0.075,0.8,0.117,1.205c0.064,0.523,0.139,1.035,0.288,1.547c0.107,0.395,0.267,0.757,0.427,1.141
	c0.139,0.32,0.203,0.672,0.373,0.981L308.63,448H252.641z M336.374,448l-7.115-10.667h22.741c3.872,0,7.445-2.101,9.333-5.493
	c1.877-3.392,1.771-7.541-0.288-10.827l-35.296-56.469l112.896,48.384L445.654,448H336.374z"/>
<g>
</g>
<g>
</g>
<g>
</g>
<g>
</g>
<g>
</g>
<g>
</g>
<g>
</g>
<g>
</g>
<g>
</g>
<g>
</g>
<g>
</g>
<g>
</g>
<g>
</g>
<g>
</g>
<g>
</g>
</svg>
