<?xml version="1.0" encoding="iso-8859-1"?>
<!-- Generator: Adobe Illustrator 19.0.0, SVG Export Plug-In . SVG Version: 6.00 Build 0)  -->
<svg version="1.1" id="Capa_1" xmlns="http://www.w3.org/2000/svg" xmlns:xlink="http://www.w3.org/1999/xlink" x="0px" y="0px"
	 viewBox="0 0 469.333 469.333" style="enable-background:new 0 0 469.333 469.333;" xml:space="preserve">
<g>
	
		<linearGradient id="SVGID_1_" gradientUnits="userSpaceOnUse" x1="-49.7396" y1="616.6354" x2="-49.7396" y2="572.5854" gradientTransform="matrix(10.6667 0 0 -10.6667 679.8889 6577.4448)">
		<stop  offset="0" style="stop-color:#FFBF3F"/>
		<stop  offset="1" style="stop-color:#FF6A8F"/>
	</linearGradient>
	<path style="fill:url(#SVGID_1_);" d="M149.333,320C208.149,320,256,272.149,256,213.333s-47.851-106.667-106.667-106.667
		S42.667,154.517,42.667,213.333S90.517,320,149.333,320z M149.333,128c47.051,0,85.333,38.283,85.333,85.333
		s-38.283,85.333-85.333,85.333S64,260.384,64,213.333S102.283,128,149.333,128z"/>
	
		<linearGradient id="SVGID_2_" gradientUnits="userSpaceOnUse" x1="-41.7396" y1="616.6354" x2="-41.7396" y2="572.5854" gradientTransform="matrix(10.6667 0 0 -10.6667 679.8889 6577.4448)">
		<stop  offset="0" style="stop-color:#FFBF3F"/>
		<stop  offset="1" style="stop-color:#FF6A8F"/>
	</linearGradient>
	<path style="fill:url(#SVGID_2_);" d="M448,96H243.221L225.6,16.704C223.424,6.88,214.859,0,204.779,0H93.888
		c-10.08,0-18.645,6.88-20.821,16.704L55.083,97.621C21.504,125.035,0,166.709,0,213.333C0,255.104,17.291,292.875,45.024,320
		h-2.357v128c0,11.765,9.568,21.333,21.333,21.333h170.667c11.765,0,21.333-9.568,21.333-21.333v-32h10.667v-21.333H256v-21.333
		h10.667V352H256v-21.333h192c11.765,0,21.333-9.568,21.333-21.333v-192C469.333,105.568,459.765,96,448,96z M93.888,21.333h44.779
		v21.333H160V21.333h44.779l13.227,59.531C197.419,70.155,174.101,64,149.333,64s-48.085,6.155-68.672,16.864L93.888,21.333z
		 M21.333,213.333c0-70.581,57.419-128,128-128s128,57.419,128,128s-57.419,128-128,128S21.333,283.915,21.333,213.333z M128,448
		v-21.333c0-11.765,9.568-21.333,21.333-21.333s21.333,9.568,21.333,21.333V448H128z M192,448v-21.333
		C192,403.136,172.864,384,149.333,384s-42.667,19.136-42.667,42.667V448H64V335.712c24.213,16.939,53.611,26.955,85.333,26.955
		s61.12-10.016,85.333-26.955V448H192z M448,309.333H263.552c21.877-25.984,35.115-59.456,35.115-96s-13.237-70.016-35.115-96H448
		V309.333z"/>
	
		<linearGradient id="SVGID_3_" gradientUnits="userSpaceOnUse" x1="-46.7396" y1="616.6354" x2="-46.7396" y2="572.5854" gradientTransform="matrix(10.6667 0 0 -10.6667 679.8889 6577.4448)">
		<stop  offset="0" style="stop-color:#FFBF3F"/>
		<stop  offset="1" style="stop-color:#FF6A8F"/>
	</linearGradient>
	<rect x="170.667" y="170.667" style="fill:url(#SVGID_3_);" width="21.333" height="21.333"/>
	
		<linearGradient id="SVGID_4_" gradientUnits="userSpaceOnUse" x1="-28.7396" y1="616.6354" x2="-28.7396" y2="572.5854" gradientTransform="matrix(10.6667 0 0 -10.6667 679.8889 6577.4448)">
		<stop  offset="0" style="stop-color:#FFBF3F"/>
		<stop  offset="1" style="stop-color:#FF6A8F"/>
	</linearGradient>
	<path style="fill:url(#SVGID_4_);" d="M330.667,202.667h64c17.643,0,32-14.357,32-32v-21.333c0-5.899-4.779-10.667-10.667-10.667
		h-64c-17.643,0-32,14.357-32,32V192C320,197.899,324.779,202.667,330.667,202.667z M341.333,170.667
		c0-5.888,4.789-10.667,10.667-10.667h53.333v10.667c0,5.888-4.789,10.667-10.667,10.667h-53.333V170.667z"/>
	
		<linearGradient id="SVGID_5_" gradientUnits="userSpaceOnUse" x1="-27.7396" y1="616.6354" x2="-27.7396" y2="572.5854" gradientTransform="matrix(10.6667 0 0 -10.6667 679.8889 6577.4448)">
		<stop  offset="0" style="stop-color:#FFBF3F"/>
		<stop  offset="1" style="stop-color:#FF6A8F"/>
	</linearGradient>
	<rect x="362.667" y="224" style="fill:url(#SVGID_5_);" width="42.667" height="21.333"/>
	
		<linearGradient id="SVGID_6_" gradientUnits="userSpaceOnUse" x1="-27.7396" y1="616.6354" x2="-27.7396" y2="572.5854" gradientTransform="matrix(10.6667 0 0 -10.6667 679.8889 6577.4448)">
		<stop  offset="0" style="stop-color:#FFBF3F"/>
		<stop  offset="1" style="stop-color:#FF6A8F"/>
	</linearGradient>
	<rect x="341.333" y="266.667" style="fill:url(#SVGID_6_);" width="85.333" height="21.333"/>
</g>
<g>
</g>
<g>
</g>
<g>
</g>
<g>
</g>
<g>
</g>
<g>
</g>
<g>
</g>
<g>
</g>
<g>
</g>
<g>
</g>
<g>
</g>
<g>
</g>
<g>
</g>
<g>
</g>
<g>
</g>
</svg>
