<?xml version="1.0" encoding="iso-8859-1"?>
<!-- Generator: Adobe Illustrator 19.0.0, SVG Export Plug-In . SVG Version: 6.00 Build 0)  -->
<svg version="1.1" id="Capa_1" xmlns="http://www.w3.org/2000/svg" xmlns:xlink="http://www.w3.org/1999/xlink" x="0px" y="0px"
	 viewBox="0 0 468.869 468.869" style="enable-background:new 0 0 468.869 468.869;" xml:space="preserve">
<linearGradient id="SVGID_1_" gradientUnits="userSpaceOnUse" x1="-41.9716" y1="616.1279" x2="-41.9716" y2="572.5419" gradientTransform="matrix(10.6667 0 0 -10.6667 682.1316 6572.0313)">
	<stop  offset="0" style="stop-color:#FFBF3F"/>
	<stop  offset="1" style="stop-color:#FF6A8F"/>
</linearGradient>
<path style="fill:url(#SVGID_1_);" d="M373.101,148.869h-25.536l-17.781-25.6c0.267-2.123,0.651-4.213,0.651-6.4V98.053
	l9.547-19.083c1.653-3.307,1.483-7.232-0.469-10.379s-5.376-5.056-9.077-5.056h-25.536l-19.04-27.413
	c-1.984-2.88-5.269-4.587-8.757-4.587c-0.032,0-0.064,0-0.107,0c-3.531,0.032-6.816,1.813-8.768,4.747l-5.045,7.563L243.971,5.424
	c-3.616-7.232-15.467-7.232-19.083,0l-19.211,38.421l-5.045-7.563c-1.952-2.933-5.237-4.715-8.768-4.747
	c-4-0.288-6.848,1.675-8.864,4.587l-19.029,27.413h-25.536c-3.701,0-7.125,1.92-9.077,5.067c-1.952,3.147-2.123,7.072-0.469,10.379
	l9.547,19.072v18.816c0,2.187,0.384,4.277,0.651,6.4l-17.781,25.6H95.768c-3.701,0-7.125,1.92-9.077,5.067
	s-2.123,7.072-0.469,10.379l9.547,19.072v18.816c0,17.365,8.469,32.672,21.355,42.411l66.528,113.131
	c-7.968,5.824-13.216,15.179-13.216,25.792c0,12.235,6.976,22.752,17.077,28.139l-16.373,42.72
	c-1.259,3.275-0.821,6.955,1.163,9.856c2.005,2.891,5.291,4.619,8.8,4.619h106.667c3.541,0,6.848-1.76,8.832-4.683
	c1.984-2.923,2.389-6.656,1.077-9.941l-16.907-42.251c10.432-5.291,17.664-15.989,17.664-28.459
	c0-10.507-5.163-19.765-13.003-25.611l66.411-113.397c12.832-9.739,21.259-25.003,21.259-42.325v-18.816l9.547-19.083
	c1.653-3.307,1.483-7.232-0.469-10.379C380.227,150.779,376.803,148.869,373.101,148.869z M249.347,230.341
	c-1.717,0.928-3.52,1.653-5.376,2.251c-0.661,0.213-1.301,0.448-1.984,0.619c-2.443,0.597-4.96,0.992-7.552,0.992
	c-2.592,0-5.109-0.395-7.552-0.992c-0.683-0.171-1.323-0.405-1.984-0.619c-1.856-0.587-3.669-1.323-5.376-2.251
	c-0.491-0.256-0.981-0.501-1.451-0.789c-4.491-2.741-8.363-6.56-11.168-11.381c-0.032-0.053-0.085-0.096-0.117-0.149
	c-2.688-4.683-4.352-10.037-4.352-15.819v-21.333c0-1.653-0.384-3.296-1.12-4.768l-2.955-5.899h7.52l8.747,21.877
	c3.264,8.139,11.04,13.408,19.808,13.408s16.555-5.269,19.808-13.419l8.747-21.867h7.52l-2.944,5.899
	c-0.747,1.472-1.131,3.115-1.131,4.768v21.333c0,5.781-1.664,11.136-4.352,15.819c-0.032,0.053-0.085,0.096-0.117,0.149
	c-2.805,4.821-6.677,8.651-11.168,11.381C250.328,229.84,249.827,230.085,249.347,230.341z M234.435,148.539
	c1.685,2.261,3.456,4.469,5.472,6.432l3.872,5.813l-9.344,23.371l-9.344-23.36l3.872-5.813
	C230.979,153.008,232.749,150.811,234.435,148.539z M148.451,147.749c1.845,2.581,3.861,5.013,6.123,7.232l3.872,5.813l-9.344,23.36
	l-9.344-23.36L148.451,147.749z M314.296,154.971c2.261-2.208,4.277-4.651,6.123-7.232l8.693,13.035l-9.344,23.381l-9.344-23.36
	L314.296,154.971z M310.221,90.768c-0.736,1.472-1.12,3.115-1.12,4.768v21.333c0,3.563-0.725,6.933-1.803,10.144l-9.216,13.835
	c-5.632,4.928-12.917,8.021-20.981,8.021c-7.477,0-14.272-2.677-19.723-6.987l-10.603-15.264c-0.992-3.093-1.675-6.325-1.675-9.749
	v-32h3.445l8.757,21.877c3.264,8.149,11.029,13.408,19.797,13.408s16.544-5.259,19.808-13.419l8.747-21.867h7.52L310.221,90.768z
	 M286.445,75.451l-9.344,23.371l-9.344-23.36l9.344-14.027L286.445,75.451z M223.768,55.387l10.667-21.333l10.667,21.333v8.149
	h-10.667h-10.667V55.387z M201.112,75.451l-9.344,23.371l-9.344-23.36l9.344-14.027l3.36,5.045L201.112,75.451z M163.213,84.869
	l8.747,21.877c3.264,8.139,11.04,13.408,19.808,13.408s16.544-5.269,19.808-13.419l8.747-21.867h3.445v32
	c0,3.563-0.725,6.933-1.803,10.144l-9.216,13.835c-5.632,4.928-12.917,8.021-20.981,8.021s-15.349-3.093-20.981-8.032l-9.216-13.835
	c-1.077-3.2-1.803-6.571-1.803-10.133V95.536c0-1.653-0.384-3.296-1.12-4.768l-2.955-5.899H163.213z M120.547,170.203l8.747,21.877
	c3.264,8.139,11.04,13.408,19.808,13.408s16.544-5.269,19.808-13.419l7.349-18.368l4.843,9.685v18.816
	c0,5.781-1.664,11.136-4.352,15.819c-0.032,0.053-0.085,0.096-0.117,0.149c-2.805,4.821-6.677,8.651-11.168,11.381
	c-0.469,0.288-0.96,0.533-1.451,0.789c-1.717,0.928-3.52,1.653-5.376,2.251c-0.661,0.213-1.301,0.448-1.984,0.619
	c-2.443,0.597-4.96,0.992-7.552,0.992c-1.973,0-3.883-0.235-5.76-0.587c-0.565-0.107-1.109-0.245-1.664-0.373
	c-1.365-0.331-2.688-0.747-3.979-1.237c-0.512-0.203-1.045-0.373-1.547-0.597c-11.2-4.981-19.051-16.171-19.051-29.205v-21.333
	c0-1.653-0.384-3.296-1.12-4.768l-2.955-5.899H120.547z M277.101,383.536c0,5.888-4.779,10.667-10.667,10.667h-64
	c-5.877,0-10.667-4.779-10.667-10.667s4.789-10.667,10.667-10.667h64C272.323,372.869,277.101,377.648,277.101,383.536z
	 M196.611,447.536l12.267-32h50.336l12.8,32H196.611z M320.675,255.525l-56.235,96.011h-59.691l-56.459-96.011
	c0.181,0.011,0.363-0.021,0.544-0.021c0.096,0.011,0.181,0.032,0.267,0.032c0.171,0,0.32-0.043,0.491-0.053
	c6.944,0.053,13.675-1.387,19.904-4.043c0.235-0.096,0.469-0.203,0.704-0.309c2.805-1.248,5.525-2.677,8.085-4.395
	c0.747-0.491,1.408-1.056,2.123-1.579c1.472-1.099,2.891-2.272,4.256-3.509c0.171-0.149,0.363-0.277,0.523-0.437l17.557,70.229
	l20.693-5.163l-14.336-57.355c0.939,0.512,1.888,1.013,2.859,1.472c1.067,0.501,2.133,0.981,3.232,1.408
	c2.496,0.981,5.067,1.803,7.701,2.4c0.693,0.149,1.397,0.256,2.101,0.384c3.104,0.565,6.251,0.949,9.44,0.949
	s6.336-0.384,9.419-0.949c0.704-0.128,1.408-0.224,2.112-0.384c2.635-0.597,5.195-1.408,7.691-2.389
	c1.109-0.427,2.176-0.907,3.243-1.408c0.971-0.459,1.92-0.96,2.859-1.472l-14.336,57.365l20.683,5.163l17.557-70.24
	c0.235,0.213,0.501,0.395,0.736,0.608c1.141,1.035,2.325,2.005,3.552,2.933c0.971,0.725,1.888,1.483,2.901,2.144
	c2.251,1.472,4.629,2.72,7.072,3.84c0.736,0.331,1.461,0.64,2.208,0.939c2.805,1.131,5.685,2.059,8.661,2.699
	c0.245,0.053,0.491,0.075,0.736,0.117c3.104,0.608,6.272,0.939,9.493,0.96c0.267,0,0.501,0.075,0.747,0.075
	c0.107,0,0.213-0.032,0.32-0.032C320.291,255.504,320.483,255.525,320.675,255.525z M352.888,176.101
	c-0.736,1.472-1.12,3.115-1.12,4.768v21.333c0,13.035-7.861,24.235-19.072,29.216c-0.491,0.213-0.992,0.384-1.483,0.576
	c-1.301,0.501-2.645,0.928-4.032,1.248c-0.555,0.128-1.099,0.267-1.653,0.373c-1.867,0.352-3.787,0.587-5.76,0.587
	c-2.592,0-5.109-0.395-7.552-0.992c-0.683-0.171-1.323-0.405-1.984-0.619c-1.856-0.587-3.669-1.323-5.376-2.251
	c-0.491-0.256-0.981-0.501-1.451-0.789c-4.491-2.741-8.363-6.56-11.168-11.381c-0.032-0.053-0.085-0.096-0.117-0.149
	c-2.688-4.683-4.352-10.037-4.352-15.819v-18.816l4.843-9.685l7.349,18.379c3.264,8.149,11.029,13.408,19.797,13.408
	c8.768,0,16.544-5.259,19.808-13.419l8.747-21.867h7.52L352.888,176.101z"/>
<g>
	
		<linearGradient id="SVGID_2_" gradientUnits="userSpaceOnUse" x1="-58.9716" y1="616.0884" x2="-58.9716" y2="572.5024" gradientTransform="matrix(10.6667 0 0 -10.6667 682.1316 6572.0313)">
		<stop  offset="0" style="stop-color:#FFBF3F"/>
		<stop  offset="1" style="stop-color:#FF6A8F"/>
	</linearGradient>
	<rect x="42.435" y="362.203" style="fill:url(#SVGID_2_);" width="21.333" height="21.333"/>
	
		<linearGradient id="SVGID_3_" gradientUnits="userSpaceOnUse" x1="-58.9716" y1="616.0884" x2="-58.9716" y2="572.5024" gradientTransform="matrix(10.6667 0 0 -10.6667 682.1316 6572.0313)">
		<stop  offset="0" style="stop-color:#FFBF3F"/>
		<stop  offset="1" style="stop-color:#FF6A8F"/>
	</linearGradient>
	<rect x="42.435" y="404.869" style="fill:url(#SVGID_3_);" width="21.333" height="21.333"/>
	
		<linearGradient id="SVGID_4_" gradientUnits="userSpaceOnUse" x1="-60.9716" y1="616.0884" x2="-60.9716" y2="572.5024" gradientTransform="matrix(10.6667 0 0 -10.6667 682.1316 6572.0313)">
		<stop  offset="0" style="stop-color:#FFBF3F"/>
		<stop  offset="1" style="stop-color:#FF6A8F"/>
	</linearGradient>
	<rect x="21.101" y="383.536" style="fill:url(#SVGID_4_);" width="21.333" height="21.333"/>
	
		<linearGradient id="SVGID_5_" gradientUnits="userSpaceOnUse" x1="-56.9716" y1="616.0884" x2="-56.9716" y2="572.5024" gradientTransform="matrix(10.6667 0 0 -10.6667 682.1316 6572.0313)">
		<stop  offset="0" style="stop-color:#FFBF3F"/>
		<stop  offset="1" style="stop-color:#FF6A8F"/>
	</linearGradient>
	<rect x="63.768" y="383.536" style="fill:url(#SVGID_5_);" width="21.333" height="21.333"/>
	
		<linearGradient id="SVGID_6_" gradientUnits="userSpaceOnUse" x1="-24.9716" y1="616.0884" x2="-24.9716" y2="572.5024" gradientTransform="matrix(10.6667 0 0 -10.6667 682.1316 6572.0313)">
		<stop  offset="0" style="stop-color:#FFBF3F"/>
		<stop  offset="1" style="stop-color:#FF6A8F"/>
	</linearGradient>
	<rect x="405.101" y="20.869" style="fill:url(#SVGID_6_);" width="21.333" height="21.333"/>
	
		<linearGradient id="SVGID_7_" gradientUnits="userSpaceOnUse" x1="-24.9716" y1="616.0884" x2="-24.9716" y2="572.5024" gradientTransform="matrix(10.6667 0 0 -10.6667 682.1316 6572.0313)">
		<stop  offset="0" style="stop-color:#FFBF3F"/>
		<stop  offset="1" style="stop-color:#FF6A8F"/>
	</linearGradient>
	<rect x="405.101" y="63.536" style="fill:url(#SVGID_7_);" width="21.333" height="21.333"/>
	
		<linearGradient id="SVGID_8_" gradientUnits="userSpaceOnUse" x1="-26.9716" y1="616.0884" x2="-26.9716" y2="572.5024" gradientTransform="matrix(10.6667 0 0 -10.6667 682.1316 6572.0313)">
		<stop  offset="0" style="stop-color:#FFBF3F"/>
		<stop  offset="1" style="stop-color:#FF6A8F"/>
	</linearGradient>
	<rect x="383.768" y="42.203" style="fill:url(#SVGID_8_);" width="21.333" height="21.333"/>
	
		<linearGradient id="SVGID_9_" gradientUnits="userSpaceOnUse" x1="-22.9716" y1="616.0884" x2="-22.9716" y2="572.5024" gradientTransform="matrix(10.6667 0 0 -10.6667 682.1316 6572.0313)">
		<stop  offset="0" style="stop-color:#FFBF3F"/>
		<stop  offset="1" style="stop-color:#FF6A8F"/>
	</linearGradient>
	<rect x="426.435" y="42.203" style="fill:url(#SVGID_9_);" width="21.333" height="21.333"/>
</g>
<g>
</g>
<g>
</g>
<g>
</g>
<g>
</g>
<g>
</g>
<g>
</g>
<g>
</g>
<g>
</g>
<g>
</g>
<g>
</g>
<g>
</g>
<g>
</g>
<g>
</g>
<g>
</g>
<g>
</g>
</svg>
