<?xml version="1.0" encoding="iso-8859-1"?>
<!-- Generator: Adobe Illustrator 19.0.0, SVG Export Plug-In . SVG Version: 6.00 Build 0)  -->
<svg version="1.1" id="Capa_1" xmlns="http://www.w3.org/2000/svg" xmlns:xlink="http://www.w3.org/1999/xlink" x="0px" y="0px"
	 viewBox="0 0 469.333 469.333" style="enable-background:new 0 0 469.333 469.333;" xml:space="preserve">
<g>
	
		<linearGradient id="SVGID_1_" gradientUnits="userSpaceOnUse" x1="-41.7396" y1="616.4684" x2="-41.7396" y2="572.7074" gradientTransform="matrix(10.6667 0 0 -10.6667 679.8889 6577.4448)">
		<stop  offset="0" style="stop-color:#FFBF3F"/>
		<stop  offset="1" style="stop-color:#FF6A8F"/>
	</linearGradient>
	<path style="fill:url(#SVGID_1_);" d="M265.664,0h-95.093c-35.232,0-63.904,28.672-63.904,63.904v42.763
		c0,1.355,0.267,2.645,0.757,3.84c3.456,22.325,21.035,38.827,41.909,38.827c20.811,0,38.357-16.405,41.877-38.624
		c0.512-1.248,0.789-2.613,0.789-4.043V85.333h64c11.765,0,21.333,9.568,21.333,21.333v33.163c0,9.109-5.792,17.205-14.4,20.181
		l-108.235,37.205c-28.725,9.877-48.032,36.917-48.032,67.296V448c0,11.765,9.568,21.333,21.333,21.333h213.333
		c11.765,0,21.333-9.568,21.333-21.333V97.003C362.667,43.509,319.157,0,265.664,0z M341.333,448H128V264.512
		c0-21.269,13.525-40.213,33.632-47.125l108.235-37.205c17.227-5.931,28.8-22.155,28.8-40.352v-33.163
		C298.667,83.136,279.531,64,256,64h-74.667c-5.899,0-10.667,4.768-10.667,10.667v29.269c-0.149,0.544-0.235,1.099-0.299,1.664
		c-1.269,12.779-10.315,22.4-21.035,22.4c-10.72,0-19.765-9.621-21.035-22.4c-0.053-0.555-0.16-1.109-0.299-1.621V63.904
		c0-23.477,19.093-42.571,42.571-42.571h95.093c41.717,0,75.669,33.952,75.669,75.669V448z"/>
	
		<linearGradient id="SVGID_2_" gradientUnits="userSpaceOnUse" x1="-41.723" y1="616.4684" x2="-41.723" y2="572.7074" gradientTransform="matrix(10.6667 0 0 -10.6667 679.8889 6577.4448)">
		<stop  offset="0" style="stop-color:#FFBF3F"/>
		<stop  offset="1" style="stop-color:#FF6A8F"/>
	</linearGradient>
	<path style="fill:url(#SVGID_2_);" d="M249.845,253.707c-0.523,0.373-1.003,0.8-1.44,1.269l-13.557,14.336l-13.557-14.336
		c-0.437-0.469-0.917-0.896-1.429-1.269c-18.027-13.248-42.155-10.603-57.387,6.283c-14.528,16.128-16.885,41.557-5.579,60.48
		c0.448,0.747,0.981,1.44,1.589,2.048l16.779,16.885c-4.939,11.339-4.341,24.832,2.261,35.893c0.437,0.736,0.981,1.44,1.589,2.048
		l47.989,48.299c2.005,2.027,4.725,3.157,7.563,3.157c0.011,0,0.011,0,0.021,0c2.827,0,5.547-1.12,7.541-3.125l48.32-48.299
		c0.629-0.619,1.163-1.312,1.611-2.069c6.624-11.083,7.211-24.619,2.229-35.968l16.8-16.789c0.629-0.629,1.163-1.323,1.611-2.069
		c11.296-18.923,8.939-44.352-5.589-60.469C292.011,243.093,267.851,240.459,249.845,253.707z M274.421,363.339l-39.701,39.691
		l-39.413-39.669c-3.221-6.379-2.283-14.731,2.379-19.893c4.16-4.619,10.347-5.547,15.275-2.4l14.155,14.976
		c2.005,2.133,4.811,3.339,7.755,3.339s5.739-1.205,7.755-3.339l14.155-14.976c4.971-3.147,11.125-2.219,15.285,2.4v0.011
		C276.693,348.64,277.632,356.981,274.421,363.339z M295.104,308.469l-14.635,14.624c-11.339-7.179-25.707-7.072-37.024,1.259
		c-0.512,0.384-0.992,0.8-1.429,1.269l-7.168,7.573l-7.157-7.573c-0.437-0.469-0.917-0.885-1.429-1.269
		c-11.339-8.352-25.749-8.437-37.099-1.227l-14.549-14.656c-5.941-10.944-4.448-25.141,3.723-34.197
		c7.659-8.491,19.136-10.037,28.181-3.883l20.587,21.771c4.021,4.267,11.477,4.267,15.499,0l20.587-21.771
		c9.056-6.155,20.523-4.608,28.181,3.883C299.531,283.328,301.024,297.525,295.104,308.469z"/>
</g>
<g>
</g>
<g>
</g>
<g>
</g>
<g>
</g>
<g>
</g>
<g>
</g>
<g>
</g>
<g>
</g>
<g>
</g>
<g>
</g>
<g>
</g>
<g>
</g>
<g>
</g>
<g>
</g>
<g>
</g>
</svg>
