<?xml version="1.0" encoding="iso-8859-1"?>
<!-- Generator: Adobe Illustrator 19.0.0, SVG Export Plug-In . SVG Version: 6.00 Build 0)  -->
<svg version="1.1" id="Capa_1" xmlns="http://www.w3.org/2000/svg" xmlns:xlink="http://www.w3.org/1999/xlink" x="0px" y="0px"
	 viewBox="0 0 469.333 469.333" style="enable-background:new 0 0 469.333 469.333;" xml:space="preserve">
<g>
	
		<linearGradient id="SVGID_1_" gradientUnits="userSpaceOnUse" x1="-41.7396" y1="616.4377" x2="-41.7396" y2="572.9357" gradientTransform="matrix(10.6667 0 0 -10.6667 679.8889 6576.1069)">
		<stop  offset="0" style="stop-color:#FFBF3F"/>
		<stop  offset="1" style="stop-color:#FF6A8F"/>
	</linearGradient>
	<path style="fill:url(#SVGID_1_);" d="M234.667,191.885c-17.643,0-32,14.357-32,32v42.667c0,17.643,14.357,32,32,32
		s32-14.357,32-32v-42.667C266.667,206.243,252.309,191.885,234.667,191.885z M245.333,266.552c0,5.888-4.789,10.667-10.667,10.667
		S224,272.44,224,266.552v-42.667c0-5.888,4.789-10.667,10.667-10.667s10.667,4.779,10.667,10.667V266.552z"/>
	
		<linearGradient id="SVGID_2_" gradientUnits="userSpaceOnUse" x1="-54.7396" y1="616.4377" x2="-54.7396" y2="572.9357" gradientTransform="matrix(10.6667 0 0 -10.6667 679.8889 6576.1069)">
		<stop  offset="0" style="stop-color:#FFBF3F"/>
		<stop  offset="1" style="stop-color:#FF6A8F"/>
	</linearGradient>
	<polygon style="fill:url(#SVGID_2_);" points="106.667,266.552 85.333,266.552 85.333,298.552 64,298.552 64,319.885 
		85.333,319.885 85.333,405.219 106.667,405.219 106.667,319.885 128,319.885 128,298.552 106.667,298.552 	"/>
	
		<linearGradient id="SVGID_3_" gradientUnits="userSpaceOnUse" x1="-41.7396" y1="616.4377" x2="-41.7396" y2="572.9357" gradientTransform="matrix(10.6667 0 0 -10.6667 679.8889 6576.1069)">
		<stop  offset="0" style="stop-color:#FFBF3F"/>
		<stop  offset="1" style="stop-color:#FF6A8F"/>
	</linearGradient>
	<path style="fill:url(#SVGID_3_);" d="M469.333,234.552h-28.768L320,154.179v-47.627c0-2.379-0.789-4.672-2.24-6.549l-74.667-96
		c-4.043-5.184-12.8-5.184-16.843,0l-74.667,96c-1.461,1.877-2.251,4.171-2.251,6.549v47.627L28.768,234.552H0v21.333h21.333
		v202.667c0,5.899,4.779,10.667,10.667,10.667h405.333c5.888,0,10.667-4.768,10.667-10.667V255.885h21.333V234.552z
		 M170.667,110.211l64-82.283l64,82.283v39.008h-32v-32c0-17.643-14.357-32-32-32s-32,14.357-32,32v32h-32V110.211z
		 M245.333,149.219H224v-32c0-5.888,4.789-10.667,10.667-10.667s10.667,4.779,10.667,10.667V149.219z M213.333,447.885v-85.333
		c0-11.765,9.568-21.333,21.333-21.333S256,350.787,256,362.552v85.333H213.333z M426.667,447.885H320V298.552h-21.333v149.333
		h-21.333v-85.333c0-23.531-19.136-42.667-42.667-42.667S192,339.021,192,362.552v85.333h-21.333V298.552h-21.333v149.333H42.667
		v-196.96l106.667-71.115v76.075h21.333v-85.333h42.667H256h42.667v85.333H320v-76.075l106.667,71.115V447.885z"/>
	
		<linearGradient id="SVGID_4_" gradientUnits="userSpaceOnUse" x1="-28.7396" y1="616.4377" x2="-28.7396" y2="572.9357" gradientTransform="matrix(10.6667 0 0 -10.6667 679.8889 6576.1069)">
		<stop  offset="0" style="stop-color:#FFBF3F"/>
		<stop  offset="1" style="stop-color:#FF6A8F"/>
	</linearGradient>
	<polygon style="fill:url(#SVGID_4_);" points="362.667,405.219 384,405.219 384,319.885 405.333,319.885 405.333,298.552 
		384,298.552 384,266.552 362.667,266.552 362.667,298.552 341.333,298.552 341.333,319.885 362.667,319.885 	"/>
</g>
<g>
</g>
<g>
</g>
<g>
</g>
<g>
</g>
<g>
</g>
<g>
</g>
<g>
</g>
<g>
</g>
<g>
</g>
<g>
</g>
<g>
</g>
<g>
</g>
<g>
</g>
<g>
</g>
<g>
</g>
</svg>
