<?xml version="1.0" encoding="iso-8859-1"?>
<!-- Generator: Adobe Illustrator 19.0.0, SVG Export Plug-In . SVG Version: 6.00 Build 0)  -->
<svg version="1.1" id="Capa_1" xmlns="http://www.w3.org/2000/svg" xmlns:xlink="http://www.w3.org/1999/xlink" x="0px" y="0px"
	 viewBox="0 0 469.333 469.333" style="enable-background:new 0 0 469.333 469.333;" xml:space="preserve">
<g>
	
		<linearGradient id="SVGID_1_" gradientUnits="userSpaceOnUse" x1="-30.7396" y1="616.3024" x2="-30.7396" y2="572.9534" gradientTransform="matrix(10.6667 0 0 -10.6667 679.8889 6577.4448)">
		<stop  offset="0" style="stop-color:#FFBF3F"/>
		<stop  offset="1" style="stop-color:#FF6A8F"/>
	</linearGradient>
	<path style="fill:url(#SVGID_1_);" d="M352,234.667c-64.693,0-117.333,52.64-117.333,117.333S287.307,469.333,352,469.333
		S469.333,416.693,469.333,352S416.693,234.667,352,234.667z M352,448c-52.939,0-96-43.072-96-96s43.061-96,96-96s96,43.072,96,96
		S404.939,448,352,448z"/>
	
		<linearGradient id="SVGID_2_" gradientUnits="userSpaceOnUse" x1="-30.723" y1="616.3024" x2="-30.723" y2="572.9534" gradientTransform="matrix(10.6667 0 0 -10.6667 679.8889 6577.4448)">
		<stop  offset="0" style="stop-color:#FFBF3F"/>
		<stop  offset="1" style="stop-color:#FF6A8F"/>
	</linearGradient>
	<path style="fill:url(#SVGID_2_);" d="M360.779,303.019c-0.512,0.384-0.992,0.8-1.429,1.269l-7.168,7.573l-7.147-7.573
		c-0.448-0.459-0.928-0.885-1.44-1.269c-13.973-10.261-32.661-8.235-44.448,4.843c-11.264,12.501-13.024,31.456-4.277,46.112
		c0.437,0.747,0.981,1.44,1.589,2.048l47.989,48.299c2.005,2.016,4.469,3.52,7.563,3.147c2.827,0,5.547-1.12,7.541-3.125
		l48.32-48.299c0.629-0.619,1.163-1.323,1.611-2.069c8.747-14.645,6.987-33.611-4.267-46.112
		C393.429,294.773,374.741,292.768,360.779,303.019z M391.755,342.005l-39.701,39.68l-39.413-39.659
		c-3.221-6.379-2.283-14.731,2.379-19.893c4.16-4.608,10.336-5.557,15.285-2.4l14.133,14.976c2.016,2.133,4.821,3.339,7.765,3.339
		c2.944,0,5.739-1.205,7.755-3.339l14.155-14.987c4.971-3.157,11.136-2.219,15.285,2.4
		C394.016,327.296,394.965,335.637,391.755,342.005z"/>
	
		<linearGradient id="SVGID_3_" gradientUnits="userSpaceOnUse" x1="-41.7396" y1="616.3024" x2="-41.7396" y2="572.9534" gradientTransform="matrix(10.6667 0 0 -10.6667 679.8889 6577.4448)">
		<stop  offset="0" style="stop-color:#FFBF3F"/>
		<stop  offset="1" style="stop-color:#FF6A8F"/>
	</linearGradient>
	<path style="fill:url(#SVGID_3_);" d="M458.667,42.667H277.333C277.333,19.136,258.197,0,234.667,0S192,19.136,192,42.667H10.667
		C4.768,42.667,0,47.445,0,53.333v405.333c0,5.888,4.768,10.667,10.667,10.667H256V448H21.333V149.333H448V256h21.333V53.333
		C469.333,47.445,464.565,42.667,458.667,42.667z M234.667,21.333c11.765,0,21.333,9.568,21.333,21.333h-42.667
		C213.333,30.901,222.901,21.333,234.667,21.333z M21.333,128V64h181.333h64H448v64H21.333z"/>
	
		<linearGradient id="SVGID_4_" gradientUnits="userSpaceOnUse" x1="-56.7396" y1="616.3024" x2="-56.7396" y2="572.9534" gradientTransform="matrix(10.6667 0 0 -10.6667 679.8889 6577.4448)">
		<stop  offset="0" style="stop-color:#FFBF3F"/>
		<stop  offset="1" style="stop-color:#FF6A8F"/>
	</linearGradient>
	<rect x="64" y="192" style="fill:url(#SVGID_4_);" width="21.333" height="21.333"/>
	
		<linearGradient id="SVGID_5_" gradientUnits="userSpaceOnUse" x1="-50.7396" y1="616.3024" x2="-50.7396" y2="572.9534" gradientTransform="matrix(10.6667 0 0 -10.6667 679.8889 6577.4448)">
		<stop  offset="0" style="stop-color:#FFBF3F"/>
		<stop  offset="1" style="stop-color:#FF6A8F"/>
	</linearGradient>
	<rect x="128" y="192" style="fill:url(#SVGID_5_);" width="21.333" height="21.333"/>
	
		<linearGradient id="SVGID_6_" gradientUnits="userSpaceOnUse" x1="-44.7396" y1="616.3024" x2="-44.7396" y2="572.9534" gradientTransform="matrix(10.6667 0 0 -10.6667 679.8889 6577.4448)">
		<stop  offset="0" style="stop-color:#FFBF3F"/>
		<stop  offset="1" style="stop-color:#FF6A8F"/>
	</linearGradient>
	<rect x="192" y="192" style="fill:url(#SVGID_6_);" width="21.333" height="21.333"/>
	
		<linearGradient id="SVGID_7_" gradientUnits="userSpaceOnUse" x1="-56.7396" y1="616.3024" x2="-56.7396" y2="572.9534" gradientTransform="matrix(10.6667 0 0 -10.6667 679.8889 6577.4448)">
		<stop  offset="0" style="stop-color:#FFBF3F"/>
		<stop  offset="1" style="stop-color:#FF6A8F"/>
	</linearGradient>
	<rect x="64" y="256" style="fill:url(#SVGID_7_);" width="21.333" height="21.333"/>
	
		<linearGradient id="SVGID_8_" gradientUnits="userSpaceOnUse" x1="-50.7396" y1="616.3024" x2="-50.7396" y2="572.9534" gradientTransform="matrix(10.6667 0 0 -10.6667 679.8889 6577.4448)">
		<stop  offset="0" style="stop-color:#FFBF3F"/>
		<stop  offset="1" style="stop-color:#FF6A8F"/>
	</linearGradient>
	<rect x="128" y="256" style="fill:url(#SVGID_8_);" width="21.333" height="21.333"/>
	
		<linearGradient id="SVGID_9_" gradientUnits="userSpaceOnUse" x1="-44.7396" y1="616.3024" x2="-44.7396" y2="572.9534" gradientTransform="matrix(10.6667 0 0 -10.6667 679.8889 6577.4448)">
		<stop  offset="0" style="stop-color:#FFBF3F"/>
		<stop  offset="1" style="stop-color:#FF6A8F"/>
	</linearGradient>
	<rect x="192" y="256" style="fill:url(#SVGID_9_);" width="21.333" height="21.333"/>
	
		<linearGradient id="SVGID_10_" gradientUnits="userSpaceOnUse" x1="-56.7396" y1="616.3024" x2="-56.7396" y2="572.9534" gradientTransform="matrix(10.6667 0 0 -10.6667 679.8889 6577.4448)">
		<stop  offset="0" style="stop-color:#FFBF3F"/>
		<stop  offset="1" style="stop-color:#FF6A8F"/>
	</linearGradient>
	<rect x="64" y="320" style="fill:url(#SVGID_10_);" width="21.333" height="21.333"/>
	
		<linearGradient id="SVGID_11_" gradientUnits="userSpaceOnUse" x1="-50.7396" y1="616.3024" x2="-50.7396" y2="572.9534" gradientTransform="matrix(10.6667 0 0 -10.6667 679.8889 6577.4448)">
		<stop  offset="0" style="stop-color:#FFBF3F"/>
		<stop  offset="1" style="stop-color:#FF6A8F"/>
	</linearGradient>
	<rect x="128" y="320" style="fill:url(#SVGID_11_);" width="21.333" height="21.333"/>
	
		<linearGradient id="SVGID_12_" gradientUnits="userSpaceOnUse" x1="-44.7396" y1="616.3024" x2="-44.7396" y2="572.9534" gradientTransform="matrix(10.6667 0 0 -10.6667 679.8889 6577.4448)">
		<stop  offset="0" style="stop-color:#FFBF3F"/>
		<stop  offset="1" style="stop-color:#FF6A8F"/>
	</linearGradient>
	<rect x="192" y="320" style="fill:url(#SVGID_12_);" width="21.333" height="21.333"/>
	
		<linearGradient id="SVGID_13_" gradientUnits="userSpaceOnUse" x1="-56.7396" y1="616.3024" x2="-56.7396" y2="572.9534" gradientTransform="matrix(10.6667 0 0 -10.6667 679.8889 6577.4448)">
		<stop  offset="0" style="stop-color:#FFBF3F"/>
		<stop  offset="1" style="stop-color:#FF6A8F"/>
	</linearGradient>
	<rect x="64" y="384" style="fill:url(#SVGID_13_);" width="21.333" height="21.333"/>
	
		<linearGradient id="SVGID_14_" gradientUnits="userSpaceOnUse" x1="-50.7396" y1="616.3024" x2="-50.7396" y2="572.9534" gradientTransform="matrix(10.6667 0 0 -10.6667 679.8889 6577.4448)">
		<stop  offset="0" style="stop-color:#FFBF3F"/>
		<stop  offset="1" style="stop-color:#FF6A8F"/>
	</linearGradient>
	<rect x="128" y="384" style="fill:url(#SVGID_14_);" width="21.333" height="21.333"/>
	
		<linearGradient id="SVGID_15_" gradientUnits="userSpaceOnUse" x1="-44.7396" y1="616.3024" x2="-44.7396" y2="572.9534" gradientTransform="matrix(10.6667 0 0 -10.6667 679.8889 6577.4448)">
		<stop  offset="0" style="stop-color:#FFBF3F"/>
		<stop  offset="1" style="stop-color:#FF6A8F"/>
	</linearGradient>
	<rect x="192" y="384" style="fill:url(#SVGID_15_);" width="21.333" height="21.333"/>
	
		<linearGradient id="SVGID_16_" gradientUnits="userSpaceOnUse" x1="-38.7396" y1="616.3024" x2="-38.7396" y2="572.9534" gradientTransform="matrix(10.6667 0 0 -10.6667 679.8889 6577.4448)">
		<stop  offset="0" style="stop-color:#FFBF3F"/>
		<stop  offset="1" style="stop-color:#FF6A8F"/>
	</linearGradient>
	<rect x="256" y="192" style="fill:url(#SVGID_16_);" width="21.333" height="21.333"/>
	
		<linearGradient id="SVGID_17_" gradientUnits="userSpaceOnUse" x1="-32.7396" y1="616.3024" x2="-32.7396" y2="572.9534" gradientTransform="matrix(10.6667 0 0 -10.6667 679.8889 6577.4448)">
		<stop  offset="0" style="stop-color:#FFBF3F"/>
		<stop  offset="1" style="stop-color:#FF6A8F"/>
	</linearGradient>
	<rect x="320" y="192" style="fill:url(#SVGID_17_);" width="21.333" height="21.333"/>
	
		<linearGradient id="SVGID_18_" gradientUnits="userSpaceOnUse" x1="-26.7396" y1="616.3024" x2="-26.7396" y2="572.9534" gradientTransform="matrix(10.6667 0 0 -10.6667 679.8889 6577.4448)">
		<stop  offset="0" style="stop-color:#FFBF3F"/>
		<stop  offset="1" style="stop-color:#FF6A8F"/>
	</linearGradient>
	<rect x="384" y="192" style="fill:url(#SVGID_18_);" width="21.333" height="21.333"/>
	
		<linearGradient id="SVGID_19_" gradientUnits="userSpaceOnUse" x1="-54.7396" y1="616.3024" x2="-54.7396" y2="572.9534" gradientTransform="matrix(10.6667 0 0 -10.6667 679.8889 6577.4448)">
		<stop  offset="0" style="stop-color:#FFBF3F"/>
		<stop  offset="1" style="stop-color:#FF6A8F"/>
	</linearGradient>
	<rect x="85.333" y="85.333" style="fill:url(#SVGID_19_);" width="21.333" height="21.333"/>
	
		<linearGradient id="SVGID_20_" gradientUnits="userSpaceOnUse" x1="-28.7396" y1="616.3024" x2="-28.7396" y2="572.9534" gradientTransform="matrix(10.6667 0 0 -10.6667 679.8889 6577.4448)">
		<stop  offset="0" style="stop-color:#FFBF3F"/>
		<stop  offset="1" style="stop-color:#FF6A8F"/>
	</linearGradient>
	<rect x="362.667" y="85.333" style="fill:url(#SVGID_20_);" width="21.333" height="21.333"/>
</g>
<g>
</g>
<g>
</g>
<g>
</g>
<g>
</g>
<g>
</g>
<g>
</g>
<g>
</g>
<g>
</g>
<g>
</g>
<g>
</g>
<g>
</g>
<g>
</g>
<g>
</g>
<g>
</g>
<g>
</g>
</svg>
