<?xml version="1.0" encoding="iso-8859-1"?>
<!-- Generator: Adobe Illustrator 19.0.0, SVG Export Plug-In . SVG Version: 6.00 Build 0)  -->
<svg version="1.1" id="Capa_1" xmlns="http://www.w3.org/2000/svg" xmlns:xlink="http://www.w3.org/1999/xlink" x="0px" y="0px"
	 viewBox="0 0 469.333 469.333" style="enable-background:new 0 0 469.333 469.333;" xml:space="preserve">
<linearGradient id="SVGID_1_" gradientUnits="userSpaceOnUse" x1="-41.7396" y1="616.6354" x2="-41.7396" y2="573.0344" gradientTransform="matrix(10.6667 0 0 -10.6667 679.8889 6577.4448)">
	<stop  offset="0" style="stop-color:#FFBF3F"/>
	<stop  offset="1" style="stop-color:#FF6A8F"/>
</linearGradient>
<path style="fill:url(#SVGID_1_);" d="M417.643,379.349l-12.309-5.131v-32.885c0-1.312-0.235-2.613-0.704-3.829l-50.528-131.371
	c5.237-4.875,8.565-11.765,8.565-19.467v-32c0-8.469-4.043-15.947-10.229-20.843l2.496-29.856
	c2.229-26.677-6.891-53.28-25.024-72.981C311.776,11.296,286.027,0,259.264,0H210.08c-26.773,0-52.523,11.296-70.645,30.997
	s-27.253,46.304-25.024,72.981l2.496,29.856c-6.197,4.885-10.24,12.363-10.24,20.832v32c0,7.701,3.328,14.592,8.565,19.467
	L64.704,337.504C64.235,338.72,64,340.021,64,341.333v32.885l-12.309,5.131C39.733,384.341,32,395.936,32,408.885v49.781
	c0,5.888,4.768,10.667,10.667,10.667h384c5.899,0,10.667-4.779,10.667-10.667v-49.781
	C437.333,395.936,429.6,384.341,417.643,379.349z M142.144,192h-8.811c-2.933,0-5.333-2.389-5.333-5.333v-32
	c0-2.944,2.4-5.333,5.333-5.333h6.315L142.144,192z M244.544,96h19.797c18.933,0,34.325,18.187,34.325,40.533v2.133h-10.432
	c-21.248,0-39.019-17.163-44.032-40.224C244.341,97.643,244.437,96.821,244.544,96z M222.101,96
	c0.085,0.651,0.171,1.301,0.267,1.952c-6.752,27.936-34.763,42.944-51.701,49.536v-10.955c0-22.347,18.336-40.533,40.875-40.533
	H222.101z M232.896,127.232C244.939,146.987,265.248,160,288.235,160h20.032l-4.96,74.443
	c-2.411,36.064-32.544,64.224-68.672,64.224c-0.096,0-0.203,0-0.288,0c-36.235-0.149-66.293-28.619-68.395-64.789l-3.584-61.344
	c0,0,0,0,0.011,0C164.917,171.957,210.368,161.12,232.896,127.232z M330.357,149.333H336c2.933,0,5.333,2.389,5.333,5.333v32
	c0,2.944-2.4,5.333-5.333,5.333h-8.48L330.357,149.333z M197.365,311.797c11.296,5.163,23.776,8.149,36.917,8.203
	c0.128,0,0.245,0,0.373,0c13.28,0,25.899-2.997,37.312-8.213l12.395,24.779l-35.371,17.685c-8.96,4.48-19.669,4.48-28.629,0
	l-35.371-17.685L197.365,311.797z M234.667,384c5.888,0,10.667,4.789,10.667,10.667s-4.779,10.667-10.667,10.667
	S224,400.544,224,394.667S228.779,384,234.667,384z M170.261,353.056l40.555,20.277c0.043,0.021,0.085,0.032,0.128,0.053
	c-5.088,5.675-8.277,13.077-8.277,21.28c0,17.643,14.357,32,32,32s32-14.357,32-32c0-8.203-3.189-15.605-8.277-21.28
	c0.043-0.021,0.085-0.032,0.128-0.053l40.555-20.277l67.072,27.947l-131.477,65.739l-131.477-65.739L170.261,353.056z M384,365.333
	l-77.568-32.32l-16.16-32.32c19.456-15.307,32.555-38.443,34.325-64.832l1.493-22.528h7.915L384,343.317V365.333z M154.923,45.941
	c14.208-15.637,33.675-24.32,54.795-24.448l49.184-0.309c21.12-0.128,40.693,8.309,55.093,23.765
	c14.4,15.456,21.44,35.573,19.819,56.64l-1.995,25.813l-11.467,8.608c-0.213-34.112-25.355-61.707-56.043-61.515l-19.179,0.117
	l0.107-10.485l-21.333-0.224l-0.117,10.848l-12.267,0.064c-34.304,0.213-62.037,28.139-61.824,62.251l-11.573-8.459l-2.315-25.781
	C133.92,81.771,140.715,61.579,154.923,45.941z M85.333,343.317l49.995-129.984h8.064l1.269,21.781
	c1.547,26.688,14.709,50.165,34.379,65.621l-16.139,32.277l-77.568,32.32V343.317z M53.333,448v-39.115
	c0-4.32,2.571-8.192,6.56-9.845l17.269-7.2L189.483,448H53.333z M416,448H279.851l112.309-56.16l17.269,7.2
	c4,1.664,6.571,5.525,6.571,9.845V448z"/>
<g>
</g>
<g>
</g>
<g>
</g>
<g>
</g>
<g>
</g>
<g>
</g>
<g>
</g>
<g>
</g>
<g>
</g>
<g>
</g>
<g>
</g>
<g>
</g>
<g>
</g>
<g>
</g>
<g>
</g>
</svg>
