<?xml version="1.0" encoding="iso-8859-1"?>
<!-- Generator: Adobe Illustrator 19.0.0, SVG Export Plug-In . SVG Version: 6.00 Build 0)  -->
<svg version="1.1" id="Capa_1" xmlns="http://www.w3.org/2000/svg" xmlns:xlink="http://www.w3.org/1999/xlink" x="0px" y="0px"
	 viewBox="0 0 469.333 469.333" style="enable-background:new 0 0 469.333 469.333;" xml:space="preserve">
<g>
	
		<linearGradient id="SVGID_1_" gradientUnits="userSpaceOnUse" x1="-41.7396" y1="616.5524" x2="-41.7396" y2="576.6154" gradientTransform="matrix(10.6667 0 0 -10.6667 679.8889 6577.4448)">
		<stop  offset="0" style="stop-color:#FFBF3F"/>
		<stop  offset="1" style="stop-color:#FF6A8F"/>
	</linearGradient>
	<path style="fill:url(#SVGID_1_);" d="M458.667,362.667V320c0-5.824-2.357-11.104-6.165-14.965
		c1.461-4.629,1.397-9.664-0.459-14.304c-0.277-0.683-0.629-1.344-1.045-1.973l-14.795-22.091h1.131v-160
		c0-5.899-4.768-10.667-10.667-10.667c-17.643,0-32-14.357-32-32c0-5.899-4.768-10.667-10.667-10.667h-70.251
		C300.843,21.557,269.408,0,234.667,0s-66.176,21.557-79.083,53.333H85.333c-5.899,0-10.667,4.768-10.667,10.667
		c0,17.643-14.357,32-32,32C36.768,96,32,100.768,32,106.667v160h1.131l-14.805,22.101c-0.416,0.629-0.757,1.28-1.045,1.973
		c-1.845,4.629-1.909,9.664-0.448,14.304c-3.808,3.851-6.165,9.131-6.165,14.955v42.667C4.768,362.667,0,367.435,0,373.333V416
		c0,5.899,4.768,10.667,10.667,10.667h23.68l8.651,34.581c1.184,4.757,5.44,8.085,10.336,8.085h21.333
		c4.896,0,9.152-3.328,10.347-8.085l8.64-34.581H375.68l8.651,34.581c1.184,4.757,5.44,8.085,10.336,8.085H416
		c4.896,0,9.152-3.328,10.347-8.085l8.64-34.581h23.68c5.899,0,10.667-4.768,10.667-10.667v-42.667
		C469.333,367.435,464.565,362.667,458.667,362.667z M37.376,298.667l21.44-32h239.851v-21.333H73.259l28.448-42.667h265.92
		l28.448,42.667H320v21.333h90.517l21.44,32H37.376z M202.667,181.333h-96v-42.667h96V181.333z M362.667,181.333h-96v-42.667h96
		V181.333z M53.333,116.256c20.864-4.245,37.344-20.725,41.589-41.589h68.213c4.715,0,8.875-3.104,10.219-7.627
		c8.011-26.912,33.227-45.707,61.312-45.707s53.301,18.795,61.312,45.707c1.344,4.523,5.504,7.627,10.219,7.627h68.213
		c4.245,20.864,20.725,37.344,41.589,41.589v120.256l-32-47.765v-50.08c0-11.765-9.568-21.333-21.333-21.333h-96
		c-11.765,0-21.333,9.568-21.333,21.333v42.667H224v-42.667c0-11.765-9.568-21.333-21.333-21.333h-96
		c-11.765,0-21.333,9.568-21.333,21.333v50.08l-32,47.765L53.333,116.256L53.333,116.256z M32,320h400.245h5.088v42.667H32V320z
		 M66.336,448h-4.672l-5.333-21.333h15.339L66.336,448z M407.669,448h-4.672l-5.333-21.333h15.339L407.669,448z M448,405.333H21.333
		V384H448V405.333z"/>
	
		<linearGradient id="SVGID_2_" gradientUnits="userSpaceOnUse" x1="-41.7396" y1="616.5524" x2="-41.7396" y2="576.6154" gradientTransform="matrix(10.6667 0 0 -10.6667 679.8889 6577.4448)">
		<stop  offset="0" style="stop-color:#FFBF3F"/>
		<stop  offset="1" style="stop-color:#FF6A8F"/>
	</linearGradient>
	<rect x="224" y="42.667" style="fill:url(#SVGID_2_);" width="21.333" height="21.333"/>
	
		<linearGradient id="SVGID_3_" gradientUnits="userSpaceOnUse" x1="-41.7396" y1="616.5524" x2="-41.7396" y2="576.6154" gradientTransform="matrix(10.6667 0 0 -10.6667 679.8889 6577.4448)">
		<stop  offset="0" style="stop-color:#FFBF3F"/>
		<stop  offset="1" style="stop-color:#FF6A8F"/>
	</linearGradient>
	<rect x="224" y="85.333" style="fill:url(#SVGID_3_);" width="21.333" height="21.333"/>
</g>
<g>
</g>
<g>
</g>
<g>
</g>
<g>
</g>
<g>
</g>
<g>
</g>
<g>
</g>
<g>
</g>
<g>
</g>
<g>
</g>
<g>
</g>
<g>
</g>
<g>
</g>
<g>
</g>
<g>
</g>
</svg>
